<?xml version="1.0" encoding="utf-8"?>
<!-- Generator: Adobe Illustrator 19.2.1, SVG Export Plug-In . SVG Version: 6.00 Build 0)  -->
<svg version="1.1" id="Layer_1" xmlns="http://www.w3.org/2000/svg" xmlns:xlink="http://www.w3.org/1999/xlink" x="0px" y="0px"
	 viewBox="0 0 218.2 35.5" enable-background="new 0 0 218.2 35.5" xml:space="preserve">
<g display="none">
	<g display="inline">
		<polygon fill="#070078" points="98.3,-76 101,-76 101,-68.7 102.5,-68.7 102.5,-76 105.1,-76 105.1,-77.3 98.3,-77.3 		"/>
		<path fill="#070078" d="M109.4-74.6c-0.8,0-1.3,0.2-1.8,0.5v-3.5l-1.5,0.5v8.3h1.5v-4.2c0.4-0.2,0.9-0.4,1.3-0.4
			c0.8,0,1.2,0.5,1.2,1.1v3.5h1.5v-3.7C111.7-73.6,111-74.6,109.4-74.6z"/>
		<path fill="#070078" d="M115.7-74.6c-1.8,0-2.9,1.4-2.9,3c0,1.7,1,3,3.1,3c0.7,0,1.7-0.2,2.3-0.5v-1.3c-0.6,0.4-1.6,0.6-2.1,0.6
			c-1,0-1.7-0.6-1.7-1.5h4.1v-0.5C118.4-73.8,117.1-74.6,115.7-74.6z M114.3-72.2c0.1-0.8,0.7-1.2,1.4-1.2c0.6,0,1.2,0.4,1.2,1.2
			H114.3z"/>
		<path fill="#070078" d="M122-73c0,2.5,1.8,4.5,4.6,4.5c1.4,0,2.6-0.5,3.4-1v-1.7c-1,1-2.2,1.4-3.3,1.4c-1.9,0-3.1-1.3-3.1-3.2
			c0-1.8,1.2-3.1,3.1-3.1c1.1,0,2.3,0.4,3.3,1.5v-1.8c-0.7-0.5-2-1-3.4-1C123.8-77.5,122-75.5,122-73z"/>
		<path fill="#070078" d="M134.7-74.6c-0.8,0-1.3,0.2-1.7,0.5v-3.5l-1.5,0.5v8.3h1.5v-4.2c0.4-0.2,0.9-0.4,1.3-0.4
			c0.8,0,1.2,0.5,1.2,1.1v3.5h1.5v-3.7C137-73.6,136.3-74.6,134.7-74.6z"/>
		<path fill="#070078" d="M140.9-74.6c-0.7,0-1.7,0.2-2.4,0.5v1.3c0.7-0.3,1.5-0.6,2.2-0.6c0.8,0,1.2,0.4,1.2,1v0.3h-1.5
			c-1.7,0-2.3,0.8-2.3,1.8c0,1.4,1.1,1.8,2.1,1.8c0.7,0,1.4-0.2,1.8-0.5l1.3,0.5v-3.7C143.3-73.5,142.7-74.6,140.9-74.6z M141.9-70
			c-0.4,0.3-0.9,0.5-1.4,0.5c-0.5,0-1-0.2-1-0.8c0-0.5,0.4-0.8,0.9-0.8h1.4V-70z"/>
		<path fill="#070078" d="M146.1-73.8l-1.3-0.6v5.7h1.5v-3.9c0,0,0.5-0.6,1.3-0.6c0.5,0,1.1,0.2,1.2,0.3v-1.5
			c-0.3-0.1-0.7-0.2-1.1-0.2C147-74.6,146.4-74.1,146.1-73.8z"/>
		<path fill="#070078" d="M152-69.9c-0.5,0-0.7-0.3-0.7-0.7v-2.6h1.9v-1.2h-1.9v-2.1l-1.5,0.5v5.5c0,1.1,0.6,1.9,1.9,1.9
			c0.7,0,1.5-0.2,1.7-0.3l0-1.3C153.2-70.1,152.5-69.9,152-69.9z"/>
		<path fill="#070078" d="M157-74.6c-1.8,0-2.9,1.4-2.9,3c0,1.7,1,3,3.1,3c0.7,0,1.7-0.2,2.3-0.5v-1.3c-0.6,0.4-1.6,0.6-2.1,0.6
			c-1,0-1.7-0.6-1.7-1.5l4.1,0v-0.5C159.7-73.8,158.4-74.6,157-74.6z M155.6-72.2c0.1-0.8,0.7-1.2,1.4-1.2c0.6,0,1.2,0.4,1.2,1.2
			H155.6z"/>
		<path fill="#070078" d="M162.2-73.8l-1.3-0.6v5.7h1.5v-3.9c0,0,0.5-0.6,1.3-0.6c0.5,0,1.1,0.2,1.2,0.3v-1.5
			c-0.3-0.1-0.7-0.2-1.1-0.2C163.1-74.6,162.5-74.1,162.2-73.8z"/>
		<path fill="#070078" d="M168.5-74.6c-1.8,0-2.9,1.4-2.9,3c0,1.7,1,3,3.1,3c0.7,0,1.8-0.2,2.3-0.5v-1.3c-0.6,0.4-1.6,0.6-2.1,0.6
			c-1,0-1.7-0.6-1.7-1.5h4.1v-0.5C171.2-73.8,169.9-74.6,168.5-74.6z M167.1-72.2c0.1-0.8,0.7-1.2,1.4-1.2c0.6,0,1.2,0.4,1.2,1.2
			H167.1z"/>
		<path fill="#070078" d="M176.5-77v2.8c-0.4-0.2-0.9-0.4-1.5-0.4c-1.8,0-2.9,1.3-2.9,3.1c0,1.7,1,3,2.9,3c0.8,0,1.4-0.2,1.7-0.5
			l1.3,0.4v-9L176.5-77z M176.5-70.1c-0.3,0.2-0.8,0.3-1.2,0.3c-1.1,0-1.7-0.8-1.7-1.8c0-1.1,0.6-1.8,1.6-1.8c0.5,0,1,0.2,1.3,0.4
			V-70.1z"/>
	</g>
	<g display="inline">
		<path fill="#070078" d="M118.7-57.7c-0.5,0-0.7-0.3-0.7-0.7V-61h1.9v-1.2H118v-2.1l-1.5,0.5v5.5c0,1.1,0.6,1.9,1.9,1.9
			c0.7,0,1.5-0.2,1.7-0.3l0-1.3C119.9-57.9,119.2-57.7,118.7-57.7z"/>
		<path fill="#070078" d="M126.3-57.7c-0.5,0-0.7-0.3-0.7-0.7V-61h1.9v-1.2h-1.9v-2.1l-1.5,0.5v5.5c0,1.1,0.6,1.9,1.9,1.9
			c0.7,0,1.5-0.2,1.7-0.3l0-1.3C127.5-57.9,126.8-57.7,126.3-57.7z"/>
		<path fill="#070078" d="M137.8-57.7c-0.5,0-0.7-0.3-0.7-0.7V-61h1.9v-1.2H137v-2.1l-1.5,0.5v5.5c0,1.1,0.6,1.9,1.9,1.9
			c0.7,0,1.5-0.2,1.7-0.3l0-1.3C138.9-57.9,138.2-57.7,137.8-57.7z"/>
		<rect x="101" y="-65.1" fill="#070078" width="1.5" height="8.6"/>
		<path fill="#070078" d="M107.5-62.4c-0.8,0-1.4,0.2-1.9,0.5l-1.2-0.4v5.7h1.5v-4.2c0.4-0.2,0.8-0.4,1.4-0.4c0.8,0,1.2,0.4,1.2,1.1
			v3.5h1.5v-3.7C109.8-61.5,109-62.4,107.5-62.4z"/>
		<path fill="#070078" d="M114.1-59.7l-1.2-0.4c-0.4-0.1-0.4-0.3-0.4-0.5c0-0.4,0.3-0.6,0.8-0.6c0.5,0,1.3,0.2,1.9,0.6V-62
			c-0.2-0.1-1-0.4-1.9-0.4c-1.5,0-2.3,0.8-2.3,1.7c0,0.8,0.5,1.3,1.2,1.6l1.2,0.4c0.4,0.1,0.5,0.3,0.5,0.6c0,0.2-0.1,0.6-1,0.6
			c-0.7,0-1.4-0.3-2-0.6v1.3c0.5,0.2,1.3,0.4,2,0.4c1.4,0,2.4-0.5,2.4-1.8C115.4-59,114.8-59.5,114.1-59.7z"/>
		<path fill="#070078" d="M132.6-58c-0.4,0.3-0.8,0.4-1.4,0.4c-0.8,0-1.1-0.4-1.1-1.1v-3.5h-1.5v3.8c0,1.2,0.7,2.1,2.3,2.1
			c0.8,0,1.5-0.2,1.9-0.5l1.2,0.4v-5.8h-1.5V-58z"/>
		<path fill="#070078" d="M142.8-62.4c-1.8,0-2.9,1.4-2.9,3c0,1.7,1,3,3.1,3c0.7,0,1.8-0.2,2.3-0.5v-1.3c-0.6,0.4-1.6,0.6-2.1,0.6
			c-1,0-1.7-0.6-1.7-1.5h4.1v-0.5C145.4-61.6,144.1-62.4,142.8-62.4z M141.4-60c0.1-0.8,0.7-1.2,1.4-1.2c0.6,0,1.2,0.4,1.2,1.2
			H141.4z"/>
		<path fill="#070078" d="M152-62.4c-1.9,0-3.1,1.4-3.1,3c0,1.7,1.2,3,3.1,3c1.9,0,3.1-1.4,3.1-3C155.1-61,153.9-62.4,152-62.4z
			 M152-57.5c-1.1,0-1.7-0.8-1.7-1.8c0-1,0.6-1.8,1.7-1.8c1.1,0,1.7,0.8,1.7,1.8C153.7-58.3,153.1-57.5,152-57.5z"/>
		<path fill="#070078" d="M156.7-63.5v1.3h-1v1.2h1v4.5h1.5V-61h1.3v-1.2h-1.3v-1.1c0-0.4,0.2-0.8,0.8-0.8c0.6,0,1.2,0.3,1.3,0.4
			V-65c-0.2-0.1-0.9-0.3-1.5-0.3C157.5-65.4,156.7-64.6,156.7-63.5z"/>
		<rect x="121.2" y="-62.2" fill="#070078" width="1.5" height="5.7"/>
		<ellipse fill="#070078" cx="121.9" cy="-64.1" rx="0.9" ry="0.9"/>
		<path fill="#070078" d="M200.8-57.7c-0.5,0-0.7-0.3-0.7-0.7V-61h1.9v-1.2h-1.9v-2.1l-1.5,0.5v5.5c0,1.1,0.6,1.9,1.9,1.9
			c0.7,0,1.5-0.2,1.7-0.3l0-1.3C202-57.9,201.3-57.7,200.8-57.7z"/>
		<path fill="#070078" d="M177.1-62.4c-0.7,0-1.7,0.2-2.4,0.5v1.3c0.7-0.3,1.5-0.6,2.2-0.6c0.8,0,1.2,0.4,1.2,1v0.3h-1.5
			c-1.7,0-2.3,0.8-2.3,1.8c0,1.4,1.1,1.8,2.1,1.8c0.7,0,1.4-0.2,1.8-0.5l1.3,0.5V-60C179.5-61.4,178.9-62.4,177.1-62.4z M178.1-57.8
			c-0.4,0.3-0.9,0.5-1.4,0.5c-0.5,0-1-0.2-1-0.8c0-0.5,0.4-0.8,0.9-0.8h1.4V-57.8z"/>
		<path fill="#070078" d="M182.3-61.6l-1.3-0.6v5.7h1.5v-3.9c0,0,0.5-0.6,1.3-0.6c0.5,0,1.1,0.2,1.2,0.3v-1.5
			c-0.3-0.1-0.7-0.2-1.1-0.2C183.2-62.4,182.6-62,182.3-61.6z"/>
		<polygon fill="#070078" points="191.5,-62.2 189.7,-62.2 187.5,-59.6 189.9,-56.5 191.8,-56.5 189.2,-59.6 		"/>
		<polygon fill="#070078" points="185.9,-56.5 187.4,-56.5 187.4,-64.8 185.9,-65.4 		"/>
		<path fill="#070078" d="M194.8-62.4c-1.8,0-2.9,1.4-2.9,3c0,1.7,1,3,3.1,3c0.7,0,1.7-0.2,2.3-0.5v-1.3c-0.6,0.4-1.6,0.6-2.1,0.6
			c-1,0-1.7-0.6-1.7-1.5h4.1v-0.5C197.5-61.6,196.2-62.4,194.8-62.4z M193.4-60c0.1-0.8,0.7-1.2,1.4-1.2c0.6,0,1.2,0.4,1.2,1.2
			H193.4z"/>
		<path fill="#070078" d="M209.5-62.4c-0.8,0-1.4,0.2-1.9,0.5l-1.2-0.4v5.7h1.5v-4.2c0.4-0.2,0.8-0.4,1.4-0.4c0.8,0,1.2,0.4,1.2,1.1
			v3.5h1.5v-3.7C211.8-61.5,211-62.4,209.5-62.4z"/>
		<path fill="#070078" d="M217.6-61.9c-0.4-0.3-1-0.5-1.7-0.5c-1.8,0-3,1.3-3,3.1c0,1.6,1,3,2.9,3c0.5,0,1.2-0.1,1.5-0.3v0.7
			c0,0.7-0.4,1.3-1.6,1.3c-0.8,0-1.6-0.3-2.2-0.7v1.5c0.6,0.3,1.6,0.4,2.3,0.4c2.2,0,3.1-1.2,3.1-2.7v-6.1L217.6-61.9z M217.3-57.9
			c-0.3,0.2-0.8,0.3-1.3,0.3c-1.1,0-1.6-0.8-1.6-1.8c0-1,0.6-1.8,1.6-1.8c0.5,0,1,0.2,1.3,0.4V-57.9z"/>
		<rect x="203.3" y="-62.2" fill="#070078" width="1.5" height="5.7"/>
		<ellipse fill="#070078" cx="204.1" cy="-64.1" rx="0.9" ry="0.9"/>
		<polygon fill="#070078" points="168.5,-60 165.5,-65.1 164.1,-65.1 164.1,-56.5 165.6,-56.5 165.6,-62.4 168.5,-57.4 168.5,-57.4 
			171.4,-62.4 171.4,-56.5 173,-56.5 173,-65.1 171.5,-65.1 		"/>
	</g>
</g>
<g>
	<g>
		<rect x="37.5" y="0.7" fill="#070078" width="1.6" height="31"/>
		<rect x="41" y="0.7" fill="#070078" width="1.6" height="31"/>
	</g>
	<g>
		<path fill="#070078" d="M28.6,23.4c-2.6,4.5-7.4,7.2-12.5,7.2h0c-7.9,0-14.4-6.5-14.4-14.5c0-8,6.5-14.4,14.4-14.4
			c5.1,0,9.9,2.8,12.5,7.2l0,0L30,8.2l0,0c-2.9-4.9-8.2-8-13.9-8c-8.8,0-16,7.2-16,16c0,8.8,7.2,16,16,16c5.7,0,11-3.1,13.9-8l0,0
			L28.6,23.4L28.6,23.4z"/>
		<path fill="#070078" d="M16.1,5.2c3.9,0,7.6,2.1,9.5,5.5l0,0L27,10l0,0c-2.2-3.9-6.4-6.3-10.9-6.3l0,0v0C9.2,3.7,3.6,9.3,3.6,16.2
			c0,6.9,5.6,12.6,12.6,12.6c4.5,0,8.6-2.4,10.9-6.3l0,0l-1.4-0.8l0,0c-2,3.4-5.6,5.5-9.5,5.5c-6.1,0-11-4.9-11-11
			C5.1,10.2,10.1,5.2,16.1,5.2z"/>
	</g>
	<g>
		<rect x="50.5" y="0.7" fill="#070078" width="1.6" height="31"/>
		<polygon fill="#070078" points="54.1,4.4 54,4.3 54,31.7 55.5,31.7 55.5,10 66.1,28.4 76.7,10 76.7,31.7 78.3,31.7 78.3,4.3 
			66.1,25.4 		"/>
		<rect x="80.2" y="0.7" fill="#070078" width="1.6" height="31"/>
		<polygon fill="#070078" points="66.1,18.8 55.7,0.7 54,0.7 66.1,21.8 78.3,0.7 76.6,0.7 		"/>
	</g>
</g>
<g>
	<g>
		<polygon fill="#737370" points="97.5,12.7 100.1,12.7 100.1,20 101.6,20 101.6,12.7 104.2,12.7 104.2,11.4 97.5,11.4 		"/>
		<path fill="#737370" d="M108.6,14.1c-0.8,0-1.3,0.2-1.8,0.5v-3.5l-1.5,0.5V20h1.5v-4.2c0.4-0.2,0.9-0.4,1.3-0.4
			c0.8,0,1.2,0.5,1.2,1.1V20h1.5v-3.7C110.8,15,110.1,14.1,108.6,14.1z"/>
		<path fill="#737370" d="M114.8,14.1c-1.8,0-2.9,1.4-2.9,3c0,1.7,1,3,3.1,3c0.7,0,1.7-0.2,2.3-0.5v-1.3c-0.6,0.4-1.6,0.6-2.1,0.6
			c-1,0-1.7-0.6-1.7-1.5h4.1v-0.5C117.5,14.9,116.2,14.1,114.8,14.1z M113.4,16.5c0.1-0.8,0.7-1.2,1.4-1.2c0.6,0,1.2,0.4,1.2,1.2
			H113.4z"/>
		<path fill="#737370" d="M121.1,15.7c0,2.5,1.8,4.5,4.6,4.5c1.4,0,2.6-0.5,3.4-1v-1.7c-1,1-2.2,1.4-3.3,1.4c-1.9,0-3.1-1.3-3.1-3.2
			c0-1.8,1.2-3.1,3.1-3.1c1.1,0,2.3,0.4,3.3,1.5v-1.8c-0.7-0.5-2-1-3.4-1C122.9,11.2,121.1,13.2,121.1,15.7z"/>
		<path fill="#737370" d="M133.8,14.1c-0.8,0-1.3,0.2-1.7,0.5v-3.5l-1.5,0.5V20h1.5v-4.2c0.4-0.2,0.9-0.4,1.3-0.4
			c0.8,0,1.2,0.5,1.2,1.1V20h1.5v-3.7C136.1,15,135.4,14.1,133.8,14.1z"/>
		<path fill="#737370" d="M140,14.1c-0.7,0-1.7,0.2-2.4,0.5v1.3c0.7-0.3,1.5-0.6,2.2-0.6c0.8,0,1.2,0.4,1.2,1v0.3h-1.5
			c-1.7,0-2.3,0.8-2.3,1.8c0,1.4,1.1,1.8,2.1,1.8c0.7,0,1.4-0.2,1.8-0.5l1.3,0.5v-3.7C142.4,15.1,141.9,14.1,140,14.1z M141,18.6
			c-0.4,0.3-0.9,0.5-1.4,0.5c-0.5,0-1-0.2-1-0.8c0-0.5,0.4-0.8,0.9-0.8h1.4V18.6z"/>
		<path fill="#737370" d="M145.2,14.9l-1.3-0.6V20h1.5v-3.9c0,0,0.5-0.6,1.3-0.6c0.5,0,1.1,0.2,1.2,0.3v-1.5
			c-0.3-0.1-0.7-0.2-1.1-0.2C146.1,14.1,145.5,14.5,145.2,14.9z"/>
		<path fill="#737370" d="M151.1,18.8c-0.5,0-0.7-0.3-0.7-0.7v-2.6h1.9v-1.2h-1.9v-2.1l-1.5,0.5v5.5c0,1.1,0.6,1.9,1.9,1.9
			c0.7,0,1.5-0.2,1.7-0.3l0-1.3C152.3,18.6,151.6,18.8,151.1,18.8z"/>
		<path fill="#737370" d="M156.1,14.1c-1.8,0-2.9,1.4-2.9,3c0,1.7,1,3,3.1,3c0.7,0,1.7-0.2,2.3-0.5v-1.3c-0.6,0.4-1.6,0.6-2.1,0.6
			c-1,0-1.7-0.6-1.7-1.5l4.1,0v-0.5C158.8,14.9,157.5,14.1,156.1,14.1z M154.7,16.5c0.1-0.8,0.7-1.2,1.4-1.2c0.6,0,1.2,0.4,1.2,1.2
			H154.7z"/>
		<path fill="#737370" d="M161.3,14.9l-1.3-0.6V20h1.5v-3.9c0,0,0.5-0.6,1.3-0.6c0.5,0,1.1,0.2,1.2,0.3v-1.5
			c-0.3-0.1-0.7-0.2-1.1-0.2C162.2,14.1,161.6,14.5,161.3,14.9z"/>
		<path fill="#737370" d="M167.6,14.1c-1.8,0-2.9,1.4-2.9,3c0,1.7,1,3,3.1,3c0.7,0,1.8-0.2,2.3-0.5v-1.3c-0.6,0.4-1.6,0.6-2.1,0.6
			c-1,0-1.7-0.6-1.7-1.5h4.1v-0.5C170.3,14.9,169,14.1,167.6,14.1z M166.2,16.5c0.1-0.8,0.7-1.2,1.4-1.2c0.6,0,1.2,0.4,1.2,1.2
			H166.2z"/>
		<path fill="#737370" d="M175.6,11.7v2.8c-0.4-0.2-0.9-0.4-1.5-0.4c-1.8,0-2.9,1.3-2.9,3.1c0,1.7,1,3,2.9,3c0.8,0,1.4-0.2,1.7-0.5
			l1.3,0.4v-9L175.6,11.7z M175.6,18.6c-0.3,0.2-0.8,0.3-1.2,0.3c-1.1,0-1.7-0.8-1.7-1.8c0-1.1,0.6-1.8,1.6-1.8c0.5,0,1,0.2,1.3,0.4
			V18.6z"/>
	</g>
	<g>
		<path fill="#737370" d="M117.8,31c-0.5,0-0.7-0.3-0.7-0.7v-2.6h1.9v-1.2h-1.9v-2.1l-1.5,0.5v5.5c0,1.1,0.6,1.9,1.9,1.9
			c0.7,0,1.5-0.2,1.7-0.3l0-1.3C119,30.8,118.3,31,117.8,31z"/>
		<path fill="#737370" d="M125.4,31c-0.5,0-0.7-0.3-0.7-0.7v-2.6h1.9v-1.2h-1.9v-2.1l-1.5,0.5v5.5c0,1.1,0.6,1.9,1.9,1.9
			c0.7,0,1.5-0.2,1.7-0.3l0-1.3C126.6,30.8,125.9,31,125.4,31z"/>
		<path fill="#737370" d="M136.9,31c-0.5,0-0.7-0.3-0.7-0.7v-2.6h1.9v-1.2h-1.9v-2.1l-1.5,0.5v5.5c0,1.1,0.6,1.9,1.9,1.9
			c0.7,0,1.5-0.2,1.7-0.3l0-1.3C138.1,30.8,137.4,31,136.9,31z"/>
		<rect x="100.1" y="23.6" fill="#737370" width="1.5" height="8.6"/>
		<path fill="#737370" d="M106.6,26.3c-0.8,0-1.4,0.2-1.9,0.5l-1.2-0.4v5.7h1.5V28c0.4-0.2,0.8-0.4,1.4-0.4c0.8,0,1.2,0.4,1.2,1.1
			v3.5h1.5v-3.7C108.9,27.2,108.1,26.3,106.6,26.3z"/>
		<path fill="#737370" d="M113.2,28.9l-1.2-0.4c-0.4-0.1-0.4-0.3-0.4-0.5c0-0.4,0.3-0.6,0.8-0.6c0.5,0,1.3,0.2,1.9,0.6v-1.3
			c-0.2-0.1-1-0.4-1.9-0.4c-1.5,0-2.3,0.8-2.3,1.7c0,0.8,0.5,1.3,1.2,1.6l1.2,0.4c0.4,0.1,0.5,0.3,0.5,0.6c0,0.2-0.1,0.6-1,0.6
			c-0.7,0-1.4-0.3-2-0.6V32c0.5,0.2,1.3,0.4,2,0.4c1.4,0,2.4-0.5,2.4-1.8C114.6,29.7,114,29.2,113.2,28.9z"/>
		<path fill="#737370" d="M131.8,30.7c-0.4,0.3-0.8,0.4-1.4,0.4c-0.8,0-1.1-0.4-1.1-1.1v-3.5h-1.5v3.8c0,1.2,0.7,2.1,2.3,2.1
			c0.8,0,1.5-0.2,1.9-0.5l1.2,0.4v-5.8h-1.5V30.7z"/>
		<path fill="#737370" d="M141.9,26.3c-1.8,0-2.9,1.4-2.9,3c0,1.7,1,3,3.1,3c0.7,0,1.8-0.2,2.3-0.5v-1.3c-0.6,0.4-1.6,0.6-2.1,0.6
			c-1,0-1.7-0.6-1.7-1.5h4.1v-0.5C144.5,27.1,143.3,26.3,141.9,26.3z M140.5,28.7c0.1-0.8,0.7-1.2,1.4-1.2c0.6,0,1.2,0.4,1.2,1.2
			H140.5z"/>
		<path fill="#737370" d="M151.1,26.3c-1.9,0-3.1,1.4-3.1,3c0,1.7,1.2,3,3.1,3c1.9,0,3.1-1.4,3.1-3C154.2,27.7,153,26.3,151.1,26.3z
			 M151.1,31.2c-1.1,0-1.7-0.8-1.7-1.8c0-1,0.6-1.8,1.7-1.8c1.1,0,1.7,0.8,1.7,1.8C152.8,30.4,152.2,31.2,151.1,31.2z"/>
		<path fill="#737370" d="M155.8,25.2v1.3h-1v1.2h1v4.5h1.5v-4.5h1.3v-1.2h-1.3v-1.1c0-0.4,0.2-0.8,0.8-0.8c0.6,0,1.2,0.3,1.3,0.4
			v-1.4c-0.2-0.1-0.9-0.3-1.5-0.3C156.6,23.3,155.8,24.1,155.8,25.2z"/>
		<rect x="120.3" y="26.5" fill="#737370" width="1.5" height="5.7"/>
		<ellipse fill="#737370" cx="121" cy="24.5" rx="0.9" ry="0.9"/>
		<path fill="#737370" d="M199.9,31c-0.5,0-0.7-0.3-0.7-0.7v-2.6h1.9v-1.2h-1.9v-2.1l-1.5,0.5v5.5c0,1.1,0.6,1.9,1.9,1.9
			c0.7,0,1.5-0.2,1.7-0.3l0-1.3C201.1,30.8,200.4,31,199.9,31z"/>
		<path fill="#737370" d="M176.2,26.3c-0.7,0-1.7,0.2-2.4,0.5v1.3c0.7-0.3,1.5-0.6,2.2-0.6c0.8,0,1.2,0.4,1.2,1v0.3h-1.5
			c-1.7,0-2.3,0.8-2.3,1.8c0,1.4,1.1,1.8,2.1,1.8c0.7,0,1.4-0.2,1.8-0.5l1.3,0.5v-3.7C178.6,27.3,178,26.3,176.2,26.3z M177.2,30.8
			c-0.4,0.3-0.9,0.5-1.4,0.5c-0.5,0-1-0.2-1-0.8c0-0.5,0.4-0.8,0.9-0.8h1.4V30.8z"/>
		<path fill="#737370" d="M181.4,27l-1.3-0.6v5.7h1.5v-3.9c0,0,0.5-0.6,1.3-0.6c0.5,0,1.1,0.2,1.2,0.3v-1.5
			c-0.3-0.1-0.7-0.2-1.1-0.2C182.3,26.3,181.7,26.7,181.4,27z"/>
		<polygon fill="#737370" points="190.6,26.5 188.9,26.5 186.6,29.1 189,32.2 190.9,32.2 188.4,29.1 		"/>
		<polygon fill="#737370" points="185.1,32.2 186.5,32.2 186.5,23.9 185.1,23.3 		"/>
		<path fill="#737370" d="M193.9,26.3c-1.8,0-2.9,1.4-2.9,3c0,1.7,1,3,3.1,3c0.7,0,1.7-0.2,2.3-0.5v-1.3c-0.6,0.4-1.6,0.6-2.1,0.6
			c-1,0-1.7-0.6-1.7-1.5h4.1v-0.5C196.6,27.1,195.3,26.3,193.9,26.3z M192.5,28.7c0.1-0.8,0.7-1.2,1.4-1.2c0.6,0,1.2,0.4,1.2,1.2
			H192.5z"/>
		<path fill="#737370" d="M208.6,26.3c-0.8,0-1.4,0.2-1.9,0.5l-1.2-0.4v5.7h1.5V28c0.4-0.2,0.8-0.4,1.4-0.4c0.8,0,1.2,0.4,1.2,1.1
			v3.5h1.5v-3.7C210.9,27.2,210.1,26.3,208.6,26.3z"/>
		<path fill="#737370" d="M216.7,26.8c-0.4-0.3-1-0.5-1.7-0.5c-1.8,0-3,1.3-3,3.1c0,1.6,1,3,2.9,3c0.5,0,1.2-0.1,1.5-0.3v0.7
			c0,0.7-0.4,1.3-1.6,1.3c-0.8,0-1.6-0.3-2.2-0.7v1.5c0.6,0.3,1.6,0.4,2.3,0.4c2.2,0,3.1-1.2,3.1-2.7v-6.1L216.7,26.8z M216.4,30.8
			c-0.3,0.2-0.8,0.3-1.3,0.3c-1.1,0-1.6-0.8-1.6-1.8c0-1,0.6-1.8,1.6-1.8c0.5,0,1,0.2,1.3,0.4V30.8z"/>
		<rect x="202.4" y="26.5" fill="#737370" width="1.5" height="5.7"/>
		<ellipse fill="#737370" cx="203.2" cy="24.5" rx="0.9" ry="0.9"/>
		<polygon fill="#737370" points="167.6,28.6 164.7,23.5 163.2,23.5 163.2,32.2 164.7,32.2 164.7,26.3 167.6,31.3 167.6,31.3 
			170.5,26.2 170.5,32.2 172.1,32.2 172.1,23.5 170.6,23.5 		"/>
	</g>
</g>
<g display="none">
	<g display="inline">
		<g>
			<g>
				<rect x="38.3" y="103.3" fill="#070078" width="1.6" height="31"/>
				<rect x="41.8" y="103.3" fill="#070078" width="1.6" height="31"/>
			</g>
			<g>
				<path fill="#070078" d="M29.5,126c-2.6,4.5-7.4,7.2-12.5,7.2h0c-7.9,0-14.4-6.5-14.4-14.5c0-8,6.5-14.4,14.4-14.4
					c5.1,0,9.9,2.8,12.5,7.2l0,0l1.4-0.8l0,0c-2.9-4.9-8.2-8-13.9-8c-8.8,0-16,7.2-16,16c0,8.8,7.2,16,16,16c5.7,0,11-3.1,13.9-8
					l0,0L29.5,126L29.5,126z"/>
				<path fill="#070078" d="M17,107.8c3.9,0,7.6,2.1,9.5,5.5l0,0l1.4-0.8l0,0c-2.2-3.9-6.4-6.3-10.9-6.3l0,0v0
					c-6.9,0-12.5,5.7-12.5,12.6c0,6.9,5.6,12.6,12.6,12.6c4.5,0,8.6-2.4,10.9-6.3l0,0l-1.4-0.8l0,0c-2,3.4-5.6,5.5-9.5,5.5
					c-6.1,0-11-4.9-11-11C6,112.7,10.9,107.8,17,107.8z"/>
			</g>
			<g>
				<rect x="51.4" y="103.3" fill="#070078" width="1.6" height="31"/>
				<polygon fill="#070078" points="54.9,107 54.8,106.9 54.8,134.3 56.4,134.3 56.4,112.6 67,131 77.6,112.6 77.6,134.3 
					79.2,134.3 79.2,106.9 67,128 				"/>
				<rect x="81" y="103.3" fill="#070078" width="1.6" height="31"/>
				<polygon fill="#070078" points="67,121.4 56.5,103.3 54.8,103.3 67,124.4 79.2,103.3 77.4,103.3 				"/>
			</g>
		</g>
		<g>
			<g>
				<polygon fill="#070078" points="148.8,111.6 151.4,111.6 151.4,118.9 153,118.9 153,111.6 155.6,111.6 155.6,110.3 148.8,110.3 
									"/>
				<path fill="#070078" d="M159.9,113c-0.8,0-1.3,0.2-1.8,0.5V110l-1.5,0.5v8.3h1.5v-4.2c0.4-0.2,0.9-0.4,1.3-0.4
					c0.8,0,1.2,0.5,1.2,1.1v3.5h1.5v-3.7C162.1,113.9,161.5,113,159.9,113z"/>
				<path fill="#070078" d="M166.1,113c-1.8,0-2.9,1.4-2.9,3c0,1.7,1,3,3.1,3c0.7,0,1.7-0.2,2.3-0.5v-1.3c-0.6,0.4-1.6,0.6-2.1,0.6
					c-1,0-1.7-0.6-1.7-1.5h4.1v-0.5C168.8,113.8,167.5,113,166.1,113z M164.8,115.4c0.1-0.8,0.7-1.2,1.4-1.2c0.6,0,1.2,0.4,1.2,1.2
					H164.8z"/>
				<path fill="#070078" d="M172.4,114.6c0,2.5,1.8,4.5,4.6,4.5c1.4,0,2.6-0.5,3.4-1v-1.7c-1,1-2.2,1.4-3.3,1.4
					c-1.9,0-3.1-1.3-3.1-3.2c0-1.8,1.2-3.1,3.1-3.1c1.1,0,2.3,0.4,3.3,1.5v-1.8c-0.7-0.5-2-1-3.4-1
					C174.3,110.1,172.4,112.1,172.4,114.6z"/>
				<path fill="#070078" d="M185.2,113c-0.8,0-1.3,0.2-1.7,0.5V110l-1.5,0.5v8.3h1.5v-4.2c0.4-0.2,0.9-0.4,1.3-0.4
					c0.8,0,1.2,0.5,1.2,1.1v3.5h1.5v-3.7C187.4,113.9,186.7,113,185.2,113z"/>
				<path fill="#070078" d="M191.4,113c-0.7,0-1.7,0.2-2.4,0.5v1.3c0.7-0.3,1.5-0.6,2.2-0.6c0.8,0,1.2,0.4,1.2,1v0.3h-1.5
					c-1.7,0-2.3,0.8-2.3,1.8c0,1.4,1.1,1.8,2.1,1.8c0.7,0,1.4-0.2,1.8-0.5l1.3,0.5v-3.7C193.8,114,193.2,113,191.4,113z
					 M192.3,117.5c-0.4,0.3-0.9,0.5-1.4,0.5c-0.5,0-1-0.2-1-0.8c0-0.5,0.4-0.8,0.9-0.8h1.4V117.5z"/>
				<path fill="#070078" d="M196.5,113.8l-1.3-0.6v5.7h1.5V115c0,0,0.5-0.6,1.3-0.6c0.5,0,1.1,0.2,1.2,0.3v-1.5
					c-0.3-0.1-0.7-0.2-1.1-0.2C197.4,113,196.9,113.4,196.5,113.8z"/>
				<path fill="#070078" d="M202.5,117.7c-0.5,0-0.7-0.3-0.7-0.7v-2.6h1.9v-1.2h-1.9v-2.1l-1.5,0.5v5.5c0,1.1,0.6,1.9,1.9,1.9
					c0.7,0,1.5-0.2,1.7-0.3l0-1.3C203.6,117.5,203,117.7,202.5,117.7z"/>
				<path fill="#070078" d="M207.5,113c-1.8,0-2.9,1.4-2.9,3c0,1.7,1,3,3.1,3c0.7,0,1.7-0.2,2.3-0.5v-1.3c-0.6,0.4-1.6,0.6-2.1,0.6
					c-1,0-1.7-0.6-1.7-1.5l4.1,0v-0.5C210.1,113.8,208.9,113,207.5,113z M206.1,115.4c0.1-0.8,0.7-1.2,1.4-1.2
					c0.6,0,1.2,0.4,1.2,1.2H206.1z"/>
				<path fill="#070078" d="M212.7,113.8l-1.3-0.6v5.7h1.5V115c0,0,0.5-0.6,1.3-0.6c0.5,0,1.1,0.2,1.2,0.3v-1.5
					c-0.3-0.1-0.7-0.2-1.1-0.2C213.6,113,213,113.4,212.7,113.8z"/>
				<path fill="#070078" d="M219,113c-1.8,0-2.9,1.4-2.9,3c0,1.7,1,3,3.1,3c0.7,0,1.8-0.2,2.3-0.5v-1.3c-0.6,0.4-1.6,0.6-2.1,0.6
					c-1,0-1.7-0.6-1.7-1.5h4.1v-0.5C221.6,113.8,220.4,113,219,113z M217.6,115.4c0.1-0.8,0.7-1.2,1.4-1.2c0.6,0,1.2,0.4,1.2,1.2
					H217.6z"/>
				<path fill="#070078" d="M226.9,110.6v2.8c-0.4-0.2-0.9-0.4-1.5-0.4c-1.8,0-2.9,1.3-2.9,3.1c0,1.7,1,3,2.9,3
					c0.8,0,1.4-0.2,1.7-0.5l1.3,0.4v-9L226.9,110.6z M226.9,117.5c-0.3,0.2-0.8,0.3-1.2,0.3c-1.1,0-1.7-0.8-1.7-1.8
					c0-1.1,0.6-1.8,1.6-1.8c0.5,0,1,0.2,1.3,0.4V117.5z"/>
			</g>
			<g>
				<path fill="#070078" d="M169.2,129.9c-0.5,0-0.7-0.3-0.7-0.7v-2.6h1.9v-1.2h-1.9v-2.1l-1.5,0.5v5.5c0,1.1,0.6,1.9,1.9,1.9
					c0.7,0,1.5-0.2,1.7-0.3l0-1.3C170.4,129.7,169.7,129.9,169.2,129.9z"/>
				<path fill="#070078" d="M176.8,129.9c-0.5,0-0.7-0.3-0.7-0.7v-2.6h1.9v-1.2h-1.9v-2.1l-1.5,0.5v5.5c0,1.1,0.6,1.9,1.9,1.9
					c0.7,0,1.5-0.2,1.7-0.3l0-1.3C178,129.7,177.3,129.9,176.8,129.9z"/>
				<path fill="#070078" d="M188.2,129.9c-0.5,0-0.7-0.3-0.7-0.7v-2.6h1.9v-1.2h-1.9v-2.1l-1.5,0.5v5.5c0,1.1,0.6,1.9,1.9,1.9
					c0.7,0,1.5-0.2,1.7-0.3l0-1.3C189.4,129.7,188.7,129.9,188.2,129.9z"/>
				<rect x="151.4" y="122.5" fill="#070078" width="1.5" height="8.6"/>
				<path fill="#070078" d="M157.9,125.2c-0.8,0-1.4,0.2-1.9,0.5l-1.2-0.4v5.7h1.5v-4.2c0.4-0.2,0.8-0.4,1.4-0.4
					c0.8,0,1.2,0.4,1.2,1.1v3.5h1.5v-3.7C160.2,126.1,159.5,125.2,157.9,125.2z"/>
				<path fill="#070078" d="M164.5,127.8l-1.2-0.4c-0.4-0.1-0.4-0.3-0.4-0.5c0-0.4,0.3-0.6,0.8-0.6c0.5,0,1.3,0.2,1.9,0.6v-1.3
					c-0.2-0.1-1-0.4-1.9-0.4c-1.5,0-2.3,0.8-2.3,1.7c0,0.8,0.5,1.3,1.2,1.6l1.2,0.4c0.4,0.1,0.5,0.3,0.5,0.6c0,0.2-0.1,0.6-1,0.6
					c-0.7,0-1.4-0.3-2-0.6v1.3c0.5,0.2,1.3,0.4,2,0.4c1.4,0,2.4-0.5,2.4-1.8C165.9,128.6,165.3,128.1,164.5,127.8z"/>
				<path fill="#070078" d="M183.1,129.6c-0.4,0.3-0.8,0.4-1.4,0.4c-0.8,0-1.1-0.4-1.1-1.1v-3.5h-1.5v3.8c0,1.2,0.7,2.1,2.3,2.1
					c0.8,0,1.5-0.2,1.9-0.5l1.2,0.4v-5.8h-1.5V129.6z"/>
				<path fill="#070078" d="M193.2,125.2c-1.8,0-2.9,1.4-2.9,3c0,1.7,1,3,3.1,3c0.7,0,1.8-0.2,2.3-0.5v-1.3
					c-0.6,0.4-1.6,0.6-2.1,0.6c-1,0-1.7-0.6-1.7-1.5h4.1V128C195.9,126,194.6,125.2,193.2,125.2z M191.8,127.6
					c0.1-0.8,0.7-1.2,1.4-1.2c0.6,0,1.2,0.4,1.2,1.2H191.8z"/>
				<path fill="#070078" d="M202.5,125.2c-1.9,0-3.1,1.4-3.1,3c0,1.7,1.2,3,3.1,3c1.9,0,3.1-1.4,3.1-3
					C205.6,126.6,204.4,125.2,202.5,125.2z M202.5,130.1c-1.1,0-1.7-0.8-1.7-1.8c0-1,0.6-1.8,1.7-1.8c1.1,0,1.7,0.8,1.7,1.8
					C204.1,129.3,203.5,130.1,202.5,130.1z"/>
				<path fill="#070078" d="M207.2,124.1v1.3h-1v1.2h1v4.5h1.5v-4.5h1.3v-1.2h-1.3v-1.1c0-0.4,0.2-0.8,0.8-0.8
					c0.6,0,1.2,0.3,1.3,0.4v-1.4c-0.2-0.1-0.9-0.3-1.5-0.3C207.9,122.2,207.2,123,207.2,124.1z"/>
				<rect x="171.6" y="125.4" fill="#070078" width="1.5" height="5.7"/>
				<ellipse fill="#070078" cx="172.4" cy="123.4" rx="0.9" ry="0.9"/>
				<path fill="#070078" d="M251.3,129.9c-0.5,0-0.7-0.3-0.7-0.7v-2.6h1.9v-1.2h-1.9v-2.1l-1.5,0.5v5.5c0,1.1,0.6,1.9,1.9,1.9
					c0.7,0,1.5-0.2,1.7-0.3l0-1.3C252.5,129.7,251.8,129.9,251.3,129.9z"/>
				<path fill="#070078" d="M227.6,125.2c-0.7,0-1.7,0.2-2.4,0.5v1.3c0.7-0.3,1.5-0.6,2.2-0.6c0.8,0,1.2,0.4,1.2,1v0.3h-1.5
					c-1.7,0-2.3,0.8-2.3,1.8c0,1.4,1.1,1.8,2.1,1.8c0.7,0,1.4-0.2,1.8-0.5l1.3,0.5v-3.7C230,126.2,229.4,125.2,227.6,125.2z
					 M228.5,129.7c-0.4,0.3-0.9,0.5-1.4,0.5c-0.5,0-1-0.2-1-0.8c0-0.5,0.4-0.8,0.9-0.8h1.4V129.7z"/>
				<path fill="#070078" d="M232.7,125.9l-1.3-0.6v5.7h1.5v-3.9c0,0,0.5-0.6,1.3-0.6c0.5,0,1.1,0.2,1.2,0.3v-1.5
					c-0.3-0.1-0.7-0.2-1.1-0.2C233.6,125.2,233,125.6,232.7,125.9z"/>
				<polygon fill="#070078" points="242,125.4 240.2,125.4 238,128 240.3,131.1 242.2,131.1 239.7,128 				"/>
				<polygon fill="#070078" points="236.4,131.1 237.9,131.1 237.9,122.8 236.4,122.2 				"/>
				<path fill="#070078" d="M245.3,125.2c-1.8,0-2.9,1.4-2.9,3c0,1.7,1,3,3.1,3c0.7,0,1.7-0.2,2.3-0.5v-1.3
					c-0.6,0.4-1.6,0.6-2.1,0.6c-1,0-1.7-0.6-1.7-1.5h4.1V128C247.9,126,246.6,125.2,245.3,125.2z M243.9,127.6
					c0.1-0.8,0.7-1.2,1.4-1.2c0.6,0,1.2,0.4,1.2,1.2H243.9z"/>
				<path fill="#070078" d="M259.9,125.2c-0.8,0-1.4,0.2-1.9,0.5l-1.2-0.4v5.7h1.5v-4.2c0.4-0.2,0.8-0.4,1.4-0.4
					c0.8,0,1.2,0.4,1.2,1.1v3.5h1.5v-3.7C262.2,126.1,261.5,125.2,259.9,125.2z"/>
				<path fill="#070078" d="M268.1,125.7c-0.4-0.3-1-0.5-1.7-0.5c-1.8,0-3,1.3-3,3.1c0,1.6,1,3,2.9,3c0.5,0,1.2-0.1,1.5-0.3v0.7
					c0,0.7-0.4,1.3-1.6,1.3c-0.8,0-1.6-0.3-2.2-0.7v1.5c0.6,0.3,1.6,0.4,2.3,0.4c2.2,0,3.1-1.2,3.1-2.7v-6.1L268.1,125.7z
					 M267.8,129.7c-0.3,0.2-0.8,0.3-1.3,0.3c-1.1,0-1.6-0.8-1.6-1.8c0-1,0.6-1.8,1.6-1.8c0.5,0,1,0.2,1.3,0.4V129.7z"/>
				<rect x="253.8" y="125.4" fill="#070078" width="1.5" height="5.7"/>
				<ellipse fill="#070078" cx="254.5" cy="123.4" rx="0.9" ry="0.9"/>
				<polygon fill="#070078" points="219,127.5 216,122.4 214.6,122.4 214.6,131.1 216.1,131.1 216.1,125.2 218.9,130.2 219,130.2 
					221.9,125.1 221.9,131.1 223.4,131.1 223.4,122.4 222,122.4 				"/>
			</g>
		</g>
	</g>
	<line display="inline" fill="none" stroke="#070078" stroke-miterlimit="10" x1="120.2" y1="136.8" x2="120.2" y2="101"/>
</g>
<line fill="none" x1="81" y1="0.7" x2="81" y2="31.7"/>
</svg>
