<svg xmlns="http://www.w3.org/2000/svg" width="160" height="63.322" viewBox="0 0 160 63.322"><defs><style>.a{fill:#fff;}</style></defs><path class="a" d="M58.056,113.951H49.349v-4.862h-.113c-1.244,3.053-5.088,5.541-9.385,5.541-8.141,0-12.551-6.671-12.551-14.813,0-6.671,4.184-13.8,11.647-13.8,3.731,0,7.011,1.018,9.385,4.184h.113V77.767L57.943,72l.113,41.951Zm-15.265-6.558c3.166,0,5.767-2.94,5.767-7.011,0-4.184-2.261-7.124-5.767-7.124-3.618,0-5.654,3.166-5.654,6.784,0,4.3,2.148,7.237,5.654,7.35" transform="translate(-27.3 -72)"/><path class="a" d="M67.911,101.487c.565,3.731,3.392,5.2,8.028,5.2,2.6,0,3.392-.565,6.219-2.148l2.148,6.671a25.158,25.158,0,0,1-10.064,1.7c-9.046,0-15.943-5.314-15.943-14.36S64.406,84.3,72.887,84.3c10.064,0,13.8,7.237,13.8,15.265v1.7H67.911Zm10.4-5.428c0-3.166-1.47-5.654-5.2-5.654-3.392,0-5.088,2.6-5.2,5.654Z" transform="translate(-23.247 -70.392)"/><path class="a" d="M116.2,113.951h9.385V72L116.2,78.332Z" transform="translate(-15.677 -72)"/><path class="a" d="M133.215,97.451,142.148,84.9h-10.29L125.3,97.677l6.784,14.587H143.5Z" transform="translate(-14.487 -70.313)"/><path class="a" d="M88.4,113.951h9.5V72l-9.5,6.332Z" transform="translate(-19.312 -72)"/><path class="a" d="M105.528,97.451,114.461,84.9h-10.4L97.5,97.677l6.9,14.587h11.42Z" transform="translate(-18.122 -70.313)"/><path class="a" d="M140.7,99.49c0-8.141,6.9-12.89,15.943-12.89s15.83,4.749,15.83,12.89-6.9,12.777-15.943,12.777S140.7,107.519,140.7,99.49m22.049,0c0-3.618-1.809-6.9-6.106-6.9s-6.106,3.279-6.106,6.9,1.809,6.9,6.106,6.9,6.106-3.279,6.106-6.9" transform="translate(-12.474 -70.091)"/><path class="a" d="M163.419,85.061c5.541.792,1.244,9.385-8.707,19.9a90.441,90.441,0,0,1-14.813,13c5.654-2.6,13.117-8.594,20.127-16.057,9.951-10.516,14.36-19.11,8.707-19.9-2.714-.452-6.784,1.244-11.421,4.41a11.157,11.157,0,0,1,6.106-1.357" transform="translate(-12.578 -70.701)"/><path class="a" d="M40.211,125.854H38.967l-2.261-7.124h0l-2.261,7.124H33.2L30.6,117.6h1.018l2.261,7.124h0l2.261-7.124h1.244l2.148,7.124h.113l2.261-7.124h1.018Z" transform="translate(-26.869 -66.038)"/><path class="a" d="M46.065,114.5a.633.633,0,0,1,.565.678c0,.339-.113.678-.565.678a.633.633,0,0,1-.565-.678c0-.452.226-.678.565-.678m-.452,3.505h1.018v8.254H45.613Z" transform="translate(-24.92 -66.443)"/><path class="a" d="M51.613,119.537a10.97,10.97,0,0,0-.113-1.922h1.018v1.47h0a2.648,2.648,0,0,1,2.714-1.583c2.035,0,2.827,1.357,2.827,3.166v5.314H57.041v-5.088c0-1.583-.565-2.6-1.922-2.6-1.809,0-2.488,1.583-2.488,2.94v4.523H51.613Z" transform="translate(-24.136 -66.053)"/><path class="a" d="M68.911,126.377l-1.018-1.357h0a2.5,2.5,0,0,1-2.6,1.47c-2.261,0-3.392-1.922-3.392-4.3s1.018-4.3,3.392-4.3a2.757,2.757,0,0,1,2.6,1.583h0v-4.749l1.018-1.131Zm-3.392-.678c1.809,0,2.488-1.922,2.488-3.392s-.678-3.392-2.488-3.392-2.488,1.809-2.488,3.392.452,3.392,2.488,3.392" transform="translate(-22.776 -66.561)"/><path class="a" d="M76.445,117.4c2.714,0,3.845,2.035,3.845,4.3s-1.131,4.3-3.845,4.3-3.845-2.035-3.845-4.3c0-2.148,1.131-4.3,3.845-4.3m0,7.8c1.809,0,2.714-1.583,2.714-3.392s-.9-3.392-2.714-3.392S73.731,120,73.731,121.81s.9,3.392,2.714,3.392" transform="translate(-21.377 -66.064)"/><path class="a" d="M92.511,125.854H91.267l-2.261-7.124h0l-2.261,7.124H85.5L82.9,117.6h1.131l2.148,7.124h0l2.261-7.124h1.244l2.261,7.124h0l2.261-7.124h1.018Z" transform="translate(-20.031 -66.038)"/><path class="a" d="M104.313,124.637a3.9,3.9,0,0,0,2.035.565c1.018,0,1.809-.565,1.809-1.47,0-1.922-3.958-1.583-3.958-4.071,0-1.583,1.357-2.261,2.714-2.261a6.4,6.4,0,0,1,2.035.339l-.226.9a3.612,3.612,0,0,0-1.583-.339c-1.018,0-1.809.339-1.809,1.357,0,1.583,4.071,1.357,4.071,4.071a2.557,2.557,0,0,1-2.827,2.375,7.291,7.291,0,0,1-2.261-.339Z" transform="translate(-17.246 -66.064)"/><path class="a" d="M115.718,127.1c-.339,1.131-1.131,2.261-2.375,2.261v-.9c.9,0,1.244-.678,1.47-1.809l.226-.678L112.1,117.6h1.131l2.375,6.9h0l2.375-6.9H119Z" transform="translate(-16.213 -66.038)"/><path class="a" d="M121.913,124.637a3.9,3.9,0,0,0,2.035.565c1.018,0,1.809-.565,1.809-1.47,0-1.922-3.958-1.583-3.958-4.071,0-1.583,1.357-2.261,2.714-2.261a6.4,6.4,0,0,1,2.035.339l-.226.9a4.537,4.537,0,0,0-1.7-.339c-1.018,0-1.809.339-1.809,1.357,0,1.583,4.071,1.357,4.071,4.071a2.557,2.557,0,0,1-2.827,2.375,7.291,7.291,0,0,1-2.261-.339Z" transform="translate(-14.945 -66.064)"/><path class="a" d="M134.323,118.792H132.4v5.314c0,.792.226,1.357,1.131,1.357a3.3,3.3,0,0,0,1.018-.226v.792a4.809,4.809,0,0,1-1.244.226c-1.809,0-1.922-1.244-1.922-2.714v-4.749H129.8v-.9h1.583v-1.47L132.4,115.4v2.488h1.922v.9Z" transform="translate(-13.899 -66.326)"/><path class="a" d="M143.919,125.641a6.085,6.085,0,0,1-2.488.452c-2.714,0-3.731-1.809-3.731-4.3s1.357-4.3,3.505-4.3c2.375,0,3.279,1.922,3.279,4.071v.565h-5.654c0,1.7.9,3.166,2.714,3.166a4.608,4.608,0,0,0,2.035-.565Zm-.565-4.523c0-1.47-.565-2.827-2.148-2.827a2.738,2.738,0,0,0-2.488,2.827Z" transform="translate(-12.866 -66.051)"/><path class="a" d="M158.264,125.882v-5.541c0-1.131-.452-2.035-1.7-2.035-1.131,0-2.261.9-2.261,3.053v4.523h-1.018v-5.541c0-1.131-.452-2.035-1.7-2.035-1.131,0-2.261.9-2.261,3.053v4.523h-1.018V119.55a10.97,10.97,0,0,0-.113-1.922h1.018v1.357h0a2.591,2.591,0,0,1,2.6-1.583,2,2,0,0,1,2.148,1.7h0a2.685,2.685,0,0,1,2.6-1.7,2.442,2.442,0,0,1,2.6,2.375v5.993Z" transform="translate(-11.493 -66.066)"/><path class="a" d="M162.613,124.637a3.9,3.9,0,0,0,2.035.565c1.018,0,1.809-.565,1.809-1.47,0-1.922-3.958-1.583-3.958-4.071,0-1.583,1.357-2.261,2.714-2.261a6.4,6.4,0,0,1,2.035.339l-.226.9a3.612,3.612,0,0,0-1.583-.339c-1.018,0-1.809.339-1.809,1.357,0,1.583,4.071,1.357,4.071,4.071a2.557,2.557,0,0,1-2.827,2.375,7.291,7.291,0,0,1-2.261-.339Z" transform="translate(-9.624 -66.064)"/></svg>