<?xml version="1.0" encoding="utf-8"?>
<!-- Generator: Adobe Illustrator 21.0.2, SVG Export Plug-In . SVG Version: 6.00 Build 0)  -->
<svg version="1.1" id="Layer_1" xmlns="http://www.w3.org/2000/svg" xmlns:xlink="http://www.w3.org/1999/xlink" x="0px" y="0px"
	 viewBox="0 0 841.9 244" style="enable-background:new 0 0 841.9 244;" xml:space="preserve">
<style type="text/css">
	.st0{fill:#5F8C9E;}
	.st1{clip-path:url(#SVGID_2_);fill:#FFFFFF;}
	.st2{fill:#055579;}
	.st3{clip-path:url(#SVGID_4_);fill:#FFFFFF;}
	.st4{clip-path:url(#SVGID_6_);fill:#FFFFFF;}
</style>
<rect x="265.3" class="st0" width="577.3" height="244"/>
<g>
	<defs>
		<rect id="SVGID_1_" width="842.7" height="244"/>
	</defs>
	<clipPath id="SVGID_2_">
		<use xlink:href="#SVGID_1_"  style="overflow:visible;"/>
	</clipPath>
	<path class="st1" d="M762.6,132.2c0-8.5-14.2-9-14.2-13.7c0-2.3,1.8-3.4,3.8-3.4c2.2,0,3.8,1.2,7.2,5.5l1.1-0.1V114
		c-1.8-0.6-4.8-1.2-7.4-1.2c-4.6,0-10.1,2.8-10.1,8.4c0,8.4,13.7,8.3,13.7,13.6c0,2.2-1.7,3.8-4.5,3.8c-2.6,0-5.1-2.1-8.2-6.6h-1
		v7.5c1.6,0.5,5.1,1.3,8.9,1.3C756.6,141,762.6,138.4,762.6,132.2 M741.7,132.2c0-8.5-14.2-9-14.2-13.7c0-2.3,1.8-3.4,3.9-3.4
		c2.2,0,3.8,1.2,7.2,5.5l1.1-0.1V114c-1.8-0.6-4.8-1.2-7.4-1.2c-4.6,0-10.1,2.8-10.1,8.4c0,8.4,13.7,8.3,13.7,13.6
		c0,2.2-1.7,3.8-4.5,3.8c-2.6,0-5.1-2.1-8.2-6.6h-1v7.5c1.6,0.5,5.1,1.3,8.9,1.3C735.7,141,741.7,138.4,741.7,132.2 M712.4,124.6
		h-8.6c0-3.8,0.8-9.5,5.2-9.5c3.1,0,3.4,3.1,3.4,5.3V124.6z M718.3,134.7c-1.8,1.1-3.6,1.8-6.4,1.8c-5.1,0-8.1-4.3-8.2-9.6h15.8
		v-4.1c0-6.8-3.7-10.1-10.2-10.1c-7.1,0-13.2,7.1-13.2,15.2c0,7.4,4.6,13,12.7,13c4.6,0,8.5-3,10.8-5.1L718.3,134.7z M690.2,121.4
		c0-6.8-3.6-8.6-7.4-8.6c-3.2,0-7.3,2.7-9.3,4.5v-4.5h-0.8l-9.8,2.6v1l2.5,1.3c0.8,0.4,1.2,1.1,1.2,2.1v16.3c0,0.9-0.3,1.3-0.9,1.7
		l-2.2,1.7v0.8h13.2v-0.8l-2.2-1.7c-0.6-0.5-0.9-0.8-0.9-1.7v-16.8c1.7-0.9,4.2-2,5.9-2c2.5,0,3.5,1.3,3.5,4.4v14.4
		c0,0.9-0.3,1.3-0.9,1.7l-2.2,1.7v0.8h13.2v-0.8l-2.2-1.7c-0.6-0.5-0.9-0.8-0.9-1.7V121.4z M657.7,112.8h-0.9l-9.6,2.6v0.9l2.3,1.7
		c0.6,0.5,1.2,1,1.2,2v16.1c0,0.9-0.3,1.3-0.9,1.7l-2.2,1.7v0.8h13.2v-0.8l-2.2-1.7c-0.6-0.5-0.9-0.8-0.9-1.7V112.8z M658.2,106.2
		c0-2.2-1.8-4-4-4c-2.2,0-4,1.8-4,4c0,2.2,1.8,4,4,4C656.4,110.1,658.2,108.3,658.2,106.2 M644.6,132.2c0-8.5-14.2-9-14.2-13.7
		c0-2.3,1.8-3.4,3.8-3.4c2.2,0,3.9,1.2,7.2,5.5l1.1-0.1V114c-1.8-0.6-4.8-1.2-7.4-1.2c-4.6,0-10.1,2.8-10.1,8.4
		c0,8.4,13.7,8.3,13.7,13.6c0,2.2-1.7,3.8-4.5,3.8c-2.6,0-5.1-2.1-8.2-6.6h-1v7.5c1.6,0.5,5.1,1.3,8.9,1.3
		C638.6,141,644.6,138.4,644.6,132.2 M611.7,135c-1.7,0.9-2.7,1.5-4.4,1.5c-3.1,0-4.6-1.3-4.6-4.4v-19.2h-0.9l-9.3,2.6v0.9l2.3,1.7
		c0.6,0.5,0.8,1,0.8,2v12.4c0,6.8,3.6,8.6,7.4,8.6c3.2,0,7-2.5,8.9-4.3v4.3h0.8l9.8-1.8v-0.9l-2.5-1.3c-0.8-0.4-1.2-0.9-1.2-1.9
		v-22.2h-0.9l-9.3,2.6v0.9l1.9,1.7c0.6,0.5,1.2,1,1.2,2V135z M582.7,127.1c0,7-3.9,11.7-8.4,11.7c-0.9,0-2.7-0.6-3.6-1.1v-18.8
		c0.9-0.7,2.8-1.6,4.6-1.6C579.5,117.3,582.7,121.4,582.7,127.1 M589.8,125.2c0-6.7-4.1-12.4-10.5-12.4c-3.5,0-6.9,2.5-8.5,4.5V99.6
		h-0.8l-9.9,2.6v0.9l2.3,1.7c0.6,0.5,1.2,1,1.2,1.9v32.7c2.1,0.6,6.8,1.5,10.7,1.5C580.2,141,589.8,136.1,589.8,125.2 M540.2,119.6
		c0,5.1-3.2,10.1-6.9,10.1c-2.3,0-3.4-2.1-3.4-4.4c0-3.5,2.6-10.6,7-10.6C539.6,114.7,540.2,117.4,540.2,119.6 M539.4,146.9
		c0,3.2-4.3,5.2-8.2,5.2c-4.7,0-9.2-3-9.2-6.4c0-2.1,1.7-4,8.2-7C534.1,141.2,539.4,143.5,539.4,146.9 M537.9,112.8
		c-5.3,0-12.4,5.5-12.4,11.8c0,3.4,2.1,6.1,5.4,6.9c-1.7,1.3-2.9,2.6-2.9,4.3c0,0.7,0.2,1.5,1.1,2.2c-4.2,1.5-11.2,4.3-11.2,8.4
		c0,3.7,5.8,7.6,12.1,7.6c5.7,0,13.8-3.3,13.8-8.8c0-6.8-12.4-8.8-12.4-11.8c0-0.7,0.7-1.3,1.4-1.8c5,0,12.5-4.9,12.5-11.8
		c0-1.2-0.3-2.4-0.7-3.3c1.3,0.6,2.4,0.8,3.3,0.8c2,0,2.9-1.2,2.9-2.5c0-1-0.6-1.7-1.6-2c-0.9,1.1-2.1,2-4.1,2
		c-0.5,0-1.2-0.1-1.8-0.2C541.8,113.5,539.8,112.8,537.9,112.8 M501.5,116.8c0.5,0,0.4,0.7,0.3,1.5l-2,8.9l-3.8,13.2h4.8l2.6-11.1
		c2.7-4.2,8.9-12.5,11.3-12.5c0.4,0,0.7,0.3,0.7,1c0,0.6-0.2,1.6-0.5,3.1l-1.3,6l-2.9,10.2c-0.2,0.8-0.4,1.5-0.4,2c0,1.7,1.1,2,2,2
		c2.3,0,5-1.7,9-8.1l-1.1-0.8c-0.5,0.9-3.3,5-4.4,5c-0.3,0-0.5-0.3-0.5-0.7c0-0.2,0.1-0.5,0.1-0.6l2.1-9.1l2-6.9
		c0.5-1.6,0.7-2.9,0.7-3.7c0-2-1.3-3.1-3.3-3.1c-2.4,0-5.3,1.6-12.4,12.2h-0.3l2.3-8.3c0.2-0.6,0.4-1.6,0.4-2.3
		c0-1.3-0.8-1.6-1.8-1.6c-4.1,0-7.5,5.5-9.5,8.6l1.1,0.8C497.3,121.3,500.4,116.8,501.5,116.8 M491.6,133.4l-1-1
		c-0.6,1-3.4,4.6-4.4,4.6c-0.4,0-0.5-0.4-0.5-0.7c0-0.3,0.2-1.3,0.4-2l1.8-7.8l2.8-9.7c0.3-0.9,0.4-1.6,0.4-2.2c0-1.5-0.9-1.9-2-1.9
		c-4.2,0-7.5,5.6-9.2,8.5l1.1,0.8c0.6-1,3.3-5.2,4.4-5.2c0.3,0,0.5,0.3,0.5,0.6s-0.2,1.2-0.4,2.2l-1.6,6.9l-2.9,10.4
		c-0.2,0.8-0.4,1.5-0.4,2c0,1.7,1.1,2,2,2C486.6,141,489.8,136.2,491.6,133.4 M493.3,105.9c0-1.7-1.4-3.1-3.1-3.1
		c-1.7,0-3.2,1.4-3.2,3.2c0,1.7,1.4,3.1,3.1,3.1C491.8,109.1,493.3,107.7,493.3,105.9 M469,112.8c-4.1,0-7.5,5.5-9.5,8.6l1.1,0.8
		c0.6-1,3.6-5.5,4.7-5.5c0.5,0,0.4,0.7,0.3,1.5l-1.9,8.6l-3.9,13.5h4.8l2.6-11.1c2.2-4.7,6.3-12,9-12c0.6,0,1.2,0.4,1.7,1.1
		c2-0.3,3-1.6,3-3.1c0-1.7-1.5-2.4-2.6-2.4c-3.5,0-7.6,6.7-10,11.6l-0.3-0.2l2.3-7.5c0.3-0.9,0.3-1.8,0.3-2.2
		C470.8,113.5,470.4,112.8,469,112.8 M455.5,133.4l-1-1c-0.6,1-3.4,4.6-4.4,4.6c-0.4,0-0.5-0.4-0.5-0.7c0-0.3,0.2-1.3,0.4-2l1.8-7.8
		l2.8-9.7c0.3-0.9,0.4-1.6,0.4-2.2c0-1.5-0.9-1.9-1.9-1.9c-4.2,0-7.5,5.6-9.2,8.5l1.1,0.8c0.6-1,3.3-5.2,4.4-5.2
		c0.3,0,0.5,0.3,0.5,0.6s-0.2,1.2-0.4,2.2l-1.6,6.9L445,137c-0.2,0.8-0.4,1.5-0.4,2c0,1.7,1.1,2,2,2
		C450.5,141,453.7,136.2,455.5,133.4 M457.2,105.9c0-1.7-1.4-3.1-3.1-3.1c-1.7,0-3.2,1.4-3.2,3.2c0,1.7,1.4,3.1,3.1,3.1
		C455.7,109.1,457.2,107.7,457.2,105.9 M425.6,112.8c-3.8,0-7.8,6.4-9.1,8.6l1.1,0.8c0.6-1,3.6-5.5,4.7-5.5c0.5,0,0.5,0.7,0.3,1.5
		l-2.5,11.9l-5.3,19.2c-0.3,1-0.7,1.4-1.4,1.8l-2.8,1.5l-0.2,0.8h12.3l0.2-0.8l-3.4-1.7c-0.4-0.3-0.5-0.6-0.5-1.1
		c0-0.3,0.1-0.5,0.2-0.8l2.3-8.4c0,0,0.7,0.2,1.8,0.2c9.5,0,18.5-11.8,18.5-20.8c0-4.3-2.1-7.4-5.1-7.4c-4.1,0-8.9,6.1-11.1,9.6
		l-0.3-0.1l1.6-5.8C427.4,115.1,427.9,112.8,425.6,112.8 M436.7,121.7c0,9-7,17.1-13.1,17.1c-0.5,0-0.9-0.1-1.5-0.2l3-13.2
		c1.9-3.2,6.9-8.9,9.2-8.9C435.3,116.6,436.7,117.9,436.7,121.7 M415.7,116.2c0-2.6-3.5-3.4-5.7-3.4c-4.4,0-9.3,2.9-9.3,8.1
		c0,5.7,6,8.7,6,13.4c0,2.9-2.2,4.6-4.6,4.6c-3.3,0-4.5-3.1-4.8-5.6c-2.3,0.1-3.1,1.8-3.1,3.2c0,2.5,2.9,4.5,6.9,4.5
		c5,0,9.7-2.9,9.7-8.4c0-6.1-5.9-8.8-5.9-13.5c0-2.5,1.6-4.2,3.7-4.2c2.6,0,4,2.6,4.4,4.6C414.2,119.4,415.7,118,415.7,116.2
		 M373,116.8c0.5,0,0.4,0.7,0.3,1.5l-2,8.9l-3.8,13.2h4.8l2.6-11.1c2.7-4.2,8.9-12.5,11.3-12.5c0.4,0,0.7,0.3,0.7,1
		c0,0.6-0.2,1.6-0.5,3.1l-1.3,6l-2.9,10.2c-0.2,0.8-0.4,1.5-0.4,2c0,1.7,1.1,2,2,2c2.3,0,5-1.7,9-8.1l-1.1-0.8c-0.5,0.9-3.3,5-4.4,5
		c-0.3,0-0.5-0.3-0.5-0.7c0-0.2,0.1-0.5,0.1-0.6l2.1-9.1l2-6.9c0.5-1.6,0.7-2.9,0.7-3.7c0-2-1.3-3.1-3.3-3.1
		c-2.4,0-5.3,1.6-12.4,12.2h-0.3l2.3-8.3c0.2-0.6,0.4-1.6,0.4-2.3c0-1.3-0.8-1.6-1.8-1.6c-4.1,0-7.5,5.5-9.5,8.6l1.1,0.8
		C368.9,121.3,371.9,116.8,373,116.8 M363.3,108.1c0.2-0.8,0.7-1.6,1.3-1.8l3.8-1.5l0.2-0.8h-14l-0.2,0.8l3.1,1.5
		c0.6,0.3,0.7,0.9,0.5,1.8l-6.4,28c-0.2,1.1-0.6,1.6-1.3,1.8l-3.8,1.5l-0.2,0.8h14l0.2-0.8l-3.1-1.5c-0.6-0.3-0.8-0.9-0.6-1.8
		L363.3,108.1z"/>
</g>
<rect class="st2" width="266.4" height="244"/>
<g>
	<defs>
		<rect id="SVGID_3_" width="842.7" height="244"/>
	</defs>
	<clipPath id="SVGID_4_">
		<use xlink:href="#SVGID_3_"  style="overflow:visible;"/>
	</clipPath>
	<path class="st3" d="M128,97.3c1.6,0,3.1,0.3,4.4,0.7c7.6,2.1,13.2,10.3,13.2,22.1c0.1,20.6-9.8,26-14.1,26.2
		c-1.1,0.2-2.2,0.1-3.8,0.2c-1.4,0-2.6-0.3-3.8-0.5c-7-1.3-13.8-9.7-13.9-24.3c-0.1-14,4.8-22.8,14.4-24.2
		C125.6,97.4,126.8,97.3,128,97.3v-1.6c-1.2,0-2.4,0.1-3.5,0.2c-14.1,2.1-20.5,14.7-20.5,24.6c0,14.1,9.4,24.7,20.1,26.7
		c1.2,0.2,2.5,0.3,3.9,0.3c1.4,0,2.7-0.2,3.8-0.2c7,0,20.2-9.4,20.1-25.8c-0.1-13.9-10.9-23.4-19.5-25.3c-1.4-0.4-2.9-0.7-4.4-0.6
		V97.3z"/>
	<path class="st3" d="M94.5,99c0-3.3-0.3-9.3,3.1-10c1.6-0.3,3.2-0.4,3.1-1.4c-0.1-0.8-1.3-0.6-4-0.3c-2.6,0.3-8.5,0.1-10,0.1
		c-4.8-0.2-7.2-0.5-7.3,0.6c-0.1,0.9,0.8,0.7,2.4,0.8c3.8,0.2,4.5,3.4,4.6,10.1c0.3,16.7,0.1,39.8,0,42.9
		c-0.2,7.1,0.2,12.4-3.8,13.3c-1.9,0.4-2.6,0.3-2.6,1.1c0,1.1,1.9,0.4,6.6,0c3-0.3,6.4-0.1,9.1,0.2c1.6,0.2,2.8,0.3,3.7,0.3
		c1.2,0,1.8-0.3,1.8-0.8c0-0.8-0.8-0.7-2.1-0.8c-5-0.5-4.5-7.5-4.8-13.3C93.9,135.7,94.5,103.2,94.5,99"/>
	<path class="st3" d="M144.5,82.5c10.3,0.4,16.9,3.6,21.1,7.9c4.5,4.5,10.8,13.2,10.8,31.4c0,18.2-6.6,26.1-10.3,29.5
		c-3.9,3.6-9.8,9.5-21.7,9.5c-13,0-11.9-10.4-11.9-14.2c-0.1-10.1-0.2-44.5,0.2-50.4c0-4.6,0.1-10.4,0.3-11.8c0.1-1.4,0.3-1.3,1-1.4
		c0.9-0.1,6.6-0.6,8.6-0.6C143.2,82.5,143.9,82.5,144.5,82.5l0.2-2.8h-0.1c-4,0-6.8,0.6-15.1,0.6c-5.4,0-8.2-0.3-10.4-0.4
		c-2.2-0.1-2.5,0.7-2.5,1.1c0,0.4,0.1,1.1,1.1,1.1c5.1,0,5.8,2.4,6,4.4c0.5,7,0.2,54.4,0.1,60.3c0,2.4-0.1,5.3-0.3,7.1
		c-0.8,7.9-5,7.6-7.4,8.1c-0.9,0.2-2.4,0-2.4,1c0,0.7,0.6,1.1,1.9,1.1c1.7,0,9.8-0.8,13.4-1c3.7-0.2,11.7,0.2,16.4,0.2
		c14.7,0,22.8-5.5,28.8-11.3c7.1-6.8,12.2-18.1,12.2-31c0-12.9-4.5-23.8-11.5-30.7c-6.9-7-18.1-10.6-30.1-10.6L144.5,82.5z"/>
</g>
<rect x="337.6" y="51" class="st0" width="439.2" height="133.6"/>
<g>
	<defs>
		<rect id="SVGID_5_" width="842.7" height="244"/>
	</defs>
	<clipPath id="SVGID_6_">
		<use xlink:href="#SVGID_5_"  style="overflow:visible;"/>
	</clipPath>
	<path class="st4" d="M701.9,180.3v-1.5c-3.3-0.3-3.6-0.6-3.6-4.4v-10.9c0-5.5-2.8-8.6-7.3-8.6c-1.6,0-3.1,0.7-4.7,1.7
		c-1.4,1-2.7,1.8-3.8,2.7v-4.5c-2.5,1.1-5.1,1.8-7.9,2.3v1.3c3.1,0.6,3.4,0.7,3.4,4.4v11.7c0,3.7-0.3,4-4.1,4.4v1.5h12.3v-1.5
		c-3.3-0.3-3.7-0.6-3.7-4.4v-13.3c1.7-1.5,3.9-2.9,6.2-2.9c3.8,0,5.1,2.5,5.1,6.4v9.4c0,3.9-0.4,4.4-3.7,4.7v1.5H701.9z
		 M658.1,156.8c4.9,0,7.6,5.4,7.6,12c0,7.7-2.9,10.4-6.4,10.4c-4.6,0-7.8-5.3-7.8-12.4C651.6,160.3,654.6,156.8,658.1,156.8
		 M658.7,154.9c-5.1,0-12.4,4.2-12.4,13.6c0,6.3,4.6,12.5,12.4,12.5c5.6,0,12.3-4.3,12.3-13.5C671,160.5,665.7,154.9,658.7,154.9
		 M643.3,180.3v-1.5c-3.6-0.3-4-0.7-4-4.5v-19.5c-2.5,1-5.1,1.8-8,2.2v1.4c3.4,0.6,3.6,0.8,3.6,4.3v11.6c0,3.8-0.4,4.2-4,4.5v1.5
		H643.3z M636.7,150c1.6,0,2.9-1.4,2.9-2.9c0-1.7-1.2-2.9-2.8-2.9c-1.5,0-2.9,1.2-2.9,2.9C633.9,148.7,635.2,150,636.7,150
		 M628.4,178.3l-0.5-1.5c-0.8,0.4-2.1,1-3.5,1c-1.4,0-3.3-0.8-3.3-5.4v-14.5h6.1c0.7-0.4,0.8-1.6,0.3-2.2h-6.4v-7.7l-0.8-0.1
		l-3.7,3.7v4.1H614l-1.5,1.6l0.2,0.6h3.9v16.5c0,4.5,2,6.7,5.5,6.7c0.5,0,1.4-0.2,2.4-0.7L628.4,178.3z M603.3,175.6
		c-1.1,1-3.1,2-4.5,2c-1.8,0-4-1.4-4-4.4c0-2,1.2-3.1,3.5-4.1c1.2-0.6,3.9-1.8,5.1-2.4V175.6z M612.3,178.1l-0.6-1.5
		c-0.6,0.3-1.4,0.6-2,0.6c-1,0-2-0.8-2-3.4v-10.5c0-2.9-0.6-5.3-2.5-6.9c-1.2-1-2.9-1.5-4.6-1.5c-3.2,0.6-6.9,2.8-8.5,4
		c-1.1,0.8-1.8,1.4-1.8,2.3c0,1.3,1.5,2.4,2.5,2.4c0.8,0,1.4-0.4,1.6-1.3c0.5-1.8,1-3,1.7-3.7c0.6-0.7,1.4-1.1,2.5-1.1
		c2.8,0,4.8,2.3,4.8,6.4v1c-1.2,1-5.4,2.5-8.8,3.7c-3.1,1.1-4.6,2.8-4.6,5.6c0,3.6,2.8,6.9,6.8,6.9c1.7,0,4.4-2.1,6.7-3.6
		c0.3,1,0.6,1.7,1.4,2.5c0.6,0.6,1.8,1.1,2.7,1.1L612.3,178.1z M586.6,180.3v-1.5c-3.3-0.3-3.6-0.6-3.6-4.4v-10.9
		c0-5.5-2.8-8.6-7.3-8.6c-1.6,0-3.1,0.7-4.7,1.7c-1.4,1-2.7,1.8-3.8,2.7v-4.5c-2.5,1.1-5.1,1.8-7.9,2.3v1.3c3.1,0.6,3.4,0.7,3.4,4.4
		v11.7c0,3.7-0.3,4-4.1,4.4v1.5h12.3v-1.5c-3.3-0.3-3.7-0.6-3.7-4.4v-13.3c1.7-1.5,3.9-2.9,6.2-2.9c3.8,0,5.1,2.5,5.1,6.4v9.4
		c0,3.9-0.4,4.4-3.7,4.7v1.5H586.6z M556.1,180.3v-1.5c-3.6-0.3-4-0.7-4-4.5v-19.5c-2.5,1-5.1,1.8-8,2.2v1.4
		c3.4,0.6,3.6,0.8,3.6,4.3v11.6c0,3.8-0.4,4.2-4,4.5v1.5H556.1z M549.5,150c1.6,0,2.9-1.4,2.9-2.9c0-1.7-1.2-2.9-2.8-2.9
		c-1.5,0-2.9,1.2-2.9,2.9C546.7,148.7,548,150,549.5,150 M540.6,180.3v-1.5c-3.2-0.3-3.7-0.6-3.7-4.4v-10.9c0-5.5-2.8-8.6-7.2-8.6
		c-1.6,0-3.1,0.7-4.2,1.5c-1.4,0.8-3.1,1.9-4.7,3.2c-1.1-2.9-3.6-4.6-6.3-4.6c-1.8,0-3.2,0.6-4.6,1.5c-1.7,1.1-2.9,2.1-4.1,2.9v-4.6
		c-2.5,1.1-5.4,1.9-7.9,2.3v1.3c3.3,0.5,3.5,0.8,3.5,4.4v11.7c0,3.7-0.5,4-4.2,4.4v1.5H509v-1.5c-2.8-0.3-3.2-0.7-3.2-4.4v-13.3
		c1.7-1.4,3.9-2.9,6.2-2.9c3.5,0,4.9,2.3,4.9,6.5v9.7c0,3.7-0.5,4-4,4.4v1.5H525v-1.5c-3.1-0.3-3.6-0.7-3.6-4.2v-11
		c0-1.1-0.1-1.7-0.2-2.4c2.1-1.8,4.3-2.9,6.3-2.9c3.6,0,5,2.5,5,6.6v9.4c0,4-0.6,4.2-4,4.6v1.5H540.6z M481.3,156.8
		c4.9,0,7.6,5.4,7.6,12c0,7.7-2.9,10.4-6.4,10.4c-4.6,0-7.8-5.3-7.8-12.4C474.7,160.3,477.8,156.8,481.3,156.8 M481.9,154.9
		c-5.1,0-12.4,4.2-12.4,13.6c0,6.3,4.6,12.5,12.4,12.5c5.6,0,12.3-4.3,12.3-13.5C494.1,160.5,488.9,154.9,481.9,154.9 M467.5,143.6
		h-13.3v1.6c3.9,0.2,5.3,1,5.5,3.5c0.2,1.6,0.4,4.2,0.4,9.4V172h-0.2l-23.6-28.4h-8.4v1.6c2.7,0.2,3.9,0.7,5,2.1
		c1,1.4,1.1,1.6,1.1,5.7v12.4c0,5.2-0.2,7.9-0.3,9.7c-0.3,2.8-1.7,3.5-5,3.7v1.6h13.4v-1.6c-3.8-0.2-5.1-0.9-5.4-3.8
		c-0.2-1.6-0.3-4.4-0.3-9.6v-14.2h0.1l24.1,29.6h1.7v-22.8c0-5.3,0.1-7.8,0.3-9.5c0.2-2.5,1.6-3.2,4.7-3.4V143.6z M403.2,160.9v-6.2
		c-2.7,1.2-5.2,1.9-8,2.3v1.2c3.2,0.5,3.5,0.7,3.5,4.4v11.7c0,3.7-0.4,4.1-3.9,4.4v1.5h13v-1.5c-4.4-0.3-4.6-0.7-4.6-4.4v-10.4
		c1.2-3.2,3.1-4.9,4.5-4.9c0.9,0,1.6,0.3,2.4,1.2c0.3,0.3,0.8,0.4,1.5,0.1c1.1-0.5,1.8-1.6,1.8-2.8c0-1.4-1.4-2.8-3.3-2.8
		c-2.7,0-5.1,3.2-6.8,6H403.2z M384.2,175.6c-1.1,1-3.1,2-4.5,2c-1.8,0-4-1.4-4-4.4c0-2,1.2-3.1,3.5-4.1c1.2-0.6,3.9-1.8,5.1-2.4
		V175.6z M393.2,178.1l-0.6-1.5c-0.6,0.3-1.4,0.6-2,0.6c-1,0-2-0.8-2-3.4v-10.5c0-2.9-0.6-5.3-2.5-6.9c-1.2-1-2.9-1.5-4.6-1.5
		c-3.2,0.6-6.9,2.8-8.5,4c-1.1,0.8-1.8,1.4-1.8,2.3c0,1.3,1.5,2.4,2.5,2.4c0.8,0,1.4-0.4,1.6-1.3c0.5-1.8,1-3,1.7-3.7
		c0.6-0.7,1.4-1.1,2.5-1.1c2.8,0,4.8,2.3,4.8,6.4v1c-1.2,1-5.4,2.5-8.8,3.7c-3.1,1.1-4.6,2.8-4.6,5.6c0,3.6,2.8,6.9,6.8,6.9
		c1.7,0,4.4-2.1,6.7-3.6c0.3,1,0.6,1.7,1.4,2.5c0.6,0.6,1.8,1.1,2.7,1.1L393.2,178.1z M357.1,157c3.1,0,5,2.7,5,5.7
		c0,0.8-0.3,1.1-1.4,1.1c-3.3,0.1-6.4,0.2-9.6,0.2C352,159.4,354.5,157,357.1,157 M365.7,174.3c-2,1.9-4.2,2.8-6.4,2.8
		c-4,0-8.4-3.2-8.4-10.9c6.7-0.2,13.8-0.8,14.8-1c1-0.2,1.3-0.7,1.3-1.8c0-4.4-3.8-8.6-8.5-8.6c-2.9,0-6,1.5-8.3,4.1
		c-2.3,2.5-3.7,6-3.7,9.9c0,6.4,4.1,12,11,12c1.8,0,5.7-1,9.2-5.5L365.7,174.3z M350.4,143.6h-12.5v1.6c4.4,0.5,4.6,0.9,3.3,3.7
		c-1.6,3.4-4.6,9-6.7,12.7c-2.4-4.2-5.2-8.9-7.6-13.4c-1.1-1.9-1.2-2.5,2.8-3.1v-1.6h-13.5v1.6c3.4,0.3,4,1,6.3,4.8
		c3.1,5.3,5.1,8.9,7.1,12.4c1,1.7,1.2,2.2,1.2,3.3v7.5c0,4.8-0.5,5.1-5.5,5.5v1.6h16v-1.6c-5.2-0.3-5.7-0.7-5.7-5.5v-7.7
		c0-1.5,0.2-2.1,0.9-3.6c2.7-5,4.6-8.3,7.2-12.4c2.2-3.5,2.8-4,6.7-4.5V143.6z"/>
	<path class="st4" d="M637.9,89.2c3.1,0,5,2.7,5,5.7c0,0.8-0.3,1.1-1.4,1.1c-3.3,0.1-6.4,0.2-9.6,0.2
		C632.8,91.6,635.3,89.2,637.9,89.2 M646.5,106.5c-2,1.9-4.2,2.8-6.4,2.8c-4,0-8.4-3.2-8.4-10.9c6.7-0.2,13.8-0.8,14.8-1
		c1-0.2,1.3-0.7,1.3-1.8c0-4.4-3.8-8.6-8.5-8.6c-2.9,0-6,1.5-8.3,4.1c-2.3,2.5-3.7,6-3.7,9.9c0,6.4,4.1,12,11,12
		c1.8,0,5.7-1,9.2-5.5L646.5,106.5z M624.1,112.5V111c-3.3-0.3-3.7-0.6-3.7-4.4v-9.9c0-6.8-3.2-9.7-7.8-9.7c-3.1,0-6.1,2.1-8.1,4.1
		v-19c-2.2,0.7-5.6,1.6-8.3,2v1.3c3.7,0.3,3.8,0.6,3.8,4.2v27c0,3.7-0.5,4.1-3.9,4.4v1.5h12V111c-3.3-0.3-3.6-0.7-3.6-4.4V93.2
		c1.6-1.8,3.7-2.9,5.9-2.9c3.8,0,5.5,2.3,5.5,7v9.4c0,3.7-0.5,4-3.7,4.4v1.5H624.1z M594.4,110.4l-0.5-1.5c-0.8,0.4-2.1,1-3.5,1
		s-3.3-0.8-3.3-5.4V90h6.1c0.7-0.4,0.8-1.6,0.3-2.2h-6.4V80l-0.8-0.1l-3.7,3.7v4.1H580l-1.5,1.6l0.2,0.6h3.9v16.5
		c0,4.5,2,6.7,5.5,6.7c0.5,0,1.4-0.2,2.4-0.7L594.4,110.4z M551,87.8l-1.5,1.6l0.2,0.6h4v16.7c0,3.7-0.4,4-4,4.4v1.5H563v-1.4
		c-4.5-0.5-4.9-0.6-4.9-4.8V90h6.1c0.6-0.3,0.9-1.7,0.6-2.2h-6.7v-2.3c-0.1-4.8,0.6-7.5,1.3-8.6c0.6-1,1.5-1.7,3-1.7
		c1.9,0,3.5,1.1,4.6,2.1c0.5,0.6,1,0.6,1.5,0.2c0.6-0.5,0.9-0.9,1.1-1.4c0.3-0.6,0.2-1.4-0.3-2c-0.9-1.1-2.5-1.9-4.5-1.9
		c-2.2,0.3-4.2,1.3-6.2,3c-3,2.6-4,5.4-4.3,6.6c-0.4,1.2-0.6,2.9-0.6,4.6v1.2H551z M533.7,89c4.9,0,7.6,5.4,7.6,12
		c0,7.7-2.9,10.4-6.4,10.4c-4.6,0-7.8-5.3-7.8-12.4C527.2,92.5,530.2,89,533.7,89 M534.3,87.1c-5.1,0-12.4,4.2-12.4,13.6
		c0,6.3,4.6,12.5,12.4,12.5c5.6,0,12.3-4.3,12.3-13.5C546.6,92.7,541.3,87.1,534.3,87.1 M496.2,93.1v-6.2c-2.7,1.2-5.2,1.9-8,2.3
		v1.2c3.2,0.5,3.5,0.7,3.5,4.4v11.7c0,3.7-0.4,4.1-3.9,4.4v1.5h13V111c-4.4-0.3-4.6-0.7-4.6-4.4V96.2c1.2-3.2,3.1-4.9,4.5-4.9
		c0.9,0,1.6,0.3,2.4,1.2c0.3,0.3,0.8,0.4,1.5,0.1c1.1-0.5,1.8-1.6,1.8-2.8c0-1.4-1.4-2.8-3.3-2.8c-2.7,0-5.1,3.2-6.8,6H496.2z
		 M471.8,89c4.9,0,7.6,5.4,7.6,12c0,7.7-2.9,10.4-6.4,10.4c-4.6,0-7.8-5.3-7.8-12.4C465.2,92.5,468.2,89,471.8,89 M472.3,87.1
		c-5.1,0-12.4,4.2-12.4,13.6c0,6.3,4.6,12.5,12.4,12.5c5.6,0,12.3-4.3,12.3-13.5C484.6,92.7,479.3,87.1,472.3,87.1 M457.8,110.4
		l-0.5-1.5c-0.8,0.4-2.1,1-3.5,1c-1.4,0-3.3-0.8-3.3-5.4V90h6.1c0.7-0.4,0.8-1.6,0.3-2.2h-6.4V80l-0.8-0.1l-3.7,3.7v4.1h-2.6
		l-1.5,1.6l0.2,0.6h3.9v16.5c0,4.5,2,6.7,5.5,6.7c0.5,0,1.4-0.2,2.4-0.7L457.8,110.4z M438.7,106.2c-2.6,2.4-4.5,3.1-6.9,3.1
		c-3.2,0-8.5-2.6-8.5-10.5c0-5.9,3.3-9.1,7-9.1c2,0,4,0.7,5.7,2.3c0.5,0.5,0.8,0.6,1.1,0.6c0.6,0,1.9-1.2,1.9-2.4
		c0-0.6-0.2-1.1-0.9-1.8c-0.9-0.7-2.8-1.5-5-1.5c-2.2,0-5.6,0.9-8.5,3.2c-3.8,2.9-5.6,6.7-5.6,11.1c0,6.1,4.2,11.8,11.3,11.8
		c3.3,0,7.1-2.5,9.6-5.8L438.7,106.2z M405.1,89.2c3.1,0,5,2.7,5,5.7c0,0.8-0.3,1.1-1.4,1.1c-3.3,0.1-6.4,0.2-9.6,0.2
		C400,91.6,402.5,89.2,405.1,89.2 M413.7,106.5c-2,1.9-4.2,2.8-6.4,2.8c-4,0-8.4-3.2-8.4-10.9c6.7-0.2,13.8-0.8,14.8-1
		c1-0.2,1.3-0.7,1.3-1.8c0-4.4-3.8-8.6-8.5-8.6c-2.9,0-6,1.5-8.3,4.1c-2.3,2.5-3.7,6-3.7,9.9c0,6.4,4.1,12,11,12
		c1.8,0,5.7-1,9.2-5.5L413.7,106.5z M382.3,93.1v-6.2c-2.7,1.2-5.2,1.9-8,2.3v1.2c3.2,0.5,3.5,0.7,3.5,4.4v11.7
		c0,3.7-0.4,4.1-3.9,4.4v1.5h13V111c-4.4-0.3-4.6-0.7-4.6-4.4V96.2c1.2-3.2,3.1-4.9,4.5-4.9c0.9,0,1.6,0.3,2.4,1.2
		c0.3,0.3,0.8,0.4,1.5,0.1c1.1-0.5,1.8-1.6,1.8-2.8c0-1.4-1.4-2.8-3.3-2.8c-2.7,0-5.1,3.2-6.8,6H382.3z M371.2,112.5V111
		c-3.6-0.3-4-0.7-4-4.5V87c-2.5,1-5.1,1.8-8,2.2v1.4c3.4,0.6,3.6,0.8,3.6,4.3v11.6c0,3.8-0.4,4.2-4,4.5v1.5H371.2z M364.5,82.2
		c1.6,0,2.9-1.4,2.9-2.9c0-1.7-1.2-2.9-2.8-2.9c-1.5,0-2.9,1.2-2.9,2.9C361.7,80.8,363.1,82.2,364.5,82.2 M327.4,81.5
		c0-2.2,0.2-2.8,0.7-3.2c0.6-0.4,2-0.7,4.4-0.7c3.8,0,7.1,0.7,9.6,2.3c4.5,2.7,6.7,7.7,6.7,13.5c0,9-4.9,17-15.4,17
		c-4.1,0-6-1.1-6-5.4V81.5z M317.7,75.7v1.6c4.4,0.3,4.8,0.6,4.8,5.4v22.7c0,4.8-0.5,5.1-5.3,5.5v1.5h13.4c7,0,12.6-1.4,16.8-4.7
		c4.4-3.3,6.9-8.3,6.9-15.1c0-5.3-2-9.4-4.7-12.2c-3.5-3.3-8.8-4.8-16-4.8H317.7z"/>
</g>
</svg>
