<?xml version="1.0" encoding="utf-8"?>
<!-- Generator: Adobe Illustrator 21.0.2, SVG Export Plug-In . SVG Version: 6.00 Build 0)  -->
<svg version="1.1" id="Layer_1" xmlns="http://www.w3.org/2000/svg" xmlns:xlink="http://www.w3.org/1999/xlink" x="0px" y="0px"
	 viewBox="0 0 841.9 244" style="enable-background:new 0 0 841.9 244;" xml:space="preserve">
<style type="text/css">
	.st0{fill:#5F8C9E;}
	.st1{clip-path:url(#SVGID_2_);fill:#FFFFFF;}
	.st2{fill:#055579;}
	.st3{clip-path:url(#SVGID_4_);fill:#FFFFFF;}
	.st4{clip-path:url(#SVGID_6_);fill:#FFFFFF;}
</style>
<rect x="265.3" class="st0" width="577.3" height="244"/>
<g>
	<defs>
		<rect id="SVGID_1_" width="842.7" height="244"/>
	</defs>
	<clipPath id="SVGID_2_">
		<use xlink:href="#SVGID_1_"  style="overflow:visible;"/>
	</clipPath>
	<path class="st1" d="M762.6,121.2c0-8.5-14.2-9-14.2-13.7c0-2.3,1.8-3.4,3.8-3.4c2.2,0,3.8,1.2,7.2,5.5l1.1-0.1V103
		c-1.8-0.6-4.8-1.2-7.4-1.2c-4.6,0-10.1,2.8-10.1,8.4c0,8.4,13.7,8.3,13.7,13.6c0,2.2-1.7,3.8-4.5,3.8c-2.6,0-5.1-2.1-8.2-6.6h-1
		v7.5c1.6,0.5,5.1,1.3,8.9,1.3C756.6,130,762.6,127.4,762.6,121.2 M741.7,121.2c0-8.5-14.2-9-14.2-13.7c0-2.3,1.8-3.4,3.9-3.4
		c2.2,0,3.8,1.2,7.2,5.5l1.1-0.1V103c-1.8-0.6-4.8-1.2-7.4-1.2c-4.6,0-10.1,2.8-10.1,8.4c0,8.4,13.7,8.3,13.7,13.6
		c0,2.2-1.7,3.8-4.5,3.8c-2.6,0-5.1-2.1-8.2-6.6h-1v7.5c1.6,0.5,5.1,1.3,8.9,1.3C735.7,130,741.7,127.4,741.7,121.2 M712.4,113.6
		h-8.6c0-3.8,0.8-9.5,5.2-9.5c3.1,0,3.4,3.1,3.4,5.3V113.6z M718.3,123.7c-1.8,1.1-3.6,1.8-6.4,1.8c-5.1,0-8.1-4.3-8.2-9.6h15.8
		v-4.1c0-6.8-3.7-10.1-10.2-10.1c-7.1,0-13.2,7.1-13.2,15.2c0,7.4,4.6,13,12.7,13c4.6,0,8.5-3,10.8-5.1L718.3,123.7z M690.2,110.4
		c0-6.8-3.6-8.6-7.4-8.6c-3.2,0-7.3,2.7-9.3,4.5v-4.5h-0.8l-9.8,2.6v1l2.5,1.3c0.8,0.4,1.2,1.1,1.2,2.1v16.3c0,0.9-0.3,1.3-0.9,1.7
		l-2.2,1.7v0.8h13.2v-0.8l-2.2-1.7c-0.6-0.5-0.9-0.8-0.9-1.7v-16.8c1.7-0.9,4.2-2,5.9-2c2.5,0,3.5,1.3,3.5,4.4v14.4
		c0,0.9-0.3,1.3-0.9,1.7l-2.2,1.7v0.8h13.2v-0.8l-2.2-1.7c-0.6-0.5-0.9-0.8-0.9-1.7V110.4z M657.7,101.8h-0.9l-9.6,2.6v0.9l2.3,1.7
		c0.6,0.5,1.2,1,1.2,2v16.1c0,0.9-0.3,1.3-0.9,1.7l-2.2,1.7v0.8h13.2v-0.8l-2.2-1.7c-0.6-0.5-0.9-0.8-0.9-1.7V101.8z M658.2,95.2
		c0-2.2-1.8-4-4-4c-2.2,0-4,1.8-4,4c0,2.2,1.8,4,4,4C656.4,99.1,658.2,97.3,658.2,95.2 M644.6,121.2c0-8.5-14.2-9-14.2-13.7
		c0-2.3,1.8-3.4,3.8-3.4c2.2,0,3.9,1.2,7.2,5.5l1.1-0.1V103c-1.8-0.6-4.8-1.2-7.4-1.2c-4.6,0-10.1,2.8-10.1,8.4
		c0,8.4,13.7,8.3,13.7,13.6c0,2.2-1.7,3.8-4.5,3.8c-2.6,0-5.1-2.1-8.2-6.6h-1v7.5c1.6,0.5,5.1,1.3,8.9,1.3
		C638.6,130,644.6,127.4,644.6,121.2 M611.7,124c-1.7,0.9-2.7,1.5-4.4,1.5c-3.1,0-4.6-1.3-4.6-4.4v-19.2h-0.9l-9.3,2.6v0.9l2.3,1.7
		c0.6,0.5,0.8,1,0.8,2v12.4c0,6.8,3.6,8.6,7.4,8.6c3.2,0,7-2.5,8.9-4.3v4.3h0.8l9.8-1.8v-0.9l-2.5-1.3c-0.8-0.4-1.2-0.9-1.2-1.9
		v-22.2h-0.9l-9.3,2.6v0.9l1.9,1.7c0.6,0.5,1.2,1,1.2,2V124z M582.7,116.1c0,7-3.9,11.7-8.4,11.7c-0.9,0-2.7-0.6-3.6-1.1v-18.8
		c0.9-0.7,2.8-1.6,4.6-1.6C579.5,106.3,582.7,110.4,582.7,116.1 M589.8,114.2c0-6.7-4.1-12.4-10.5-12.4c-3.5,0-6.9,2.5-8.5,4.5V88.6
		h-0.8l-9.9,2.6v0.9l2.3,1.7c0.6,0.5,1.2,1,1.2,1.9v32.7c2.1,0.6,6.8,1.5,10.7,1.5C580.2,130,589.8,125.1,589.8,114.2 M540.2,108.6
		c0,5.1-3.2,10.1-6.9,10.1c-2.3,0-3.4-2.1-3.4-4.4c0-3.5,2.6-10.6,7-10.6C539.6,103.7,540.2,106.4,540.2,108.6 M539.4,135.9
		c0,3.2-4.3,5.2-8.2,5.2c-4.7,0-9.2-3-9.2-6.4c0-2.1,1.7-4,8.2-7C534.1,130.2,539.4,132.5,539.4,135.9 M537.9,101.8
		c-5.3,0-12.4,5.5-12.4,11.8c0,3.4,2.1,6.1,5.4,6.9c-1.7,1.3-2.9,2.6-2.9,4.3c0,0.7,0.2,1.5,1.1,2.2c-4.2,1.5-11.2,4.3-11.2,8.4
		c0,3.7,5.8,7.6,12.1,7.6c5.7,0,13.8-3.3,13.8-8.8c0-6.8-12.4-8.8-12.4-11.8c0-0.7,0.7-1.3,1.4-1.8c5,0,12.5-4.9,12.5-11.8
		c0-1.2-0.3-2.4-0.7-3.3c1.3,0.6,2.4,0.8,3.3,0.8c2,0,2.9-1.2,2.9-2.5c0-1-0.6-1.7-1.6-2c-0.9,1.1-2.1,2-4.1,2
		c-0.5,0-1.2-0.1-1.8-0.2C541.8,102.5,539.8,101.8,537.9,101.8 M501.5,105.8c0.5,0,0.4,0.7,0.3,1.5l-2,8.9l-3.8,13.2h4.8l2.6-11.1
		c2.7-4.2,8.9-12.5,11.3-12.5c0.4,0,0.7,0.3,0.7,1c0,0.6-0.2,1.6-0.5,3.1l-1.3,6l-2.9,10.2c-0.2,0.8-0.4,1.5-0.4,2c0,1.7,1.1,2,2,2
		c2.3,0,5-1.7,9-8.1l-1.1-0.8c-0.5,0.9-3.3,5-4.4,5c-0.3,0-0.5-0.3-0.5-0.7c0-0.2,0.1-0.5,0.1-0.6l2.1-9.1l2-6.9
		c0.5-1.6,0.7-2.9,0.7-3.7c0-2-1.3-3.1-3.3-3.1c-2.4,0-5.3,1.6-12.4,12.2h-0.3l2.3-8.3c0.2-0.6,0.4-1.6,0.4-2.3
		c0-1.3-0.8-1.6-1.8-1.6c-4.1,0-7.5,5.5-9.5,8.6l1.1,0.8C497.3,110.3,500.4,105.8,501.5,105.8 M491.6,122.4l-1-1
		c-0.6,1-3.4,4.6-4.4,4.6c-0.4,0-0.5-0.4-0.5-0.7c0-0.3,0.2-1.3,0.4-2l1.8-7.8l2.8-9.7c0.3-0.9,0.4-1.6,0.4-2.2c0-1.5-0.9-1.9-2-1.9
		c-4.2,0-7.5,5.6-9.2,8.5l1.1,0.8c0.6-1,3.3-5.2,4.4-5.2c0.3,0,0.5,0.3,0.5,0.6s-0.2,1.2-0.4,2.2l-1.6,6.9l-2.9,10.4
		c-0.2,0.8-0.4,1.5-0.4,2c0,1.7,1.1,2,2,2C486.6,130,489.8,125.2,491.6,122.4 M493.3,94.9c0-1.7-1.4-3.1-3.1-3.1
		c-1.7,0-3.2,1.4-3.2,3.2c0,1.7,1.4,3.1,3.1,3.1C491.8,98.1,493.3,96.7,493.3,94.9 M469,101.8c-4.1,0-7.5,5.5-9.5,8.6l1.1,0.8
		c0.6-1,3.6-5.5,4.7-5.5c0.5,0,0.4,0.7,0.3,1.5l-1.9,8.6l-3.9,13.5h4.8l2.6-11.1c2.2-4.7,6.3-12,9-12c0.6,0,1.2,0.4,1.7,1.1
		c2-0.3,3-1.6,3-3.1c0-1.7-1.5-2.4-2.6-2.4c-3.5,0-7.6,6.7-10,11.6l-0.3-0.2l2.3-7.5c0.3-0.9,0.3-1.8,0.3-2.2
		C470.8,102.5,470.4,101.8,469,101.8 M455.5,122.4l-1-1c-0.6,1-3.4,4.6-4.4,4.6c-0.4,0-0.5-0.4-0.5-0.7c0-0.3,0.2-1.3,0.4-2l1.8-7.8
		l2.8-9.7c0.3-0.9,0.4-1.6,0.4-2.2c0-1.5-0.9-1.9-1.9-1.9c-4.2,0-7.5,5.6-9.2,8.5l1.1,0.8c0.6-1,3.3-5.2,4.4-5.2
		c0.3,0,0.5,0.3,0.5,0.6s-0.2,1.2-0.4,2.2l-1.6,6.9L445,126c-0.2,0.8-0.4,1.5-0.4,2c0,1.7,1.1,2,2,2
		C450.5,130,453.7,125.2,455.5,122.4 M457.2,94.9c0-1.7-1.4-3.1-3.1-3.1c-1.7,0-3.2,1.4-3.2,3.2c0,1.7,1.4,3.1,3.1,3.1
		C455.7,98.1,457.2,96.7,457.2,94.9 M425.6,101.8c-3.8,0-7.8,6.4-9.1,8.6l1.1,0.8c0.6-1,3.6-5.5,4.7-5.5c0.5,0,0.5,0.7,0.3,1.5
		l-2.5,11.9l-5.3,19.2c-0.3,1-0.7,1.4-1.4,1.8l-2.8,1.5l-0.2,0.8h12.3l0.2-0.8l-3.4-1.7c-0.4-0.3-0.5-0.6-0.5-1.1
		c0-0.3,0.1-0.5,0.2-0.8l2.3-8.4c0,0,0.7,0.2,1.8,0.2c9.5,0,18.5-11.8,18.5-20.8c0-4.3-2.1-7.4-5.1-7.4c-4.1,0-8.9,6.1-11.1,9.6
		l-0.3-0.1l1.6-5.8C427.4,104.1,427.9,101.8,425.6,101.8 M436.7,110.7c0,9-7,17.1-13.1,17.1c-0.5,0-0.9-0.1-1.5-0.2l3-13.2
		c1.9-3.2,6.9-8.9,9.2-8.9C435.3,105.6,436.7,106.9,436.7,110.7 M415.7,105.2c0-2.6-3.5-3.4-5.7-3.4c-4.4,0-9.3,2.9-9.3,8.1
		c0,5.7,6,8.7,6,13.4c0,2.9-2.2,4.6-4.6,4.6c-3.3,0-4.5-3.1-4.8-5.6c-2.3,0.1-3.1,1.8-3.1,3.2c0,2.5,2.9,4.5,6.9,4.5
		c5,0,9.7-2.9,9.7-8.4c0-6.1-5.9-8.8-5.9-13.5c0-2.5,1.6-4.2,3.7-4.2c2.6,0,4,2.6,4.4,4.6C414.2,108.4,415.7,107,415.7,105.2
		 M373,105.8c0.5,0,0.4,0.7,0.3,1.5l-2,8.9l-3.8,13.2h4.8l2.6-11.1c2.7-4.2,8.9-12.5,11.3-12.5c0.4,0,0.7,0.3,0.7,1
		c0,0.6-0.2,1.6-0.5,3.1l-1.3,6l-2.9,10.2c-0.2,0.8-0.4,1.5-0.4,2c0,1.7,1.1,2,2,2c2.3,0,5-1.7,9-8.1l-1.1-0.8c-0.5,0.9-3.3,5-4.4,5
		c-0.3,0-0.5-0.3-0.5-0.7c0-0.2,0.1-0.5,0.1-0.6l2.1-9.1l2-6.9c0.5-1.6,0.7-2.9,0.7-3.7c0-2-1.3-3.1-3.3-3.1
		c-2.4,0-5.3,1.6-12.4,12.2h-0.3l2.3-8.3c0.2-0.6,0.4-1.6,0.4-2.3c0-1.3-0.8-1.6-1.8-1.6c-4.1,0-7.5,5.5-9.5,8.6l1.1,0.8
		C368.9,110.3,371.9,105.8,373,105.8 M363.3,97.1c0.2-0.8,0.7-1.6,1.3-1.8l3.8-1.5l0.2-0.8h-14l-0.2,0.8l3.1,1.5
		c0.6,0.3,0.7,0.9,0.5,1.8l-6.4,28c-0.2,1.1-0.6,1.6-1.3,1.8l-3.8,1.5l-0.2,0.8h14l0.2-0.8l-3.1-1.5c-0.6-0.3-0.8-0.9-0.6-1.8
		L363.3,97.1z"/>
</g>
<rect class="st2" width="266.4" height="244"/>
<g>
	<defs>
		<rect id="SVGID_3_" width="842.7" height="244"/>
	</defs>
	<clipPath id="SVGID_4_">
		<use xlink:href="#SVGID_3_"  style="overflow:visible;"/>
	</clipPath>
	<path class="st3" d="M128,97.3c1.6,0,3.1,0.3,4.4,0.7c7.6,2.1,13.2,10.3,13.2,22.1c0.1,20.6-9.8,26-14.1,26.2
		c-1.1,0.2-2.2,0.1-3.8,0.2c-1.4,0-2.6-0.3-3.8-0.5c-7-1.3-13.8-9.7-13.9-24.3c-0.1-14,4.8-22.8,14.4-24.2
		C125.6,97.4,126.8,97.3,128,97.3v-1.6c-1.2,0-2.4,0.1-3.5,0.2c-14.1,2.1-20.5,14.7-20.5,24.6c0,14.1,9.4,24.7,20.1,26.7
		c1.2,0.2,2.5,0.3,3.9,0.3c1.4,0,2.7-0.2,3.8-0.2c7,0,20.2-9.4,20.1-25.8c-0.1-13.9-10.9-23.4-19.5-25.3c-1.4-0.4-2.9-0.7-4.4-0.6
		V97.3z"/>
	<path class="st3" d="M94.5,99c0-3.3-0.3-9.3,3.1-10c1.6-0.3,3.2-0.4,3.1-1.4c-0.1-0.8-1.3-0.6-4-0.3c-2.6,0.3-8.5,0.1-10,0.1
		c-4.8-0.2-7.2-0.5-7.3,0.6c-0.1,0.9,0.8,0.7,2.4,0.8c3.8,0.2,4.5,3.4,4.6,10.1c0.3,16.7,0.1,39.8,0,42.9
		c-0.2,7.1,0.2,12.4-3.8,13.3c-1.9,0.4-2.6,0.3-2.6,1.1c0,1.1,1.9,0.4,6.6,0c3-0.3,6.4-0.1,9.1,0.2c1.6,0.2,2.8,0.3,3.7,0.3
		c1.2,0,1.8-0.3,1.8-0.8c0-0.8-0.8-0.7-2.1-0.8c-5-0.5-4.5-7.5-4.8-13.3C93.9,135.7,94.5,103.2,94.5,99"/>
	<path class="st3" d="M144.5,82.5c10.3,0.4,16.9,3.6,21.1,7.9c4.5,4.5,10.8,13.2,10.8,31.4c0,18.2-6.6,26.1-10.3,29.5
		c-3.9,3.6-9.8,9.5-21.7,9.5c-13,0-11.9-10.4-11.9-14.2c-0.1-10.1-0.2-44.5,0.2-50.4c0-4.6,0.1-10.4,0.3-11.8c0.1-1.4,0.3-1.3,1-1.4
		c0.9-0.1,6.6-0.6,8.6-0.6C143.2,82.5,143.9,82.5,144.5,82.5l0.2-2.8h-0.1c-4,0-6.8,0.6-15.1,0.6c-5.4,0-8.2-0.3-10.4-0.4
		c-2.2-0.1-2.5,0.7-2.5,1.1c0,0.4,0.1,1.1,1.1,1.1c5.1,0,5.8,2.4,6,4.4c0.5,7,0.2,54.4,0.1,60.3c0,2.4-0.1,5.3-0.3,7.1
		c-0.8,7.9-5,7.6-7.4,8.1c-0.9,0.2-2.4,0-2.4,1c0,0.7,0.6,1.1,1.9,1.1c1.7,0,9.8-0.8,13.4-1c3.7-0.2,11.7,0.2,16.4,0.2
		c14.7,0,22.8-5.5,28.8-11.3c7.1-6.8,12.2-18.1,12.2-31c0-12.9-4.5-23.8-11.5-30.7c-6.9-7-18.1-10.6-30.1-10.6L144.5,82.5z"/>
</g>
<rect x="337.6" y="40" class="st0" width="439.2" height="133.6"/>
<g>
	<defs>
		<rect id="SVGID_5_" width="842.7" height="244"/>
	</defs>
	<clipPath id="SVGID_6_">
		<use xlink:href="#SVGID_5_"  style="overflow:visible;"/>
	</clipPath>
	<path class="st4" d="M787,168.8c-1.4,1-3.4,1.9-5.4,1.9c-3.6,0-7.8-3.3-7.8-10c0-8.2,4.8-10.4,7.4-10.4c2.2,0,4.5,0.9,5.8,2.9
		V168.8z M795.8,170.7l-1.8-0.2c-2.1-0.2-2.5-0.5-2.5-3.5v-33.8c-2.1,0.7-5.9,1.6-8.8,2v1.4c4.1,0.3,4.4,0.5,4.4,4.2v8
		c-1.3-0.5-2.9-0.6-3.7-0.6c-7.7,0-14.6,6.2-14.6,14c0,7.9,5.9,12,10.5,12c0.7,0,2.2-0.3,4.4-1.6l3.5-2v3.7c3.3-1.2,7.5-1.9,8.8-2.2
		V170.7z M756.5,154.2V148c-2.7,1.2-5.2,1.9-8,2.3v1.2c3.2,0.5,3.5,0.7,3.5,4.4v11.7c0,3.7-0.4,4.1-3.9,4.4v1.5h13v-1.5
		c-4.4-0.3-4.6-0.7-4.6-4.4v-10.4c1.2-3.2,3.1-4.9,4.5-4.9c0.9,0,1.6,0.3,2.4,1.2c0.3,0.3,0.8,0.4,1.5,0.1c1.1-0.5,1.8-1.6,1.8-2.8
		c0-1.4-1.4-2.8-3.3-2.8c-2.7,0-5.1,3.2-6.8,6H756.5z M737.5,168.8c-1.1,1-3.1,2-4.5,2c-1.8,0-4-1.4-4-4.4c0-2,1.2-3.1,3.5-4.1
		c1.2-0.6,3.9-1.8,5.1-2.4V168.8z M746.5,171.4l-0.6-1.5c-0.6,0.3-1.4,0.6-2,0.6c-1,0-2-0.9-2-3.4v-10.5c0-2.9-0.6-5.3-2.5-6.9
		c-1.2-1-2.9-1.5-4.6-1.5c-3.2,0.6-6.9,2.8-8.5,4c-1.1,0.8-1.8,1.4-1.8,2.3c0,1.3,1.5,2.4,2.5,2.4c0.8,0,1.4-0.4,1.6-1.3
		c0.5-1.8,1-3,1.7-3.7c0.6-0.7,1.4-1.1,2.5-1.1c2.8,0,4.8,2.3,4.8,6.4v1c-1.2,1-5.4,2.5-8.8,3.7c-3.1,1.1-4.6,2.8-4.6,5.6
		c0,3.6,2.8,6.9,6.8,6.9c1.7,0,4.4-2.1,6.7-3.6c0.3,1,0.6,1.8,1.4,2.5c0.6,0.6,1.8,1.1,2.7,1.1L746.5,171.4z M722.6,148.9h-10.2v1.4
		c3.7,0.5,4,0.8,3.3,3.8c-1,4.2-2.6,9.1-3.8,13h-0.1c-2.4-6.1-4.7-12-6.8-17.9h-1.5c-2.4,6.5-4.5,12.3-6.6,17.7h-0.1
		c-1.4-4.4-2.8-8.8-4.1-13.2c-0.8-2.5-0.6-2.9,2.8-3.5v-1.4h-11.7v1.4c2.7,0.4,3.2,0.8,4.2,3.7c2.3,6.8,4.5,13.5,6.5,20.2h1.6
		c2.2-6.3,4.5-11.9,6.7-17.6c2.3,5.9,4.6,11.5,6.9,17.6h1.6c2.6-7.7,5.1-15.2,6.8-19.7c1.2-3.1,1.7-3.8,4.5-4.2V148.9z M671.5,157.7
		h-10.4c1.7-4.6,3.5-9.6,5.3-14.4h0.1L671.5,157.7z M686,173.6V172c-3.7-0.3-4.4-0.8-6.2-5.7c-3.6-9.8-7.4-20.6-10.9-30.3l-1.8,0.5
		l-11.7,29.7c-2,5-2.8,5.3-6.3,5.8v1.6h12.3V172c-4.2-0.4-4.8-1-3.5-4.5c0.7-2.4,1.6-4.8,2.5-7.3h12c1.2,3.5,2.4,6.5,3.1,8.7
		c0.7,2.2,0.2,2.7-3.3,3.1v1.6H686z M636.1,148.9h-10.2v1.4c3.2,0.5,3.6,1.1,2.9,3.2c-1.2,3.6-3.6,10.2-5.2,14.1l-5.1-14.2
		c-0.7-2.1-0.5-2.7,2.2-3.1v-1.4h-11.5v1.4c3.1,0.5,3.7,1.2,4.9,4.3c1.7,4,4.2,10.9,6.5,17.3c0.3,1,0.3,1.7,0.1,2.5
		c-0.2,0.7-0.7,1.9-1.8,3.9c-1.3,2.5-2.4,3.9-4.2,5c-1,0.6-1.5,1.1-1.5,2c0,1.4,1.6,2.7,3.2,2.7c0.8,0,1.5-0.3,1.8-1.4
		c0.8-3.1,2-6.3,5.8-15.3c3.9-9.3,5.7-14,7.1-17c1.5-3.2,2-3.7,5-4.1V148.9z M608.5,171.5l-0.5-1.5c-0.8,0.4-2.1,1-3.5,1
		s-3.3-0.8-3.3-5.4v-14.5h6.1c0.7-0.4,0.8-1.6,0.3-2.2h-6.4v-7.7l-0.8-0.1l-3.7,3.7v4.1h-2.6l-1.5,1.6l0.2,0.6h3.9v16.5
		c0,4.5,2,6.7,5.5,6.7c0.5,0,1.4-0.2,2.4-0.7L608.5,171.5z M591.5,173.6v-1.5c-3.6-0.3-4-0.7-4-4.5v-19.5c-2.5,1-5.1,1.8-8,2.2v1.4
		c3.4,0.6,3.6,0.8,3.6,4.3v11.6c0,3.8-0.4,4.2-4,4.5v1.5H591.5z M584.9,143.2c1.6,0,2.9-1.4,2.9-2.9c0-1.7-1.2-2.9-2.8-2.9
		c-1.5,0-2.9,1.2-2.9,2.9C582,141.9,583.4,143.2,584.9,143.2 M576.4,173.6v-1.5c-3.6-0.3-4.1-0.7-4.1-4.4v-34.4
		c-1.9,0.7-5.4,1.6-8.4,2v1.4c3.6,0.3,3.9,0.5,3.9,4.3v26.7c0,3.7-0.5,4.1-4.1,4.4v1.5H576.4z M561.7,173.6v-1.5
		c-3.6-0.3-4-0.7-4-4.5v-19.5c-2.5,1-5.1,1.8-8,2.2v1.4c3.4,0.6,3.6,0.8,3.6,4.3v11.6c0,3.8-0.4,4.2-4,4.5v1.5H561.7z M555.1,143.2
		c1.6,0,2.9-1.4,2.9-2.9c0-1.7-1.2-2.9-2.8-2.9c-1.5,0-2.9,1.2-2.9,2.9C552.3,141.9,553.7,143.2,555.1,143.2 M528,152.4
		c1-0.6,2.8-1.1,4.4-1.1c4.7,0,8.7,3.7,8.7,10.2c0,6.6-3,10.6-7.7,10.6c-3-0.1-4.7-2-5-3.2c-0.2-0.5-0.3-1.1-0.3-1.9V152.4z
		 M528,150.7v-17.4c-2.1,0.7-5.5,1.6-8.2,2v1.3c3.6,0.3,3.7,0.7,3.7,4.2v31.4c3.1,1.5,6,2,8.3,2c7.6,0,14.2-5.9,14.2-14.2
		c0-6.7-5.1-11.9-11.1-11.9c-0.6,0-1.4,0.2-2.3,0.6L528,150.7z M518.8,173.6v-1.5c-3.6-0.3-4-0.7-4-4.5v-19.5c-2.5,1-5.1,1.8-8,2.2
		v1.4c3.4,0.6,3.6,0.8,3.6,4.3v11.6c0,3.8-0.4,4.2-4,4.5v1.5H518.8z M512.1,143.2c1.6,0,2.9-1.4,2.9-2.9c0-1.7-1.2-2.9-2.8-2.9
		c-1.5,0-2.9,1.2-2.9,2.9C509.3,141.9,510.7,143.2,512.1,143.2 M501.9,155.2c-0.2-1.4-0.8-4.8-1.2-6c-1.2-0.5-2.7-1-5-1
		c-5.2,0-8.6,3.3-8.6,7.3c0,4.4,3.7,6.2,7.1,7.8c2.8,1.3,4.5,2.7,4.5,5.1c0,2.4-1.9,4-4,4c-3.4,0-5.9-3.3-7-7l-1.5,0.3
		c0,2,0.5,5.9,0.9,6.7c1,0.8,3.6,1.9,6.5,1.9c4.5,0,9.3-2.6,9.3-7.8c0-3.9-2.9-5.9-7.1-7.7c-2.5-1.1-4.8-2.4-4.8-4.9
		c0-2.2,1.5-3.9,3.7-3.9c2.8,0,4.8,2.3,5.8,5.6L501.9,155.2z M482.9,173.6v-1.5c-3.3-0.3-3.6-0.6-3.6-4.4v-10.9
		c0-5.5-2.8-8.6-7.3-8.6c-1.6,0-3.1,0.7-4.7,1.7c-1.4,1-2.7,1.8-3.8,2.7V148c-2.5,1.1-5.1,1.8-7.9,2.3v1.3c3.1,0.6,3.4,0.7,3.4,4.4
		v11.7c0,3.7-0.3,4-4.1,4.4v1.5h12.3v-1.5c-3.3-0.3-3.7-0.6-3.7-4.4v-13.3c1.7-1.5,3.9-2.9,6.2-2.9c3.8,0,5.2,2.5,5.2,6.4v9.4
		c0,3.9-0.4,4.4-3.7,4.7v1.5H482.9z M439,150c4.9,0,7.6,5.4,7.6,12c0,7.7-2.9,10.4-6.4,10.4c-4.6,0-7.8-5.3-7.8-12.4
		C432.5,153.5,435.5,150,439,150 M439.6,148.2c-5.1,0-12.4,4.2-12.4,13.6c0,6.3,4.6,12.5,12.4,12.5c5.6,0,12.3-4.3,12.3-13.5
		C451.9,153.8,446.6,148.2,439.6,148.2 M404.5,153.9c1.5-1.1,3.8-2.4,5.7-2.4c4.1,0,7.6,3.4,7.6,9.4c0,6.4-3.2,10.5-7.9,10.5
		c-1.9,0-4.1-0.9-5.3-2.2V153.9z M404.5,152.1v-4.5c-2.7,1.1-5.8,2-8.2,2.4v1.4c3.5,0.5,3.7,0.6,3.7,4.2v25.6c0,3.7-0.5,4.1-4.1,4.4
		v1.5h13.4v-1.5c-4.4-0.4-4.8-0.7-4.8-5v-7.4c0.7,0.4,2.3,1,3.9,1c7.4-1.4,14.1-6.8,14.1-15.4c0-5.6-3.7-10.7-10-10.7
		c-0.7,0-1.8,0.3-2.8,0.8L404.5,152.1z M392.6,155.2c-0.2-1.4-0.8-4.8-1.2-6c-1.2-0.5-2.7-1-5-1c-5.2,0-8.6,3.3-8.6,7.3
		c0,4.4,3.7,6.2,7.1,7.8c2.8,1.3,4.5,2.7,4.5,5.1c0,2.4-1.9,4-4,4c-3.4,0-5.9-3.3-7-7l-1.5,0.3c0,2,0.5,5.9,0.9,6.7
		c1,0.8,3.6,1.9,6.5,1.9c4.5,0,9.3-2.6,9.3-7.8c0-3.9-2.9-5.9-7.1-7.7c-2.5-1.1-4.8-2.4-4.8-4.9c0-2.2,1.5-3.9,3.7-3.9
		c2.8,0,4.8,2.3,5.8,5.6L392.6,155.2z M363.3,150.3c3.1,0,5,2.7,5,5.7c0,0.8-0.3,1.1-1.4,1.1c-3.3,0.1-6.4,0.2-9.6,0.2
		C358.2,152.6,360.7,150.3,363.3,150.3 M371.9,167.6c-2,1.9-4.2,2.8-6.4,2.8c-4,0-8.4-3.2-8.4-10.9c6.7-0.2,13.8-0.8,14.8-1
		c1-0.2,1.3-0.7,1.3-1.8c0-4.4-3.8-8.6-8.5-8.6c-2.9,0-6,1.5-8.3,4.1c-2.3,2.5-3.7,6-3.7,9.9c0,6.4,4.1,12,11,12
		c1.8,0,5.7-1,9.2-5.5L371.9,167.6z M327.1,155.6v-13.9c0-1.5,0.2-2.2,0.6-2.5c0.5-0.3,1.4-0.6,3.1-0.6c4.3,0,8.3,2.3,8.3,8.4
		c0,3.1-0.9,5.3-3.1,7c-1.4,1.1-3.3,1.6-6.2,1.6H327.1z M350.9,172.5c-1.2-0.3-2.5-1-4.1-2.7c-1.4-1.5-2.5-2.9-4.6-5.9
		c-1.7-2.5-4.1-6.3-5-8.2c4.2-1.8,7.2-4.8,7.2-9.7c0-3.4-1.5-5.9-3.7-7.4c-2.1-1.4-4.9-1.9-9-1.9h-14v1.6c4.4,0.4,4.9,0.6,4.9,5.4
		v22.7c0,4.8-0.5,5.1-5.1,5.5v1.6h14.9V172c-4.5-0.3-5-0.7-5-5.5v-9h1.8c2.9,0,3.9,0.7,4.9,2.3c1.7,2.8,3.7,6.3,5.7,9.1
		c2.5,3.7,4.9,4.9,9.2,5.1c0.7,0.1,1.3,0.1,2,0.1L350.9,172.5z"/>
	<path class="st4" d="M694.9,105.7v-1.5c-3.6-0.3-4.1-0.7-4.1-4.4V65.4c-1.9,0.7-5.4,1.6-8.4,2v1.4c3.6,0.3,3.9,0.5,3.9,4.3v26.7
		c0,3.7-0.5,4.1-4.1,4.4v1.5H694.9z M671.9,101c-1.1,1-3.1,2-4.5,2c-1.8,0-4-1.4-4-4.4c0-2,1.2-3.1,3.5-4.1c1.2-0.6,3.9-1.8,5.1-2.4
		V101z M680.8,103.5l-0.6-1.5c-0.6,0.3-1.4,0.6-2,0.6c-1,0-2-0.8-2-3.4V88.7c0-2.9-0.6-5.3-2.5-6.9c-1.2-1-2.9-1.5-4.6-1.5
		c-3.2,0.6-6.9,2.8-8.5,4c-1.1,0.8-1.8,1.4-1.8,2.3c0,1.3,1.5,2.4,2.5,2.4c0.8,0,1.4-0.4,1.6-1.3c0.5-1.8,1-3,1.7-3.7
		c0.6-0.7,1.4-1.1,2.5-1.1c2.8,0,4.8,2.3,4.8,6.4v1c-1.2,1-5.4,2.5-8.8,3.7c-3.1,1.1-4.6,2.8-4.6,5.6c0,3.6,2.8,6.9,6.8,6.9
		c1.7,0,4.4-2.1,6.7-3.6c0.3,1,0.6,1.7,1.4,2.5c0.6,0.6,1.8,1.1,2.7,1.1L680.8,103.5z M655.3,105.7v-1.5c-3.6-0.3-4-0.7-4-4.5V80.2
		c-2.5,1-5.1,1.8-8,2.2v1.4c3.4,0.6,3.6,0.8,3.6,4.3v11.6c0,3.8-0.4,4.2-4,4.5v1.5H655.3z M648.6,75.4c1.6,0,2.9-1.4,2.9-2.9
		c0-1.7-1.2-2.9-2.8-2.9c-1.5,0-2.9,1.2-2.9,2.9C645.8,74,647.2,75.4,648.6,75.4 M639.2,99.4c-2.6,2.4-4.5,3.1-6.9,3.1
		c-3.2,0-8.5-2.6-8.5-10.5c0-5.9,3.3-9.1,7-9.1c2,0,4,0.7,5.7,2.3c0.5,0.5,0.8,0.6,1.1,0.6c0.6,0,1.9-1.2,1.9-2.4
		c0-0.6-0.2-1.1-0.9-1.7c-0.9-0.7-2.8-1.5-5-1.5c-2.2,0-5.6,0.9-8.5,3.2c-3.8,2.9-5.6,6.7-5.6,11.1c0,6.1,4.2,11.8,11.3,11.8
		c3.3,0,7.1-2.5,9.6-5.8L639.2,99.4z M601.7,82.2c4.9,0,7.6,5.4,7.6,12c0,7.7-2.9,10.4-6.4,10.4c-4.6,0-7.8-5.3-7.8-12.4
		C595.1,85.7,598.1,82.2,601.7,82.2 M602.2,80.3c-5.1,0-12.4,4.2-12.4,13.6c0,6.3,4.6,12.5,12.4,12.5c5.6,0,12.3-4.3,12.3-13.5
		C614.5,85.9,609.2,80.3,602.2,80.3 M583.3,77.2c-0.5-3.6-0.7-5.8-1-7.8c-2.1-0.7-4.5-1.3-7.1-1.3c-7.3,0-11.6,4.6-11.6,10.1
		c0,6.4,5.7,9.2,9.3,11.1c4.2,2.3,7.4,4.2,7.4,8.4c0,4.1-2.5,6.8-6.8,6.8c-5.8,0-8.4-5.7-9.3-9.2l-1.6,0.4c0.3,2.7,1.1,7.6,1.5,8.8
		c0.5,0.3,1.4,0.7,2.8,1.2c1.4,0.4,3.2,0.8,5.5,0.8c7.5,0,12.5-4.7,12.5-10.7c0-6.3-5.4-9-9.8-11.3c-4.5-2.3-7.2-4.2-7.2-8.4
		c0-3.1,1.9-6.2,6.3-6.2c4.9,0,6.4,3.9,7.4,7.5L583.3,77.2z M536.1,82.4c3.1,0,5,2.7,5,5.7c0,0.8-0.3,1.1-1.4,1.1
		c-3.3,0.1-6.4,0.2-9.6,0.2C531,84.8,533.5,82.4,536.1,82.4 M544.7,99.7c-2,1.9-4.2,2.8-6.4,2.8c-4,0-8.4-3.2-8.4-10.9
		c6.7-0.2,13.8-0.8,14.8-1c1-0.2,1.3-0.7,1.3-1.8c0-4.4-3.8-8.6-8.5-8.6c-2.9,0-6,1.5-8.3,4.1c-2.3,2.5-3.7,6-3.7,9.9
		c0,6.4,4.1,12,11,12c1.8,0,5.7-1,9.2-5.5L544.7,99.7z M523.2,103.7l-0.5-1.5c-0.8,0.4-2.1,1-3.5,1s-3.3-0.8-3.3-5.4V83.2h6.1
		c0.7-0.4,0.8-1.6,0.3-2.2h-6.4v-7.7l-0.8-0.1l-3.7,3.7V81h-2.6l-1.5,1.6l0.2,0.6h3.9v16.5c0,4.5,2,6.7,5.5,6.7
		c0.5,0,1.4-0.2,2.4-0.7L523.2,103.7z M498.2,101c-1.1,1-3.1,2-4.5,2c-1.8,0-4-1.4-4-4.4c0-2,1.2-3.1,3.5-4.1
		c1.2-0.6,3.9-1.8,5.1-2.4V101z M507.1,103.5l-0.6-1.5c-0.6,0.3-1.4,0.6-2,0.6c-1,0-2-0.8-2-3.4V88.7c0-2.9-0.6-5.3-2.5-6.9
		c-1.2-1-2.9-1.5-4.6-1.5c-3.2,0.6-6.9,2.8-8.5,4c-1.1,0.8-1.8,1.4-1.8,2.3c0,1.3,1.5,2.4,2.5,2.4c0.8,0,1.4-0.4,1.6-1.3
		c0.5-1.8,1-3,1.7-3.7c0.6-0.7,1.4-1.1,2.5-1.1c2.8,0,4.8,2.3,4.8,6.4v1c-1.2,1-5.4,2.5-8.8,3.7c-3.1,1.1-4.6,2.8-4.6,5.6
		c0,3.6,2.8,6.9,6.8,6.9c1.7,0,4.4-2.1,6.7-3.6c0.3,1,0.6,1.7,1.4,2.5c0.6,0.6,1.8,1.1,2.7,1.1L507.1,103.5z M471.9,86.3v-6.2
		c-2.7,1.2-5.2,1.9-8,2.3v1.2c3.2,0.5,3.5,0.7,3.5,4.4v11.7c0,3.7-0.4,4.1-3.9,4.4v1.5h13v-1.5c-4.4-0.3-4.6-0.7-4.6-4.4V89.5
		c1.2-3.2,3.1-4.9,4.5-4.9c0.9,0,1.6,0.3,2.4,1.2c0.3,0.3,0.8,0.4,1.5,0.1c1.1-0.5,1.8-1.6,1.8-2.8c0-1.4-1.4-2.8-3.3-2.8
		c-2.7,0-5.1,3.2-6.8,6H471.9z M447.4,82.2c4.9,0,7.6,5.4,7.6,12c0,7.7-2.9,10.4-6.4,10.4c-4.6,0-7.8-5.3-7.8-12.4
		C440.8,85.7,443.9,82.2,447.4,82.2 M448,80.3c-5.1,0-12.4,4.2-12.4,13.6c0,6.3,4.6,12.5,12.4,12.5c5.6,0,12.3-4.3,12.3-13.5
		C460.2,85.9,455,80.3,448,80.3 M412.9,86.1c1.5-1.1,3.8-2.4,5.7-2.4c4.1,0,7.6,3.4,7.6,9.4c0,6.4-3.2,10.5-7.9,10.5
		c-1.9,0-4.1-0.9-5.3-2.2V86.1z M412.9,84.2v-4.5c-2.7,1.1-5.8,2-8.2,2.4v1.4c3.5,0.5,3.7,0.6,3.7,4.2v25.6c0,3.7-0.5,4.1-4.1,4.4
		v1.5h13.4v-1.5c-4.4-0.4-4.8-0.7-4.8-5v-7.4c0.7,0.4,2.3,1,3.9,1c7.4-1.4,14.1-6.8,14.1-15.4c0-5.6-3.7-10.7-10-10.7
		c-0.7,0-1.8,0.3-2.8,0.8L412.9,84.2z M392,86.3v-6.2c-2.7,1.2-5.2,1.9-8,2.3v1.2c3.2,0.5,3.5,0.7,3.5,4.4v11.7
		c0,3.7-0.4,4.1-3.9,4.4v1.5h13v-1.5c-4.4-0.3-4.6-0.7-4.6-4.4V89.5c1.2-3.2,3.1-4.9,4.5-4.9c0.9,0,1.6,0.3,2.4,1.2
		c0.3,0.3,0.8,0.4,1.5,0.1c1.1-0.5,1.8-1.6,1.8-2.8c0-1.4-1.4-2.8-3.3-2.8c-2.7,0-5.1,3.2-6.8,6H392z M367.6,82.2
		c4.9,0,7.6,5.4,7.6,12c0,7.7-2.9,10.4-6.4,10.4c-4.6,0-7.8-5.3-7.8-12.4C361,85.7,364.1,82.2,367.6,82.2 M368.1,80.3
		c-5.1,0-12.4,4.2-12.4,13.6c0,6.3,4.6,12.5,12.4,12.5c5.6,0,12.3-4.3,12.3-13.5C380.4,85.9,375.1,80.3,368.1,80.3 M349.9,95.8
		c-2.8,5.7-5.9,8.8-11.6,8.8c-8.6,0-14.8-7.2-14.8-17.8c0-8.6,5-16.6,14.5-16.6c6.1,0,9.5,2.4,11,8.4l1.7-0.4
		c-0.3-3.1-0.7-5.3-1.1-8.5c-1.6-0.3-5.4-1.5-10-1.5c-12.6,0-21.8,7.9-21.8,19.7c0,9,6.2,18.7,20.2,18.7c4.1,0,8.8-1.1,10.4-1.5
		c1-1.9,2.4-6.1,3.2-8.7L349.9,95.8z"/>
</g>
</svg>
