<?xml version="1.0" encoding="utf-8"?>
<!-- Generator: Adobe Illustrator 28.0.0, SVG Export Plug-In . SVG Version: 6.00 Build 0)  -->
<svg version="1.1" id="Layer_2_00000093859813621898235800000009745917344437480866_"
	 xmlns="http://www.w3.org/2000/svg" xmlns:xlink="http://www.w3.org/1999/xlink" x="0px" y="0px" viewBox="0 0 330 300"
	 style="enable-background:new 0 0 330 300;" xml:space="preserve">
<style type="text/css">
	.st0{fill:#FFFFFF;}
</style>
<g id="PLX-Icon">
	<g id="PLX-Icon-2">
		<path class="st0" d="M170.9,5.2c0.6,4.4,1.1,8.5,1.6,12.7c-3.1-0.6-6-1.1-9-1.6c-19.8-3.2-39.5-2.7-58.9,2.9
			C89.7,23.6,76.3,30.8,65,41.7c-7.8,7.5-14,16.2-18.4,26.1c-5.2,11.6-7.6,23.8-7.8,36.5c-0.3,16.1,3.1,31.4,9.1,46.2
			c5,12.5,11.8,24,19.8,34.7c6.2,8.2,13,15.9,20.4,22.9c8.8,8.3,18.4,15.8,28.7,22.3c8.9,5.6,18.1,10.5,27.8,14.6
			c14,5.9,28.5,10.1,43.6,12.2c9.2,1.3,18.5,1.7,27.8,1.2c11.1-0.6,22-2.5,32.6-6.2c12.4-4.3,23.5-10.6,33.2-19.5
			c7.8-7.1,14-15.4,18.6-24.8c5.3-10.8,8.2-22.3,8.9-34.3c0.8-13.1-0.9-26-4.6-38.6c-6.9-23.3-19.3-43.3-35.6-61.1
			c-11.4-12.4-24.3-23-38.6-32c-12.7-8-26.2-14.5-40.5-19.1c-0.5-0.2-1-0.4-1.7-0.6c-0.7-4-1.4-8-2.1-12.3c1.9,0.6,3.5,1.1,5.1,1.7
			c10.9,3.9,21.5,8.6,31.7,14.2c10.8,5.9,21.1,12.7,30.8,20.2c11.2,8.7,21.6,18.4,30.9,29.1c10.2,11.7,19,24.3,26.2,38
			c4.6,8.8,8.6,17.9,11.6,27.4c3.8,11.8,6.3,23.8,7,36.1c1,16.6-0.9,32.9-6.6,48.6c-5,13.9-12.6,26.1-22.7,36.9
			c-11.1,11.8-24.2,20.6-39.1,26.8c-13.5,5.7-27.6,9-42.3,10.3c-19.5,1.9-38.7,0.2-57.7-4.1c-11.6-2.7-22.9-6.4-33.9-11
			C110.5,277,94.7,267.9,80,257c-9-6.7-17.5-14-25.3-22c-11.3-11.5-21.4-24-29.8-37.8C16.2,183,9.4,167.9,5,151.7
			c-3.5-13-5.3-26.3-5-39.8c0.3-12.5,2.5-24.7,6.7-36.5c3.7-10.3,8.8-19.9,15.4-28.6c8.1-10.7,17.9-19.5,29.3-26.6
			c8.9-5.6,18.4-9.9,28.4-13.1c8.9-2.9,18-4.8,27.2-5.9c14.2-1.7,28.4-1.5,42.5,0.4C156.7,2.5,163.8,4,170.9,5.2z"/>
		<path class="st0" d="M261.2,93.1c3.7,5,6.9,10.5,9.6,16.2c3.9,8.2,6.7,16.8,8,25.8c2.5,17.6-0.5,34-11.5,48.4
			c-6.4,8.4-14.7,14.3-24.4,18.4c-9.9,4.2-20.1,6-30.8,6.2c-9,0.2-17.9-0.9-26.8-2.9c-1.8-17.2-3.6-34.3-5.5-51.6
			c1.7,0.1,3.3,0.2,4.9,0.4c13.2,1.2,26.4,2.4,39.6,3.5c9.2,0.8,18.2,0.1,26.7-4c10.7-5.1,16.9-13.6,18.4-25.4
			c1.2-8.8-0.6-17.3-3.9-25.5C264.3,99.4,262.7,96.3,261.2,93.1L261.2,93.1z"/>
		<path class="st0" d="M125.8,173.6c-6-5.3-11.2-10.9-15.8-16.9c-8-10.3-14.3-21.6-18.2-34.1C87,107.1,86.4,91.7,92,76.3
			c4.1-11.1,11.2-19.9,20.9-26.7c4.3-3,8.9-5.6,14.2-7.4C126.7,86,126.3,129.6,125.8,173.6L125.8,173.6z"/>
		<path class="st0" d="M175.8,115.6c-1.7-16-3.4-31.9-5.1-48c3.7,0.7,7.1,1.4,10.6,2.1c7.7,1.6,15.5,2.9,23.1,4.8
			c11.4,2.9,20,9.6,25.3,20.2c1.9,3.9,3,8.1,2.7,12.5c-0.5,7.6-5.7,12-12.7,13.3c-4.6,0.8-9,0-13.5-0.6c-9.9-1.4-19.7-2.8-29.6-4.1
			C176.4,115.7,176.2,115.7,175.8,115.6L175.8,115.6z"/>
		<path class="st0" d="M226.7,59.4c-9.4-5.3-19.4-8.3-29.8-10.7c-15.8-3.6-31.5-7.4-47.3-11.1c-0.3-0.1-0.5-0.2-0.7-0.5
			C177.6,35.1,203.2,43.8,226.7,59.4L226.7,59.4z"/>
	</g>
</g>
</svg>
