<?xml version="1.0" encoding="UTF-8"?><svg id="Layer_1" xmlns="http://www.w3.org/2000/svg" viewBox="0 0 255.72 45.73"><path d="m36.22,9.97c-.4-.3-.9-.6-1.4-.9-.5-.3-1-.6-1.5-.8-.5-.3-1-.5-1.5-.7s-1.1-.4-1.6-.6c-.5-.2-1-.3-1.5-.4l-1.5-.3c-.5-.1-1-.2-1.4-.2-.5,0-1-.1-1.4-.1l.8.3h-.8l9.5,3.2c.2.1.4.1.6.2.2.1.4.2.6.2.2.1.4.2.6.2.2.1.4.2.5.3-.3-.2-.7-.5-1-.7.2.1.3.1.5.2.2-.1.3,0,.5.1Zm-17.3-3.1c-.7.3-1.3.7-1.8,1.1-.6.5-1,1-1.4,1.6s-.7,1.3-.9,2.1c-.2.8-.3,1.7-.3,2.6,0,.5.1,1,.2,1.5s.2,1,.4,1.5c.3,1,.7,1.9,1.3,2.9.6,1,1.2,1.9,2,2.9l2.7-16.7h-.1v-.2c-.8.2-1.5.4-2.1.7Zm23.1,15.7c-.6.4-1.5.7-2.5.8-1.1.1-2.4,0-3.9-.4l-7.7-1.9-.1,8.5v.2c.3.1.6.2.8.3.3.1.6.2.8.3.3.1.6.2.9.2.3.1.6.1.9.2,2.5.5,4.7.4,6.6,0,1.8-.4,3.3-1.3,4.3-2.4,1-1,1.7-2.3,2-3.7.1-.7.2-1.5.1-2.3,0-.8-.1-1.5-.4-2.4,0-.1-.1-.2-.1-.3s-.1-.2-.1-.3-.1-.2-.1-.3-.1-.2-.1-.3v.6c0,.6-.1,1.1-.2,1.6-.2.6-.6,1.1-1.2,1.6Z"/><path d="m53.32,29.87c0-2.5-.5-5.1-1.5-7.7-.9-2.3-2.2-4.5-3.6-6.5-1.4-1.9-3-3.7-4.8-5.3-1.7-1.6-3.6-3.1-5.6-4.3-2-1.3-4.2-2.4-6.5-3.4v.2l.1,1.6c2,.8,3.9,1.8,5.7,3,1.8,1.1,3.4,2.5,4.9,3.9,1.5,1.4,2.9,3,4.1,4.7,1.2,1.8,2.2,3.7,2.9,5.7.6,1.6.9,3.3,1,4.8v1.5c-.2,2.2-.9,4.3-2.1,6-1.4,1.9-3.4,3.5-6,4.5-2.8,1.1-6.3,1.4-10.2.9-4.2-.6-8.3-2.1-12-4.3s-6.9-5.1-9.3-8.3c-2-2.6-3.4-5.4-4.1-8.1-.1-.3-.2-.7-.2-1-.5-2.9-.3-5.6.8-7.9.9-2.1,2.4-3.7,4.1-4.9,1.6-1.1,3.5-1.8,5.6-2.3,1.9-.4,4-.5,6.1-.3,2,.2,4.1.6,6.3,1.2v-1.8c-2.4-.8-4.8-1.3-7.2-1.6-2.5-.3-4.9-.2-7.2.2-2.7.3-5.1,1.1-7.1,2.2-2.3,1.4-4.2,3.2-5.6,5.6C.32,10.97-.28,14.17.12,17.77c.1,1,.3,2,.6,3.1.8,3,2.2,6,4.3,8.9,2.9,4.1,6.9,7.8,11.6,10.6s10,4.7,15.2,5.2c4.9.5,9.2-.2,12.5-1.8,3.1-1.4,5.3-3.5,6.8-6.1,1.3-2.3,2-4.8,2-7.5.2-.1.1-.2.2-.3-.1.1-.1,0,0,0Zm27.3-15.4h-10.2v20.4h5.3v-6.9h5c4.6,0,7.1-3.1,7.1-6.8-.1-3.7-2.6-6.7-7.2-6.7Zm-.8,8.9h-4.2v-4.4h4.2c1.4,0,2.5.8,2.5,2.2.1,1.4-1.1,2.2-2.5,2.2Zm32.5,3c0,2.4-1.5,4.2-4.3,4.2s-4.3-1.7-4.3-4.2v-12h-5.4v12.1c0,5,3.1,8.6,9.7,8.6s9.6-3.6,9.6-8.7v-11.9h-5.3v11.9h0Zm34.6-5.2c0-3.8-2.6-6.8-7.1-6.8h-10.2v20.4h5.3v-6.9h2.7l3.4,6.9h6l-4.2-7.5c1.9-.6,4.1-2.5,4.1-6.1Zm-7.9,2.2h-4.2v-4.4h4.2c1.4,0,2.5.8,2.5,2.2s-1.1,2.2-2.5,2.2Zm29.2-8.9h-10.2v20.4h5.3v-6.9h5c4.6,0,7.1-3.1,7.1-6.8-.1-3.7-2.6-6.7-7.2-6.7h0Zm-.8,8.9h-4.2v-4.4h4.2c1.4,0,2.5.8,2.5,2.2.1,1.4-1.1,2.2-2.5,2.2Zm23.7-8.9h-5.2v20.4h13.4v-4.6h-8.2m19.2,4.6h14.9v-4.6h-9.7v-3.5h9.5v-4.6h-9.5v-3.2h9.7v-4.5h-14.9m38.3,9.9l6.6-9.9h-6.2l-3.9,6.3-4-6.3h-6.2l6.6,9.9-7.1,10.5h6.2l4.5-6.9,4.4,6.9h6.2m-6-21.4h.6v-2.8h1v-.5h-2.6v.5h1m2.7.3l1,2.5h.2l1.1-2.5v2.5h.5v-3.3h-.8l-.9,2.3-.9-2.3h-.8v3.3h.6"/><path d="m36.82,15.87v-.1c-.1-.4-.2-.7-.4-1s-.5-.6-.8-.9-.7-.5-1.1-.7c-.4-.2-.8-.4-1.3-.5l-5.4-1.7v4.7l5.9,1.7c.5.1.9.2,1.3.2s.7,0,1-.2c.3-.1.5-.3.6-.5.3-.3.3-.6.2-1,.1.1.1,0,0,0Z"/></svg>