<svg xmlns="http://www.w3.org/2000/svg" width="110" height="96.071" viewBox="0 0 110 96.071"><defs><style>.a,.b,.c{fill:#fff;}.a{opacity:0.9;}.b{opacity:0.8;}</style></defs><g transform="translate(0 0)"><g transform="translate(0 49.022)"><path class="a" d="M65.335,114.7c-1.535,0-1.535.11-1.535,1.206v3.29c0,2.193.329,3.509,2.413,3.509,1.974,0,3.18-1.645,3.18-3.838A3.883,3.883,0,0,0,65.335,114.7Z" transform="translate(-48.446 -99.565)"/><path class="a" d="M65.329,114.3a2.962,2.962,0,0,0,3.29-3.18,3.285,3.285,0,0,0-3.4-3.619c-1.316,0-1.316.219-1.316,1.426v4.606C63.794,114.19,63.794,114.3,65.329,114.3Z" transform="translate(-48.44 -100.262)"/><path class="b" d="M49.8,100.9v30.817l34.437,16.231V100.9Zm21.934,23.8a15.99,15.99,0,0,1-5.484.658c-.987,0-2.084-.11-2.851-.11-1.316,0-2.742.11-4.387.11-.219-.11-.219-.877,0-.877l.768-.11c1.206-.219,1.426-.439,1.426-2.961v-9.87c0-2.742-.11-3.071-1.206-3.29l-.768-.11c-.219-.11-.329-.877.11-.987,2.084-.11,4.167-.219,6.909-.219a12.663,12.663,0,0,1,5.7.987,3.8,3.8,0,0,1,1.974,3.509,3.706,3.706,0,0,1-2.851,3.509c-.329.11-.548.11-.548.329,0,.11.11.11.439.219a4.636,4.636,0,0,1,4.058,4.606A4.555,4.555,0,0,1,71.734,124.7Z" transform="translate(-49.8 -100.9)"/></g><path class="b" d="M118.7,100.9v47.049l34.437-16.231V100.9Zm25.334,23.8a20.5,20.5,0,0,1-5.7.987,12.934,12.934,0,0,1-7.458-2.084,8.772,8.772,0,0,1-3.509-7.238,9.172,9.172,0,0,1,3.29-7.348,12.185,12.185,0,0,1,7.677-2.522,42.681,42.681,0,0,1,5.7.658c0,.548.11,2.742.329,4.387-.11.329-.877.439-.987.219a5.069,5.069,0,0,0-5.155-3.948c-3.071,0-6.361,2.632-6.361,8.116,0,5.593,3.18,8.554,6.471,8.554s4.935-2.413,5.7-4.387a.714.714,0,0,1,.987.219A22.319,22.319,0,0,1,144.034,124.7Z" transform="translate(-43.137 -51.878)"/><path class="c" d="M49.8,72.541v32.682H84.237V56.2ZM73.6,96.559a5,5,0,0,1-2.522,1.974,10.626,10.626,0,0,1-3.948.658,8.071,8.071,0,0,1-5.374-1.645,7.059,7.059,0,0,1-2.193-4.606L63.18,92.5A4.293,4.293,0,0,0,64.5,95.133a4,4,0,0,0,2.632.877,3.6,3.6,0,0,0,2.632-.768,2.122,2.122,0,0,0,.877-1.755,1.408,1.408,0,0,0-.439-1.1,2.45,2.45,0,0,0-1.316-.768c-.439-.11-1.426-.439-2.961-.768A10.006,10.006,0,0,1,61.754,89.1,4.8,4.8,0,0,1,60,85.482a6.023,6.023,0,0,1,.768-2.632,5.261,5.261,0,0,1,2.193-1.864,8.893,8.893,0,0,1,3.619-.658,7.61,7.61,0,0,1,5.155,1.535A5.287,5.287,0,0,1,73.6,85.921l-3.729.11a2.643,2.643,0,0,0-.987-1.974,3.6,3.6,0,0,0-2.3-.658,4.074,4.074,0,0,0-2.522.658,1.335,1.335,0,0,0-.658,1.1,1.523,1.523,0,0,0,.548,1.1c.439.439,1.645.768,3.4,1.206A20.4,20.4,0,0,1,71.3,88.772a4.646,4.646,0,0,1,1.974,1.864,5.92,5.92,0,0,1,.658,2.961A2.863,2.863,0,0,1,73.6,96.559Z" transform="translate(-49.8 -56.2)"/></g><path class="c" d="M84,63.2v41.346h35.095V63.2Zm24.566,34.766H94.528V79.651h13.6v3.071h-9.87v4.058h9.1V89.85h-9.1v4.935h10.2l.11,3.18Z" transform="translate(-46.493 -55.523)"/><path class="c" d="M118.7,56.2v49.023h34.437V72.541Zm24.676,42.443h-3.729V90.637h-7.238v8.006H128.68V80.328h3.729v7.238h7.238V80.328h3.729Z" transform="translate(-43.137 -56.2)"/><g transform="translate(37.507 49.022)"><path class="b" d="M99.38,113.69c-.439-1.206-.877-2.632-1.206-3.29-.219.658-.768,2.084-1.206,3.29l-.658,1.974c-.219.658-.11.768.658.768h2.522c.658,0,.768-.11.548-.768Z" transform="translate(-82.819 -99.981)"/><path class="b" d="M84,100.9v39.372h35.095V100.9Zm25.882,24.347c-1.316-.11-2.851-.11-4.277-.11s-2.522.11-3.729.11a.516.516,0,0,1-.11-.877l.877-.11c.658-.11.768-.329.768-.439a11.433,11.433,0,0,0-.548-1.864l-.768-2.3c-.11-.439-.439-.439-1.316-.439H97.49c-.658,0-.768.11-.877.548l-1.1,3.18a8.93,8.93,0,0,0-.219.987c0,.11.439.329,1.206.439l.877.11c.11.219.219.768-.11.877a27.769,27.769,0,0,0-3.18-.11c-.877,0-1.645.11-2.851.11-.329-.11-.329-.658-.11-.877l.768-.11a2.192,2.192,0,0,0,1.755-1.316c.439-1.1.987-2.413,1.755-4.387l2.522-6.69c.658-1.755,1.1-2.632.987-3.509h.11a8.282,8.282,0,0,1-1.206-1.535,28.073,28.073,0,0,1,3.619-.11l.11-.11c.11,0,.11,0,.219.11h.11c0,.11,0,.11.11.11s.11.219.219.439c.219.768.548,1.755,1.206,3.729l3.838,10.748c.658,1.645.877,2.193,1.864,2.413l1.1.11C110.1,124.479,110.1,125.137,109.882,125.247Z" transform="translate(-84 -100.9)"/></g></svg>