<?xml version="1.0" encoding="UTF-8"?>
<svg width="227px" height="84px" viewBox="0 0 227 84" version="1.1" xmlns="http://www.w3.org/2000/svg" xmlns:xlink="http://www.w3.org/1999/xlink">
    <!-- Generator: Sketch 55.2 (78181) - https://sketchapp.com -->
    <title>Group 36</title>
    <desc>Created with Sketch.</desc>
    <defs>
        <polygon id="path-1" points="0 114.816327 250.852515 114.816327 250.852515 0.617600724 0 0.617600724"></polygon>
    </defs>
    <g id="Homepage/Banners" stroke="none" stroke-width="1" fill="none" fill-rule="evenodd">
        <g id="homepage" transform="translate(-129.000000, -20.000000)">
            <g id="Group-5" transform="translate(117.000000, 4.000000)">
                <g id="Group-36">
                    <polygon id="Fill-1" fill="#F08700" points="157 42 162.972497 42 162.972497 79.7018575 181 79.7018575 181 85 157 85"></polygon>
                    <path d="M186.00085,85 L191,85 L191,50.754577 L186.00085,50.754577 L186.00085,85 Z M186,47.6180231 L190.99915,47.6180231 L190.99915,42 L186,42 L186,47.6180231 Z" id="Fill-2" fill="#F08700"></path>
                    <g id="Group-35">
                        <path d="M202.506067,51.8442937 L209.032067,51.8442937 L209.032067,56.6471347 L202.506067,56.6471347 L202.506067,77.2038869 C202.506067,79.7020679 203.203188,80.150222 206.561458,80.150222 L209.032067,80.150222 L209.032067,84.953063 L204.913469,84.953063 C199.338337,84.953063 197.121476,83.80027 197.121476,77.7159306 L197.121476,56.6471347 L191.544512,56.6471347 L191.544512,51.8442937 L197.121476,51.8442937 L197.121476,43.3793674 L202.506067,43.3793674 L202.506067,51.8442937 Z" id="Fill-3" fill="#F08700"></path>
                        <path d="M232.959604,65.2278959 C232.705856,60.0407905 228.841005,55.8777727 223.518706,55.8777727 C217.880367,55.8777727 214.523013,60.16857 214.141932,65.2278959 L232.959604,65.2278959 Z M238.154571,74.4502395 C236.697122,81.7512616 231.502155,85.7216842 224.152619,85.7216842 C213.69856,85.7216842 208.756425,78.4206621 208.440385,68.3020104 C208.440385,58.3768797 214.902261,51.0758577 223.836578,51.0758577 C235.430214,51.0758577 238.978108,62.0260018 238.662068,70.0307369 L214.141932,70.0307369 C213.952308,75.7947016 217.183246,80.9179172 224.342243,80.9179172 C228.778714,80.9179172 231.882319,78.7410367 232.832272,74.4502395 L238.154571,74.4502395 Z" id="Fill-5" fill="#F08700"></path>
                        <path d="M24.026746,69.8621235 C24.2749978,75.1390449 27.5068518,76.8353635 32.4169248,76.8353635 C35.8979467,76.8353635 39.5035526,75.5797914 39.5035526,72.249192 C39.5035526,68.2917325 33.1625964,67.5380189 26.7611803,65.7148467 C20.4211401,63.8944524 13.7714723,61.0045995 13.7714723,52.7739356 C13.7714723,42.9738066 23.5293263,39.1413487 31.8572131,39.1413487 C40.6834358,39.1413487 49.5719504,43.4765909 49.6333263,53.590613 L38.0726693,53.590613 C38.2595453,49.5081518 34.4679796,48.1877641 30.9255818,48.1877641 C28.4393993,48.1877641 25.3312131,49.0674053 25.3312131,52.019296 C25.3312131,55.475823 31.7335453,56.1036091 38.1972533,57.9258553 C44.5995854,59.7471755 51.0632934,62.762956 51.0632934,70.8676923 C51.0632934,82.2382124 41.4913993,85.8827048 31.7335453,85.8827048 C21.5405635,85.8827048 12.528381,81.3585712 12.4660891,69.8621235 L24.026746,69.8621235 Z" id="Fill-7" fill="#F08700"></path>
                        <path d="M85.4357281,88.9153374 L75.1804544,84.9393591 L75.1804544,80.4800411 L75.0558704,80.4800411 C73.0671077,83.8087886 68.9659142,85.88289 65.2348084,85.88289 C55.9752901,85.88289 53.3022318,80.4800411 53.3022318,71.9354842 L53.3022318,52.3343002 L63.8689653,52.3343002 L63.8689653,71.2438084 C63.8689653,75.5799766 65.7322281,77.0874039 69.0886661,77.0874039 C71.3898047,77.0874039 74.8699106,75.5799766 74.8699106,69.798419 L74.8699106,52.3343002 L85.4357281,52.3343002 L85.4357281,88.9153374 Z" id="Fill-9" fill="#F08700"></path>
                        <path d="M97.8678314,68.2914547 C97.8678314,74.0091226 99.4837584,77.7147269 104.269247,77.7147269 C108.993361,77.7147269 110.608372,72.7516986 110.608372,68.2914547 C110.608372,64.1441779 108.993361,59.5589323 104.331539,59.5589323 C101.473437,59.5589323 97.8678314,61.569144 97.8678314,68.2914547 L97.8678314,68.2914547 Z M87.6748496,52.3347631 L97.7432474,52.3347631 L97.7432474,56.1033313 L97.8678314,56.1033313 C99.9179701,53.025513 103.027072,51.3921581 106.754514,51.3921581 C116.887036,51.3921581 121.175105,60.1867184 121.175105,69.3590614 C121.175105,77.8406545 116.70016,85.8824271 107.564309,85.8824271 C103.584952,85.8824271 100.54089,84.3740739 98.3652511,81.4221831 L98.2406672,81.4221831 L98.2406672,93.8464208 L87.6748496,89.8741463 L87.6748496,52.3347631 Z" id="Fill-11" fill="#F08700"></path>
                        <path d="M137.807611,79.2852106 C142.843184,79.2852106 144.519571,76.3962836 144.272235,69.673047 C142.779976,70.6165779 140.045542,70.8045434 137.746235,71.4332553 C135.38372,71.9980776 133.394958,73.0036464 133.394958,75.5796062 C133.394958,78.2176039 135.446012,79.2852106 137.807611,79.2852106 L137.807611,79.2852106 Z M124.134523,62.385914 C124.320483,58.1145615 126.309246,55.3497102 129.168264,53.6533916 C132.027282,52.0200368 135.757472,51.3922507 139.424454,51.3922507 C147.068045,51.3922507 154.464301,53.0885694 154.464301,62.3238761 L154.464301,76.5842491 C154.464301,79.3481744 154.464301,82.3639548 155.708308,84.9389887 L145.079282,84.9389887 C144.707363,83.9343459 144.582779,82.929703 144.458195,81.8611704 C141.723761,84.7510233 137.683027,85.8825197 133.830085,85.8825197 C127.676921,85.8825197 122.82914,82.7408116 122.82914,76.0194268 C122.82914,65.4016944 134.265213,66.2183719 141.599177,64.7109446 C143.40198,64.3340878 144.394987,63.7053758 144.394987,61.6951642 C144.394987,59.244206 141.474593,58.3025269 139.29987,58.3025269 C136.377644,58.3025269 134.513465,59.6219887 134.016045,62.385914 L124.134523,62.385914 Z" id="Fill-13" fill="#F08700"></path>
                        <polygon id="Fill-15" fill="#6F6F6E" points="110.558446 91.2617571 107.713169 91.2617571 107.713169 99.2155656 105.22607 99.2155656 105.22607 91.2617571 102.379877 91.2617571 102.379877 88.9645047 110.558446 88.9645047"></polygon>
                        <mask id="mask-2" fill="white">
                            <use xlink:href="#path-1"></use>
                        </mask>
                        <g id="Clip-18"></g>
                        <polygon id="Fill-17" fill="#6F6F6E" mask="url(#mask-2)" points="111.225062 99.2151952 113.710328 99.2151952 113.710328 88.9641343 111.225062 88.9641343"></polygon>
                        <polygon id="Fill-19" fill="#6F6F6E" mask="url(#mask-2)" points="115.005452 88.9641343 117.490718 88.9641343 117.490718 96.9179427 121.94093 96.9179427 121.94093 99.2151952 115.005452 99.2151952"></polygon>
                        <polygon id="Fill-20" fill="#6F6F6E" mask="url(#mask-2)" points="122.741015 88.9641343 130.3443 88.9641343 130.3443 91.1039773 125.226282 91.1039773 125.226282 92.8984454 129.903676 92.8984454 129.903676 94.9651392 125.226282 94.9651392 125.226282 96.9179427 130.478045 96.9179427 130.478045 99.2151952 122.741015 99.2151952"></polygon>
                        <path d="M133.951097,96.9177575 L135.125484,96.9177575 C137.010732,96.8751644 137.758235,96.0853392 137.758235,94.0325344 C137.758235,92.1658431 136.823856,91.2621275 135.125484,91.2621275 L133.951097,91.2621275 L133.951097,96.9177575 Z M131.463998,88.9639491 L135.56794,88.9639491 C138.49383,88.9639491 140.245334,90.8741594 140.245334,94.0464234 C140.245334,97.4057269 138.467265,99.21501 135.56794,99.21501 L131.463998,99.21501 L131.463998,88.9639491 Z" id="Fill-21" fill="#6F6F6E" mask="url(#mask-2)"></path>
                        <path d="M147.444179,93.4147485 L149.528212,93.4147485 C150.276631,93.4147485 150.676949,92.9841872 150.676949,92.209177 C150.676949,91.4480559 150.116321,91.1036069 149.421033,91.1036069 L147.444179,91.1036069 L147.444179,93.4147485 Z M144.958912,88.9637639 L149.822266,88.9637639 C151.506898,88.9637639 153.163131,89.7822932 153.163131,91.850839 C153.163131,92.9554831 152.669376,94.0036451 151.665376,94.4203172 L151.665376,94.4480954 C152.682201,94.7073581 152.976255,95.9277445 153.056869,96.9036833 C153.082518,97.3342445 153.122825,98.8416718 153.45627,99.2157508 L150.998485,99.2157508 C150.784128,98.8713018 150.744737,97.865733 150.717255,97.5786922 C150.651299,96.5453452 150.490073,95.4823683 149.328511,95.4823683 L147.444179,95.4823683 L147.444179,99.2157508 L144.958912,99.2157508 L144.958912,88.9637639 Z" id="Fill-22" fill="#6F6F6E" mask="url(#mask-2)"></path>
                        <path d="M158.520058,97.1338715 C160.12316,97.1338715 160.738751,95.6107033 160.738751,94.089387 C160.738751,92.5671447 160.12316,91.0458284 158.520058,91.0458284 C156.916955,91.0458284 156.301364,92.5671447 156.301364,94.089387 C156.301364,95.6107033 156.916955,97.1338715 158.520058,97.1338715 M158.520058,88.7485759 C161.525645,88.7485759 163.224018,91.1180515 163.224018,94.089387 C163.224018,97.0616483 161.525645,99.430198 158.520058,99.430198 C155.513554,99.430198 153.815182,97.0616483 153.815182,94.089387 C153.815182,91.1180515 155.513554,88.7485759 158.520058,88.7485759" id="Fill-23" fill="#6F6F6E" mask="url(#mask-2)"></path>
                        <path d="M168.486681,97.1338715 C170.089784,97.1338715 170.704459,95.6107033 170.704459,94.089387 C170.704459,92.5671447 170.089784,91.0458284 168.486681,91.0458284 C166.883579,91.0458284 166.267072,92.5671447 166.267072,94.089387 C166.267072,95.6107033 166.883579,97.1338715 168.486681,97.1338715 M168.486681,88.7485759 C171.492269,88.7485759 173.189725,91.1180515 173.189725,94.089387 C173.189725,97.0616483 171.492269,99.430198 168.486681,99.430198 C165.480178,99.430198 163.781805,97.0616483 163.781805,94.089387 C163.781805,91.1180515 165.480178,88.7485759 168.486681,88.7485759" id="Fill-24" fill="#6F6F6E" mask="url(#mask-2)"></path>
                        <polygon id="Fill-25" fill="#6F6F6E" mask="url(#mask-2)" points="174.109997 88.9641343 181.138914 88.9641343 181.138914 91.1039773 176.595264 91.1039773 176.595264 93.1993752 180.524238 93.1993752 180.524238 95.2669951 176.595264 95.2669951 176.595264 99.2151952 174.109997 99.2151952"></polygon>
                        <path d="M187.563781,95.7694091 C187.617828,96.9759065 188.3122,97.3629486 189.3675,97.3629486 C190.115919,97.3629486 190.890905,97.0759078 190.890905,96.3147866 C190.890905,95.4101451 189.528726,95.2388465 188.152806,94.8221744 C186.788795,94.4055022 185.358828,93.7443824 185.358828,91.8638021 C185.358828,89.6248837 187.456602,88.7489463 189.247496,88.7489463 C191.144653,88.7489463 193.055551,89.7397001 193.069292,92.0508416 L190.584025,92.0508416 C190.623416,91.1184219 189.808124,90.8156402 189.046879,90.8156402 C188.511901,90.8156402 187.845011,91.0174947 187.845011,91.6925036 C187.845011,92.4814028 189.221846,92.6249232 190.610591,93.0415954 C191.986511,93.4582675 193.377087,94.1471655 193.377087,95.9990417 C193.377087,98.59815 191.31962,99.4305684 189.221846,99.4305684 C187.029719,99.4305684 185.091339,98.3972215 185.078514,95.7694091 L187.563781,95.7694091 Z" id="Fill-26" fill="#6F6F6E" mask="url(#mask-2)"></path>
                        <polygon id="Fill-27" fill="#6F6F6E" mask="url(#mask-2)" points="198.96083 95.3959782 198.96083 99.215473 196.474647 99.215473 196.474647 95.3959782 193.000954 88.9644121 195.820581 88.9644121 197.718654 93.1283558 199.614895 88.9644121 202.434523 88.9644121"></polygon>
                        <path d="M204.531381,95.7694091 C204.584512,96.9759065 205.2798,97.3629486 206.3351,97.3629486 C207.083519,97.3629486 207.858505,97.0759078 207.858505,96.3147866 C207.858505,95.4101451 206.496326,95.2388465 205.11949,94.8221744 C203.756395,94.4055022 202.326428,93.7443824 202.326428,91.8638021 C202.326428,89.6248837 204.424202,88.7489463 206.215096,88.7489463 C208.112253,88.7489463 210.023151,89.7397001 210.036892,92.0508416 L207.550709,92.0508416 C207.591016,91.1184219 206.775724,90.8156402 206.014479,90.8156402 C205.479501,90.8156402 204.811695,91.0174947 204.811695,91.6925036 C204.811695,92.4814028 206.189446,92.6249232 207.578191,93.0415954 C208.954111,93.4582675 210.344687,94.1471655 210.344687,95.9990417 C210.344687,98.59815 208.286304,99.4305684 206.189446,99.4305684 C203.996403,99.4305684 202.058939,98.3972215 202.045198,95.7694091 L204.531381,95.7694091 Z" id="Fill-28" fill="#6F6F6E" mask="url(#mask-2)"></path>
                        <polygon id="Fill-29" fill="#6F6F6E" mask="url(#mask-2)" points="218.640878 91.2617571 215.794685 91.2617571 215.794685 99.2155656 213.308503 99.2155656 213.308503 91.2617571 210.461393 91.2617571 210.461393 88.9645047 218.640878 88.9645047"></polygon>
                        <polygon id="Fill-30" fill="#6F6F6E" mask="url(#mask-2)" points="219.307311 88.9641343 226.910596 88.9641343 226.910596 91.1039773 221.792577 91.1039773 221.792577 92.8984454 226.469055 92.8984454 226.469055 94.9651392 221.792577 94.9651392 221.792577 96.9179427 227.043424 96.9179427 227.043424 99.2151952 219.307311 99.2151952"></polygon>
                        <polygon id="Fill-31" fill="#6F6F6E" mask="url(#mask-2)" points="228.043851 88.9641343 231.705337 88.9641343 233.348746 95.7984835 233.375311 95.7984835 235.019636 88.9641343 238.681122 88.9641343 238.681122 99.2151952 236.342424 99.2151952 236.342424 91.4336113 236.315859 91.4336113 234.311523 99.2151952 232.414366 99.2151952 230.41003 91.4336113 230.382549 91.4336113 230.382549 99.2151952 228.043851 99.2151952"></polygon>
                        <polygon id="Fill-32" fill="#B2B2B1" mask="url(#mask-2)" points="201.811878 16.0030811 183.967977 16.0030811 157.821838 40.2728451 175.673984 40.2728451"></polygon>
                        <polygon id="Fill-33" fill="#6F6F6E" mask="url(#mask-2)" points="183.960373 16.0112293 186.246855 30.4567899 201.811603 16.0028959"></polygon>
                        <polygon id="Fill-34" fill="#B2B2B1" mask="url(#mask-2)" points="201.811878 16.0030811 183.967977 16.0030811 217.403192 48.1516525 235.247093 48.1516525"></polygon>
                    </g>
                </g>
            </g>
        </g>
    </g>
</svg>