<svg data-name="Layer 1" xmlns="http://www.w3.org/2000/svg" viewBox="0 0 1097.22 339.48">
  <title>
    logo
  </title>
  <path d="M363.7,195.88V21.48h22.42v175c0,16.2,6.23,22.43,22.43,22.43h62.9c16.2,0,22.43-6.23,22.43-22.43v-175H516.3v174.4c0,29.59-14,43.6-43.6,43.6H407.3C377.71,239.48,363.7,225.47,363.7,195.88Z" fill="#13474f"/>
  <path d="M704.09,239.48,630.28,125.81l-46.71,52.32v61.35H561.15v-218h22.42v128l112.11-128H723.4L644.92,109.3l85.33,130.18Z" fill="#13474f"/>
  <path d="M780.31,21.37h29.41c8,0,11.8,3.79,11.8,11.8v35.4c0,8-3.79,11.8-11.8,11.8H780.31Zm29.07,53.44c4.39,0,6.07-1.69,6.07-6.07V33c0-4.38-1.68-6.07-6.07-6.07h-23V74.81Z" fill="#13474f"/>
  <path d="M833.65,68.91V46.32c0-7.76,3.71-11.46,11.46-11.46h12.56c7.75,0,11.46,3.7,11.46,11.46V68.91c0,7.75-3.71,11.46-11.46,11.46H845.11C837.36,80.37,833.65,76.66,833.65,68.91Zm23.85,6.23c4.22,0,5.9-1.68,5.9-5.9V46c0-4.21-1.68-5.9-5.9-5.9H845.28c-4.21,0-5.9,1.69-5.9,5.9V69.24c0,4.22,1.69,5.9,5.9,5.9Z" fill="#13474f"/>
  <path d="M880.84,69.33V34.86h5.73v34.8c0,4.22,1.61,5.9,7.34,5.9,7.24,0,11-1.93,15.93-5.47V34.86h5.73V80.37h-5.73V74.22c-4.47,3.79-8,6.57-16,6.57C884.55,80.79,880.84,77.08,880.84,69.33Z" fill="#13474f"/>
  <path d="M934.44,74.13v6.24h-5.73V18.84h5.73V41.09c4.47-3.79,8-6.57,16.69-6.57,9.94,0,13.65,3.71,13.65,11.46V69.24c0,7.76-3.71,11.47-13.65,11.47C942.45,80.71,938.91,77.92,934.44,74.13Zm24.61-4.55V45.64c0-4.21-1.68-5.9-8-5.9-7.92,0-11.63,1.94-16.6,5.48V70c5,3.54,8.68,5.48,16.6,5.48C957.37,75.48,959.05,73.79,959.05,69.58Z" fill="#13474f"/>
  <path d="M977.42,18.84h5.73V80.37h-5.73Z" fill="#13474f"/>
  <path d="M1001.52,58.79V69.41c0,4.22,1.69,5.9,5.9,5.9h11.63c4.21,0,5.9-1.68,5.9-5.9V66.12h5.73v2.79c0,7.75-3.71,11.46-11.46,11.46h-12c-7.75,0-11.46-3.71-11.46-11.46V46.32c0-7.76,3.71-11.46,11.46-11.46h12c7.75,0,11.46,3.7,11.46,11.46V58.79Zm0-13v8.26H1025V45.81c0-4.21-1.6-5.9-5.9-5.9h-11.63C1003.21,39.91,1001.52,41.6,1001.52,45.81Z" fill="#13474f"/>
  <path d="M778.93,145.86v-34c0-7.7,3.65-11.35,11.35-11.35h17.43c7.7,0,11.35,3.65,11.35,11.35v5.35h-5.84v-5.51c0-4.22-1.62-5.84-5.84-5.84H790.6c-4.21,0-5.83,1.62-5.83,5.84V146c0,4.21,1.62,5.83,5.83,5.83h16.78c4.22,0,5.84-1.62,5.84-5.83V133.14H798.39v-5.35h20.67v18.07c0,7.7-3.65,11.35-11.35,11.35H790.28C782.58,157.21,778.93,153.56,778.93,145.86Z" fill="#13474f"/>
  <path d="M832,98h5.51v59.17H832Z" fill="#13474f"/>
  <path d="M849,144.57c0-9.08,3.57-11.6,11-12.33,4-.4,10.22-.89,17.35-1.21v-7c0-4.06-1.62-5.68-5.67-5.68h-10c-4.06,0-5.68,1.62-5.68,5.68v1.21h-5.51v-.73c0-7.45,3.57-11,11-11h10.38c7.46,0,11,3.57,11,11v32.75h-5.51v-6c-3.65,4.3-7.7,6.33-15.64,6.33C852.53,157.54,849,153.64,849,144.57Zm28.37,2.83V134.84l-17.18,1.94c-4.06.49-5.68,1.63-5.68,7.79s1.62,8.1,7.3,8.1C869,152.67,872.55,150.81,877.33,147.4Z" fill="#13474f"/>
  <path d="M892,153.81l23.83-35.67h-22.7v-4.7h29.51v3.4l-23.91,35.67h23.58v4.7H892Z" fill="#13474f"/>
  <path d="M932.28,99.66h6.32v7.13h-6.32Zm.41,13.78h5.51v43.77h-5.51Z" fill="#13474f"/>
  <path d="M951.33,113.44h5.51v5.92c4.3-3.65,7.7-6.33,15.4-6.33,8.92,0,12.48,3.57,12.48,11v33.15h-5.51V123.73c0-4-1.54-5.67-7.05-5.67-7,0-10.54,1.86-15.32,5.27v33.88h-5.51Z" fill="#13474f"/>
  <path d="M1000.69,165.32h18.8c4.06,0,5.68-1.62,5.68-5.68v-9.56c-4.3,3.65-7.7,6.32-16.05,6.32-9.57,0-13.13-3.57-13.13-11V124.14c0-7.46,3.56-11,13.13-11,8.35,0,11.75,2.68,16.05,6.33v-6h5.51v45.72c0,7.46-3.57,11-11,11h-19Zm24.48-19.21v-22.7c-4.78-3.41-8.35-5.27-16-5.27-6.08,0-7.7,1.62-7.7,5.67V145.7c0,4.05,1.62,5.67,7.7,5.67C1016.82,151.37,1020.39,149.51,1025.17,146.11Z" fill="#13474f"/>
  <path d="M818.73,239.41h-6.11L800.7,217.33H785.81v22.08h-5.5V185.94h26c7.26,0,10.7,3.43,10.7,10.69v10c0,7.1-3.29,10.54-10.24,10.69Zm-12.68-27.12c4,0,5.5-1.53,5.5-5.5V196.48c0-4-1.53-5.5-5.5-5.5H785.81v21.31Z" fill="#13474f"/>
  <path d="M832.09,219.85v9.63c0,3.82,1.53,5.34,5.35,5.34H848c3.82,0,5.35-1.52,5.35-5.34v-3h5.19V229c0,7-3.36,10.39-10.39,10.39H837.29c-7,0-10.39-3.36-10.39-10.39V208.55c0-7,3.36-10.39,10.39-10.39h10.84c7,0,10.39,3.36,10.39,10.39v11.3Zm0-11.76v7.49h21.24v-7.49c0-3.82-1.45-5.35-5.35-5.35H837.44C833.62,202.74,832.09,204.27,832.09,208.09Z" fill="#13474f"/>
  <path d="M869.21,198.16h5.19v5.65c4.05-3.44,7.26-6,15.13-6,9,0,12.37,3.36,12.37,10.39v21.08c0,7-3.36,10.39-12.37,10.39-7.87,0-11.08-2.52-15.13-6v17.87h-5.19Zm27.5,31.47V207.94c0-3.82-1.53-5.35-7.26-5.35-7.18,0-10.54,1.76-15.05,5V230c4.51,3.21,7.87,5,15.05,5C895.18,235,896.71,233.45,896.71,229.63Z" fill="#13474f"/>
  <path d="M911.29,227.49c0-8.55,3.36-10.92,10.39-11.61,3.74-.38,9.63-.84,16.35-1.14v-6.65c0-3.82-1.53-5.35-5.35-5.35h-9.47c-3.82,0-5.35,1.53-5.35,5.35v1.15h-5.19v-.69c0-7,3.36-10.39,10.39-10.39h9.77c7,0,10.39,3.36,10.39,10.39v30.86H938v-5.65c-3.44,4-7.26,6-14.74,6C914.65,239.71,911.29,236.05,911.29,227.49ZM938,230.17V218.33l-16.19,1.83c-3.83.46-5.35,1.53-5.35,7.33s1.52,7.64,6.87,7.64C930.16,235.13,933.52,233.37,938,230.17Z" fill="#13474f"/>
  <path d="M954.83,185.17h6v6.73h-6Zm.38,13h5.19v41.25h-5.19Z" fill="#13474f"/>
  <path d="M972.78,198.16H978v6c3.67-3.06,7.18-6,13.14-6H994v5h-2.9c-5.27,0-9.09,2.22-13.14,4.81v31.4h-5.19Z" fill="#13474f"/>
  <path d="M999.36,227.49V227h5v.84c0,5.34,1.52,6.87,5.34,6.87h10.39c3.82,0,5.35-1.53,5.35-7.18,0-4.81-1.53-5.57-4.74-6.11l-12-2c-6-1-8.86-3.43-8.86-9.85,0-8,3.36-11.38,10.39-11.38h9c7,0,10.39,3.36,10.39,11.15v.61h-5V209c0-4.59-1.53-6.11-5.35-6.11h-8.86c-3.82,0-5.34,1.52-5.34,6.41,0,4.13,1.52,4.89,4.73,5.43l12,2c6,1,8.86,3.44,8.86,10.54,0,8.79-3.36,12.15-10.38,12.15h-10.55C1002.72,239.41,999.36,236.05,999.36,227.49Z" fill="#13474f"/>
  <path d="M73.68,263.48l5-13,1-12.56,8.59-56.85,48.43-16.59s12-51,10-53-26-9-26-9l-24,6-10-7L89,58.3l12.66-33.82,18-16,22-4L156.9,33.9l11.78,47.58,9,25L210,117.26l14.67,23.22,18,19,21,8,28,26,4,6-13,21-37,43-73,31-46.87-6.07L96.68,309.48l-20,4-21.85-7Z" fill="#fff"/>
  <g>
    <path d="M238.9,196.61l37.28,17.94c4.65,4.21-4.87,13.48,5.58,15.6,35.59,10.77,35.67,11.12,6.7,38.15-1.6,1.49-4.14,2-6.24,2.94-15.08,5.77-30.48,8.4-46.53,5a35,35,0,0,1-9.8-3.91c-5.07-2.92-10.17-5.88-16.37-3.51a20.14,20.14,0,0,0-3,4.23,50,50,0,0,1-2.12,5,9.85,9.85,0,0,1-3.92,3.89l-2.86.11a19,19,0,0,1-5-2.89c-6-4.86-13.65.69-19.72-3.3-1.71-36.32-3.42-72.65-5.25-111.47,22,7.8,40.28,15.65,57.25,26.42a8,8,0,0,0,3,5.91,9.83,9.83,0,0,0,6.62,1.79A17.2,17.2,0,0,0,238.9,196.61Z" fill="#458ada"/>
    <path d="M211,120.25c1.44,1.62,2.88,3.23,4.31,4.85-.5,14.59-9.85,15.38-21.83,16.8-13.1,1.54-30.14-10.32-39.1,9.14,2.79,25.7,4.17,51.35-2.66,76.72-3.45,6-9.24,8.61-15.32,10.9-11.2,3.39-22.38,7.43-34.13,2.1a20.86,20.86,0,0,1-9.22-12c-2.16-10.72-3-21.37,2.37-31.48,6.33-1.85,8.51-5,2.91-10.34-1.37-5.68-.3-10.72,3.71-15,2.25-12.37,6.49-22.63,22-21.63,6.71.44,9.24-3.87,10.09-9.72-1.21-10.14-6.79-17.91-13.59-25l.23.66c-3.15-4.26-4.56-8.82-2.41-14,2.94-9.38.07-19.81,5.19-28.81,4.13-5,9.89-6.75,15.87-8.09,4.75-.34,9.2.09,11.71,5,5.12,13.41-3.83,29.4,7.59,41.69,4.21,1.56,8.82,1.17,13,2.76C185,116.05,198.35,115.63,211,120.25Z" fill="#d80000"/>
    <path d="M136.27,233.06l15.48-5.3c3.68.33,4.2,2.39,3,5.41-5.24,11.52-7.23,23.53-4.52,36,1.22,5.61,2.51,10.82-3.65,14.38-10.75,5.33-25.31,1.27-33.27,13.53-5.8,7.08-7.42,19.26-20.8,17.06l-1.73.16L89,314c-3.86-1.3-5.46-4-5-8q5.28-29.16,10.54-58.32c2.91-4.15,7.29-4.55,11.78-4.63C118.11,245.1,129.31,245.46,136.27,233.06Z" fill="#d40000"/>
    <path d="M84,30.81c5.66-2.38,11.37-4.64,17-7.15,10.15-4.52,12.74,1.05,11.7,9.42-2.08,16.78-4.72,33.5-7.47,50.19C103.31,94.54,96,93.68,87.88,90.33a9.17,9.17,0,0,1-2.26-5.25c.31-5.79,2.56-11.18,3.56-16.81,1-5.82-1.29-10.84-3.93-15.77a29.89,29.89,0,0,1-3.51-7.9C82.59,40,81.11,35.06,84,30.81Z" fill="#4387db"/>
    <path d="M101.9,194.81c-6.4,10.16-3.2,21.92-5.45,32.77-3.77,11-9.3,7-15,1.8A25,25,0,0,1,78.27,220c-.6-6.38-2.29-12.8.38-19.12l4.85-10.22c3.54-4.91,4.87-11.2,9.5-15.46a13.9,13.9,0,0,1,5.12-3.27c1.31,0,2.63,0,3.95,0q.2,9.54.38,19.08c1.41,1.06,1.79,2,1.16,2.75A2.32,2.32,0,0,1,101.9,194.81Z" fill="#dcdde1"/>
    <path d="M21.74,313.37l38.1-32.87c7.31,2.05,9.07,8,10.16,14.45l.19,8.49c-3.8,5.3-11.18,6-14.84,11.43a118.72,118.72,0,0,1-23.44,5.27C27.61,319.24,23.94,317.4,21.74,313.37Z" fill="#498adb"/>
    <path d="M276.77,176.35c7.08,6.19,22.41,5.66,18,23.26l-50.9-23.42c-2.57-5,1.79-6.29,4.58-8.4l8.54,0C264.22,169.21,271.72,170,276.77,176.35Z" fill="#d40900"/>
    <path d="M229.58,271l52.64.28c-13.82,19.46-34.38,11.95-52.75,13.21-6.38-2.65-8.84-7-5.73-13.61C225.72,269.14,227.67,269.19,229.58,271Z" fill="#335b8a"/>
    <path d="M248.46,167.79q-2.29,4.2-4.58,8.4L190.6,153.86C213.17,148,231.29,156.21,248.46,167.79Z" fill="#d32729"/>
    <path d="M126,72.59c-.12,10.11.56,20.35-5.23,29.45a3,3,0,0,1-4.4-1.43C110.32,79.74,117.59,60,121.53,40a4.34,4.34,0,0,1,5.93.4c3.94,6.09,3.93,12.6,2,19.28C124.57,62.93,128,68.48,126,72.59Z" fill="#d70000"/>
    <path d="M154.41,151c1.23-18.13,15.26-11,24.52-11.8,13.74-1.14,29.33,3.77,36.41-14.14l12.43,17.21c-18.7,0-35,0-51.24,0C168,142.27,158.83,140.66,154.41,151Z" fill="#d70000"/>
    <path d="M32,319c6.79-5,13.44-10.53,22.79-6.34A5.87,5.87,0,0,1,56.2,320c-4.08,3.3-9.46,5.82-12,10-10.13,16.75-17.11,8.05-24.31-2.23C22.51,323,26.74,320.27,32,319Z" fill="#1f354e"/>
    <path d="M111.65,294.68c4.95-18.26,20.29-12,32.29-13.7,6,2.56,9.89,6.25,7,13.45-11.66.1-23.54-1.24-34.31,5A5.59,5.59,0,0,1,111.65,294.68Z" fill="#580b08"/>
    <path d="M80.83,24.48l.84,5c-2.17,6.45-5.14,12.7-4.93,19.76A14.86,14.86,0,0,1,74.93,55a19.79,19.79,0,0,1-5,3.6c-5.66,2.21-10.91,5.94-17.48,5a2.68,2.68,0,0,1-2.34-3.44,10.58,10.58,0,0,1-1.59-5.62c.84-4.2,4.77-7.82,2.51-12.67-.29-.81-.55-1.63-.8-2.44L63.74,27.18C68.66,21.37,74.66,22.4,80.83,24.48Z" fill="#576577"/>
    <path d="M107,115.59c-6,2.65-2.24,17.31-12.18,12.59-6.59-3.14-11.09-12.31-8-21.7-.37-4.63,1.67-6.58,6.29-5.67l14.42,1.82C111.16,107.1,110.53,111.4,107,115.59Z" fill="#694f53"/>
    <path d="M73.19,96.23c-.51,5.91-6.49,7.43-9.78,8.35-9.08,2.54-19.53-1.12-24.1-7.63-8-11.49,3.09-9,9.18-8.66,3,.19,5.84,2.31,8.74,2.27,1.76,0,3.49-2.5,5.24-3.87a6.49,6.49,0,0,1,4.71.16,30.37,30.37,0,0,1,4.39,2.26A11.9,11.9,0,0,1,75,92.7C75.66,94.52,75.11,95.73,73.19,96.23Z" fill="#cc4e53"/>
    <path d="M78.65,200.85c4.54,5.41,6.33,11.41,3.91,18.31-3.55,4.38-7.69,7.74-13.69,7.93a20,20,0,0,1-6.53-1.28c-5.54-3.65-12.59-6.63-7.28-15.4Z" fill="#3f7ed4"/>
    <path d="M151,294.43q-3.51-6.74-7-13.46c5.65-15.46-6.94-35.05,10.77-47.8l1.59,51.57c1.29,4.06.55,7.54-2.91,10.26l-1.31.18Z" fill="#cf0000"/>
    <path d="M56.2,320q-.71-3.69-1.42-7.38c-2.59-16,11.36-4.33,15.41-9.21L84,306q2.47,4,5,8Z" fill="#3a536c"/>
    <path d="M125.11,31.4c-7.3-16.95,8.39-20.3,17-26.86,3.56-2.72,9.42,0,5.45,7-3.39,5.94-5.47,13-12.72,15.81C132.58,31.1,129.82,33.58,125.11,31.4Z" fill="#6b0000"/>
    <path d="M62.63,86.16l-.16.53c-10.63-3-7-11.47-7.15-18.5,4-5,9.21-8.81,13.88-13.16a33.39,33.39,0,0,1,4.23-.48c3.5.41,5.73,2.52,7.31,5.5a12.83,12.83,0,0,1-.28,9.4c-3.22,5.54-7.6,10.16-12,14.74A8.81,8.81,0,0,1,62.63,86.16Z" fill="#1d3b63"/>
    <path d="M25.54,115.65c12-10.19,25.77-2.48,38.63-3.87,2,6.32-2.38,9.07-6.58,12a25.53,25.53,0,0,1-11.51,3.47c-7.14-.21-14.27-.57-20-5.81A6.21,6.21,0,0,1,25.54,115.65Z" fill="#d60000"/>
    <path d="M169,116l-15-.75c-3.88-12.83-3.15-25.9-1.95-39l1.65-3.6c.57.52,1.7,1.14,1.63,1.56-5.8,34.69,14.94,41.26,42.72,40.4C188.57,120,178.77,118.13,169,116Z" fill="#d70000"/>
    <path d="M111.65,294.68l5,4.75c-3.08,6.28-5.27,13.24-9.44,18.68-7,9.17-12.8,8.28-14.76-4C101.84,310.57,105.66,301.56,111.65,294.68Z" fill="#4c1311"/>
    <path d="M82.22,228.86c5.07,3.2,9.93,4.1,14.23-1.28l6.22,9.23c1.42,3.4,6.84,5,4.5,10.11l-12.6.72c-5.24-6.89-11.72-11.4-20.83-10.86C73.71,231.08,76.41,228.31,82.22,228.86Z" fill="#4a4b4c"/>
    <path d="M150.1,72.77c-1.91-4-5.55-5.13-9.52-5.71a7.13,7.13,0,0,1-2-5.79c1.06-5.39,2.13-10.79,7.16-14.18,4.47-1.86,8.67-1.52,12.49,1.62,4.53,9.15-7,15.25-4.57,24l-.77.85Z" fill="#581916"/>
    <path d="M32,319c-.49,7.79-5.23,9.78-12.11,8.86-6.27.14-10.86-4.33-10.68-9,.29-7.45,7.71-4.84,12.54-5.45C26.05,313.61,29.92,314.64,32,319Z" fill="#468ae6"/>
    <path d="M26.73,120.55l19.19,3.88c4.31,2.9,8.09,6,4.09,11.77-9.47,4.39-15.57-3.35-23-6.38C23.93,126.83,24.3,123.72,26.73,120.55Z" fill="#5d1411"/>
    <path d="M70,295c-5.93-3-7.14-9.37-10.16-14.44C63.39,276,67,271.46,73.4,263.25,74.54,277.1,74.64,286.17,70,295Z" fill="#396fcd"/>
    <path d="M26.73,120.55l.3,9.27c-8-.25-18.2,11.57-23.28-4.31,1.81-7.56,8.88-7.19,14.21-9.45l7.58-.42C25.94,117.28,26.33,118.91,26.73,120.55Z" fill="#3e1313"/>
    <path d="M281.76,230.15c-4.14,1.53-11.31,5.17-11.95,4.25-6.13-8.76,5.29-12.71,6.37-19.85C293.1,214.36,285.42,223,281.76,230.15Z" fill="#3f6797"/>
    <path d="M120.56,115.56c12.09,4.24,22.57,9.35,13.59,25C126.79,133.78,119.91,126.72,120.56,115.56Z" fill="#550f10"/>
    <path d="M153.39,295q1.46-5.13,2.9-10.26l15.78,4.74q4.13-2.43,6.72,1.61C172.44,306.15,162.43,297.38,153.39,295Z" fill="#4b6780"/>
    <path d="M201.25,280a19.23,19.23,0,0,1-.16-3.94c13.19-9.27,17.78,1.48,23.34,10l-12,3.93C202.43,293.79,197.13,292.2,201.25,280Z" fill="#3a70aa"/>
    <path d="M74.1,49.5c-8.84-11,.33-15.15,7.56-20.06A2,2,0,0,1,84,30.8c1.51,4.73,2.5,9.43-.47,14a8.65,8.65,0,0,1-4.74,6.33A4.11,4.11,0,0,1,74.1,49.5Z" fill="#315f92"/>
    <path d="M55.45,120.59q4.36-4.4,8.72-8.81c14.08,14.42,1.39,18.79-9,24C51.67,130.66,51.34,125.59,55.45,120.59Z" fill="#290200"/>
    <path d="M178.79,291.09l-6.72-1.61c.39-3,.77-6,1.16-9,7.7-5,15.55-5.91,23.59-.8l-.72,1.51c4.07,5.73,3.53,9.24-4.42,9.18Z" fill="#0c2038"/>
    <path d="M224.43,286.1c-8.9-.73-12.41-14-23.34-10,0-1.87,0-3.75-.05-5.62,8.13-4.55,16-6.29,23.17,1.83q2.63,6.07,5.26,12.14Z" fill="#1c3756"/>
    <path d="M196.82,279.66l-23.59.8-.33-4.57C181,276.67,192.14,257.51,196.82,279.66Z" fill="#488fe6"/>
    <path d="M107,115.59q.26-6.48.5-13l8.91-2c1.46.5,2.92,1,4.4,1.43v14.18Z" fill="#2b0201"/>
    <path d="M8.11,101.52c9.27-6,15.72-7.49,20.66,2.18C22.15,106.84,16,107.78,8.11,101.52Z" fill="#92c3e7"/>
    <path d="M82.22,228.86c-4.68.66-7,3.89-8.48,7.92l-9.18,1.14c-3.47-6.23.92-9.46,4.89-12.86,4.13-2.5,7.55-6.6,13.12-5.9C82.45,222.39,82.33,225.63,82.22,228.86Z" fill="#071528"/>
    <path d="M169,116,198,114.67c5.55-1,11.32-2.44,13,5.58C197.1,118,182.26,124.7,169,116Z" fill="#c90000"/>
    <path d="M69.2,55c-.78,8.45-5.37,12.87-13.88,13.16l-2.84-4.6C57.44,59.52,61.19,53.12,69.2,55Z" fill="#243854"/>
    <path d="M276.77,176.35c-7.28-1.23-14.34-3-19.77-8.53C267.27,162.15,274.92,162.53,276.77,176.35Z" fill="#ecd6dc"/>
    <path d="M98.12,171.9q-.69,2.44-1.36,4.87c-6.17,1-9.34,6.12-13.61,9.74-4.94-5.77-7.42-12.06-.46-17.65C88.36,164.3,94,165.72,98.12,171.9Z" fill="#304152"/>
    <path d="M125.11,31.4l9.71-4,4.84,4.1a6.27,6.27,0,0,1,1.75,6.63c-4.48,6.42-9.76,6.4-15.6,2L121.53,40Q123.32,35.69,125.11,31.4Z" fill="#e50000"/>
    <path d="M83.15,186.51c1.28-7.8.32-18.72,13.61-9.74-1.25,7.66-6.3,11.67-13.26,13.86A13.94,13.94,0,0,1,83.15,186.51Z" fill="#020717"/>
    <path d="M191.68,290.35c3.47-2.1,4.68-5.28,4.42-9.18l5.15-1.13c.12,7.39,4.43,10.09,11.23,10C205.8,306.09,198.71,296.15,191.68,290.35Z" fill="#294e7b"/>
    <path d="M55.06,210.41c-.44,7.1,7.34,8.69,9.45,14.08-.48,8.19-4.61,7.28-9.73,3.9C51,222.33,45.9,216.26,55.06,210.41Z" fill="#3c6fae"/>
    <path d="M80.83,24.48q-8.55,1.35-17.09,2.7c-2-10,7.4-8.07,11.8-9.89S80.52,20.86,80.83,24.48Z" fill="#c33a45"/>
    <path d="M158.24,48.71l-13.3,1.75c-3.21-5.93-3.63-11.67,1.12-17.08,9.72-2,9.66,6.12,12.15,11.63A3.18,3.18,0,0,1,158.24,48.71Z" fill="#e50000"/>
    <path d="M54.78,228.39l9.73-3.9,4.95.57q-2.46,6.44-4.9,12.86C56.13,240.05,54.21,235.5,54.78,228.39Z" fill="#243447"/>
    <path d="M168.31,3.7c-1.44,2.34-2.22,5.23-3.64,5.59-3.77,1-5.25-2.09-4.85-5.17.2-1.6,2.29-3.95,3.73-4.11S166.49,2.18,168.31,3.7Z" fill="#eaebeb"/>
    <path d="M178,92.63c-2.11,1.05-4.05,2.86-5.93,2.8-6-.18-4.22-5.31-4.44-8.65-.11-1.72,1.7-3.57,2.64-5.36Z" fill="#6aa1db"/>
    <path d="M93.06,100.81c-3.65.16-5.26,2.6-6.29,5.67l-8-9.41c0-.93,0-1.85.06-2.78a13,13,0,0,1,3.33-7.54,5,5,0,0,1,5.2-.22,10.06,10.06,0,0,1,.53,3.8Q90.48,95.57,93.06,100.81Z" fill="#bdbdbd"/>
    <path d="M158.21,45c-4.4-3.13-5.86-10.54-13.34-9.2-1.81,1.63-3.44,1.39-4.93-.46-.1-1.3-.2-2.6-.28-3.9C149.65,30.76,161,28.18,158.21,45Z" fill="#ce1b1d"/>
    <path d="M18,116.06,3.75,125.5c-1.27-4.22-4.87-10.81-3.4-12.26C6.5,107.16,11.39,118.12,18,116.06Z" fill="#c70400"/>
    <path d="M50.8,54.29l-.66,5.86c-14.82-7-5.59-13.85.12-20.73a1.8,1.8,0,0,0,.06,3C54.41,46.22,53.28,50.23,50.8,54.29Z" fill="#152f4b"/>
    <path d="M55.45,120.59q-.14,7.6-.29,15.21c-1.46,3.56-3.22,3.1-5.15.4l-4.1-11.76Z" fill="#7b0c0e"/>
    <path d="M220.13,195.55l4.77-4.71,14,5.77c0,1.2,0,2.41,0,3.62C230.86,205.81,226.09,198.3,220.13,195.55Z" fill="#3e7ad3"/>
    <path d="M73.19,96.23l.62-1.38-1.14-1c-.11-1-.22-2-.34-3a8.38,8.38,0,0,1,5.83-.44c1.28,1,1.74,2,1.37,3.11s-.76,1.63-1.17,1.63l-.56,1.12,1,.8Z" fill="#030203"/>
    <path d="M224.21,272.31,201,270.48c.08-1.47.2-2.94.34-4.41,7.87-2.94,15.71-3.45,23.49.29l4.71,4.6Z" fill="#3e7dc9"/>
    <path d="M224.87,266.36l-23.49-.29C209.3,259.46,217.13,259.33,224.87,266.36Z" fill="#478de6"/>
    <path d="M220.13,195.55l18.76,4.68C230,209.38,224.85,203.24,220.13,195.55Z" fill="#4487e1"/>
    <path d="M107.17,246.92l-4.5-10.1c11.8,4.18,22.67,0,33.59-3.76C136.53,258.59,120.44,249.79,107.17,246.92Z" fill="#3b0404"/>
    <path d="M150.1,72.77a9.11,9.11,0,0,1,2.81.78q.53,20.88,1.06,41.75C145.19,101.8,145.81,87.46,150.1,72.77Z" fill="#d50000"/>
    <path d="M140.77,64.28a7.93,7.93,0,0,1-.2,2.79c-3.12,6.38-8.9,5.78-14.55,5.53-.57-3-5.35-5.84-.17-8.92C131,59.75,136,59.25,140.77,64.28Z" fill="#a40000"/>
    <path d="M101.9,194.81a3.23,3.23,0,0,1,.55-3.8c4.11,2.27,8.46,4.5,7.1,10.33-.17.71-3.51,1.53-3.69,1.24A75.61,75.61,0,0,1,101.9,194.81Z" fill="#cf0000"/>
    <path d="M87.35,86.53,83,87.64a6.31,6.31,0,0,1-5,1.8l-2.77-.28-2.61-.93a22.13,22.13,0,0,1-4.72-2.83,24.61,24.61,0,0,1-3.71-4.06c3.49-5.62,7.65-10.54,14-13.07,4.79-3.64,9.56-4.2,14.28.13C93.78,75.3,91.6,81.2,87.35,86.53Z" fill="#2f5f97"/>
    <path d="M92.5,68.4l-14.28-.13.6-9.36L79,56.18a15.81,15.81,0,0,1,2.22-5c1.78-2.1,3.51-4.33,6.61-2C93.14,54.71,96.93,60.56,92.5,68.4Z" fill="#3d7bc3"/>
    <path d="M87.86,49.22,83.39,54a4,4,0,0,1-5.44.67q-2-3,.87-5.15l4.68-4.7Z" fill="#4a91f0"/>
    <path d="M140.77,64.28l-14.92-.6q0-11.82,0-23.65c5.16-.21,10.73.81,14.13-4.68l4.92.46c3.41,4.86,1.77,9.75.08,14.64C145,55.49,145.08,60.55,140.77,64.28Z" fill="#d70000"/>
    <path d="M50.8,54.29l-.48-11.87c3.12-2.77,8.61-3.78,9.62-.77C62.23,48.53,55.72,51.32,50.8,54.29Z" fill="#2e2e32"/>
    <path d="M78.82,49.49a31.48,31.48,0,0,1-.16,4.45c1.2,1.15,1.6,2.28,1.19,3.42s-.81,1.7-1.22,1.7l.19-.15-5.39-4.37c.22-1.68.44-3.36.67-5Z" fill="#356ba9"/>
    <path d="M64.2,81.34l5.17,1.34a8.12,8.12,0,0,1,2,5.33,10.88,10.88,0,0,1-3.16,4.86q-2.79-3.36-5.6-6.71Z" fill="#656b6b"/>
    <path d="M68.24,92.87q.87-2.81,1.75-5.61l3,.1,1.59-.23c1.15,1.17,1.49,2.28,1,3.35S74.67,92,74.25,92a2.52,2.52,0,0,0-1.57,1.81A7.49,7.49,0,0,0,68.24,92.87Z" fill="#fdfdfd"/>
    <path d="M78.89,87.88A9.51,9.51,0,0,1,83,87.64c-.56,3.12.65,7.32-4.64,7.51.18-.78.33-1.57.45-2.36-1.47-1.12-1.94-2.22-1.43-3.3S78.39,87.88,78.89,87.88Z" fill="#030203"/>
    <path d="M78.89,87.88l-.09,4.9A10.88,10.88,0,0,0,74.25,92c.1-1.63.2-3.27.31-4.9A9.75,9.75,0,0,1,78.89,87.88Z" fill="#2f2a2b"/>
    <path d="M73,87.36l-1.49-.1H70a10.08,10.08,0,0,1-.61-4.58C72.56,82.71,73.71,84.31,73,87.36Z" fill="#daf0f9"/>
    <path d="M78.63,59.06l0-5.12,4.73,0C81.81,55.67,80.22,57.36,78.63,59.06Z" fill="#1a3866"/>
  </g>
  <path d="M1048.39,211.67h2.84v25.07h13.68v2.61h-16.52Z" fill="#13474f"/>
  <path d="M1068.79,234v-13.6h-3.17V218h3.17v-5.14h2.69V218h5.33v2.38h-5.33v13.76c0,2,.79,2.77,2.76,2.77h2.57v2.45h-2.65C1070.53,239.35,1068.79,237.61,1068.79,234Z" fill="#13474f"/>
  <path d="M1080.29,234.13V223.21c0-3.63,1.74-5.37,6.41-5.37,4.07,0,5.73,1.3,7.83,3.08V210.48h2.69v28.87h-2.69v-2.93c-2.1,1.78-3.76,3.09-7.83,3.09C1082,239.51,1080.29,237.77,1080.29,234.13Zm14.24.35V222.86a11.51,11.51,0,0,0-7.79-2.57c-3,0-3.76.79-3.76,2.77v11.23c0,2,.79,2.76,3.76,2.76A11.51,11.51,0,0,0,1094.53,234.48Z" fill="#13474f"/>
</svg>
