<svg id="Layer_1" data-name="Layer 1" xmlns="http://www.w3.org/2000/svg" viewBox="0 0 432 106.7"><defs><style>.cls-1{fill:none;}.cls-2{fill:#4d4d4d;}.cls-3{fill:#fff;}.cls-4{fill:#1d71b8;}</style></defs><g id="Layer_1-2" data-name="Layer 1"><path id="Path_635" data-name="Path 635" class="cls-1" d="M309.78,51.12A5.14,5.14,0,0,0,308,49.65a5.93,5.93,0,0,0-4.71,0,5.12,5.12,0,0,0-1.83,1.47,6.89,6.89,0,0,0-1.22,2.34,10.66,10.66,0,0,0-.43,3.18,10.46,10.46,0,0,0,.43,3.15,6.66,6.66,0,0,0,1.23,2.34,5.17,5.17,0,0,0,1.83,1.45,5.77,5.77,0,0,0,4.7,0,5.06,5.06,0,0,0,1.83-1.45A7.07,7.07,0,0,0,311,59.79a10.79,10.79,0,0,0,.43-3.15,11,11,0,0,0-.43-3.18,7.17,7.17,0,0,0-1.22-2.34Z"/><path id="Path_636" data-name="Path 636" class="cls-1" d="M332.59,73a1.23,1.23,0,0,0-.39.08,1.12,1.12,0,0,0-.37.24,1.62,1.62,0,0,0-.27.5,2.44,2.44,0,0,0-.11.81,1.88,1.88,0,0,0,.28,1.11.94.94,0,0,0,.81.41,1.24,1.24,0,0,0,.33,0,1.48,1.48,0,0,0,.29-.12,1.1,1.1,0,0,0,.25-.17,1.37,1.37,0,0,0,.17-.17V73.37a2.6,2.6,0,0,0-.45-.28A1.68,1.68,0,0,0,332.59,73Z"/><path id="Path_637" data-name="Path 637" class="cls-1" d="M315.08,73.25a.85.85,0,0,0-.28-.22.84.84,0,0,0-.38-.08.89.89,0,0,0-.7.3,1.24,1.24,0,0,0-.29.72h1.83a1.32,1.32,0,0,0-.06-.39.93.93,0,0,0-.12-.33Z"/><path id="Path_638" data-name="Path 638" class="cls-1" d="M340.54,74.81a1.21,1.21,0,0,0-.67.16.61.61,0,0,0-.25.53.92.92,0,0,0,.05.28.62.62,0,0,0,.16.2.65.65,0,0,0,.22.11.84.84,0,0,0,.27,0,1.15,1.15,0,0,0,.33,0L341,76a1.77,1.77,0,0,0,.24-.17.91.91,0,0,0,.17-.17v-.72l-.38-.07A3.15,3.15,0,0,0,340.54,74.81Z"/><path id="Path_639" data-name="Path 639" class="cls-1" d="M367.69,73.41a.93.93,0,0,0-.38-.3,1.12,1.12,0,0,0-.48-.1,1.15,1.15,0,0,0-.48.1,1.07,1.07,0,0,0-.37.3,1.69,1.69,0,0,0-.25.48,2.85,2.85,0,0,0,0,1.34,1.69,1.69,0,0,0,.25.48,1,1,0,0,0,.38.3,1.2,1.2,0,0,0,1,0,1.07,1.07,0,0,0,.37-.3,1.47,1.47,0,0,0,.25-.48,2.54,2.54,0,0,0,0-1.34,1.47,1.47,0,0,0-.25-.48Z"/><path id="Path_640" data-name="Path 640" class="cls-1" d="M378.86,73.41a1.07,1.07,0,0,0-.37-.3A1.19,1.19,0,0,0,378,73a1,1,0,0,0-.46.1,1,1,0,0,0-.39.3,1.44,1.44,0,0,0-.24.48,2.17,2.17,0,0,0-.09.67,2.52,2.52,0,0,0,.09.67,1.23,1.23,0,0,0,.25.48,1.07,1.07,0,0,0,.37.3,1.38,1.38,0,0,0,.49.1,1.28,1.28,0,0,0,.47-.1,1,1,0,0,0,.37-.3,1.23,1.23,0,0,0,.25-.48,2.52,2.52,0,0,0,.09-.67,2.17,2.17,0,0,0-.09-.67,1.23,1.23,0,0,0-.25-.48Z"/><path id="Path_641" data-name="Path 641" class="cls-1" d="M351.52,73a1.36,1.36,0,0,0-.39.08,1.08,1.08,0,0,0-.36.24,1.62,1.62,0,0,0-.27.5,2.74,2.74,0,0,0-.12.81,2,2,0,0,0,.31,1.11.92.92,0,0,0,.82.41,1.17,1.17,0,0,0,.32,0,1.48,1.48,0,0,0,.29-.12,1.38,1.38,0,0,0,.25-.17,1,1,0,0,0,.18-.17V73.37a2,2,0,0,0-.47-.28A1.51,1.51,0,0,0,351.52,73Z"/><path id="Path_642" data-name="Path 642" class="cls-1" d="M160.51,50.75a4,4,0,0,0-1.42-1.16,4.36,4.36,0,0,0-2-.41,4.67,4.67,0,0,0-2,.43,5.35,5.35,0,0,0-1.63,1.15,5.64,5.64,0,0,0-1.13,1.72,6.84,6.84,0,0,0-.54,2.1h9.86a6.92,6.92,0,0,0-.3-2.12A5,5,0,0,0,160.51,50.75Z"/><path id="Path_643" data-name="Path 643" class="cls-1" d="M110.94,51.12a5.22,5.22,0,0,0-1.83-1.47,5.93,5.93,0,0,0-4.71,0,5,5,0,0,0-1.83,1.47,6.89,6.89,0,0,0-1.22,2.34,10.67,10.67,0,0,0-.44,3.18,10.8,10.8,0,0,0,.44,3.15,6.67,6.67,0,0,0,1.2,2.34,5.17,5.17,0,0,0,1.83,1.45,5.47,5.47,0,0,0,2.36.5,5.38,5.38,0,0,0,2.34-.5,5.06,5.06,0,0,0,1.83-1.45,7.07,7.07,0,0,0,1.22-2.34,10.79,10.79,0,0,0,.43-3.15,11,11,0,0,0-.43-3.18,7.2,7.2,0,0,0-1.19-2.34Z"/><path id="Path_644" data-name="Path 644" class="cls-1" d="M297.41,73h-.23a.77.77,0,0,0-.25.1,1,1,0,0,0-.23.19,1.24,1.24,0,0,0-.2.29,1.87,1.87,0,0,0-.13.42,3.66,3.66,0,0,0-.05.57,2.79,2.79,0,0,0,.07.64,1.57,1.57,0,0,0,.2.48,1,1,0,0,0,.34.3.89.89,0,0,0,.48.11,1.32,1.32,0,0,0,.34,0A1.36,1.36,0,0,0,298,76l.25-.16a1.29,1.29,0,0,0,.17-.16V73.52a1.47,1.47,0,0,0-.46-.36A1.21,1.21,0,0,0,297.41,73Z"/><path id="Path_645" data-name="Path 645" class="cls-1" d="M273.44,51.14a4.85,4.85,0,0,0-1.75-1.46,5.72,5.72,0,0,0-2.41-.5,6,6,0,0,0-3.24.94,6.18,6.18,0,0,0-1.13.91,8.39,8.39,0,0,0-.75.83V61.93a7.79,7.79,0,0,0,2.29,1.57,6.66,6.66,0,0,0,2.75.59,6.18,6.18,0,0,0,1.9-.34,4.83,4.83,0,0,0,1.83-1.19,6.75,6.75,0,0,0,1.39-2.35,10.94,10.94,0,0,0,.55-3.77,11.83,11.83,0,0,0-.36-3A6.37,6.37,0,0,0,273.44,51.14Z"/><path id="Path_646" data-name="Path 646" class="cls-1" d="M276.28,73.25A.82.82,0,0,0,276,73a.85.85,0,0,0-.39-.08.88.88,0,0,0-.39.08,1.11,1.11,0,0,0-.3.22.92.92,0,0,0-.19.33,1.12,1.12,0,0,0-.1.39h1.88a1.12,1.12,0,0,0-.24-.72Z"/><path id="Path_647" data-name="Path 647" class="cls-1" d="M212.76,57.09a5.17,5.17,0,0,0-3.13.85,3,3,0,0,0-1.13,2.61,4,4,0,0,0,.28,1.57,3.07,3.07,0,0,0,.78,1.11,3.26,3.26,0,0,0,1.17.64,4.7,4.7,0,0,0,1.44.22,6,6,0,0,0,1.88-.3,8,8,0,0,0,1.55-.7,9.16,9.16,0,0,0,1.15-.81l.7-.63V57.8c-.59-.17-1.27-.32-2.06-.47A14.54,14.54,0,0,0,212.76,57.09Z"/><path id="Path_648" data-name="Path 648" class="cls-1" d="M421.7,74.81A1.15,1.15,0,0,0,421,75a.6.6,0,0,0-.25.52.72.72,0,0,0,.06.29.43.43,0,0,0,.15.2.65.65,0,0,0,.22.11.86.86,0,0,0,.28,0,1.24,1.24,0,0,0,.33,0l.3-.09.23-.17a1,1,0,0,0,.18-.17v-.73l-.39-.07a2.12,2.12,0,0,0-.44,0Z"/><path id="Path_649" data-name="Path 649" class="cls-1" d="M389,73.25a.73.73,0,0,0-.27-.22.85.85,0,0,0-.39-.08.9.9,0,0,0-.7.3,1.09,1.09,0,0,0-.19.33,1.72,1.72,0,0,0-.1.39h1.83a1.31,1.31,0,0,0,0-.39,1,1,0,0,0-.13-.33Z"/><path id="Path_650" data-name="Path 650" class="cls-1" d="M417.29,73.25A.82.82,0,0,0,417,73a.8.8,0,0,0-.4-.08.88.88,0,0,0-.39.08,1.29,1.29,0,0,0-.3.22,1.38,1.38,0,0,0-.2.33,1.83,1.83,0,0,0-.09.39h1.83a1,1,0,0,0-.05-.39,1,1,0,0,0-.13-.33Z"/><path id="Path_651" data-name="Path 651" class="cls-1" d="M387.37,57.46a4.81,4.81,0,0,0-2.79.7,2.38,2.38,0,0,0-1,2.14,2.57,2.57,0,0,0,.24,1.16,2.41,2.41,0,0,0,.62.83,2.79,2.79,0,0,0,.92.48,3.83,3.83,0,0,0,1.11.17,5,5,0,0,0,1.38-.2,5.93,5.93,0,0,0,1.2-.49,5,5,0,0,0,1-.66,7,7,0,0,0,.74-.7v-3c-.46-.11-1-.2-1.58-.3a11.88,11.88,0,0,0-1.79-.12Z"/><path id="Path_652" data-name="Path 652" class="cls-2" d="M32.43,14.07.92,1.36v50l31.51.36Z"/><path id="Path_653" data-name="Path 653" class="cls-3" d="M0,52.28l33.35.39V13.45L0,0ZM.92,1.36,32.43,14.07V51.74L.92,51.38Z"/><path id="Path_654" data-name="Path 654" class="cls-4" d="M53.16,22.43,35.21,15.19V51.77L53.16,52Z"/><path id="Path_655" data-name="Path 655" class="cls-3" d="M34.29,52.68l19.78.23V21.77l-19.78-8Zm.92-37.49,17.94,7.24V52l-17.94-.21Z"/><path id="Path_656" data-name="Path 656" class="cls-4" d="M32.43,55,.92,55.32v50L32.43,92.63Z"/><path id="Path_657" data-name="Path 657" class="cls-3" d="M0,106.7,33.35,93.25V54L0,54.42ZM.92,55.32l31.51-.38V92.61L.92,105.34Z"/><path id="Path_658" data-name="Path 658" class="cls-4" d="M53.16,54.72l-17.95.2V91.51l17.95-7.24Z"/><path id="Path_659" data-name="Path 659" class="cls-3" d="M34.29,92.86l19.78-8V53.76L34.29,54Zm.92-37.94,17.94-.2V84.24L35.21,91.48Z"/><path id="Path_660" data-name="Path 660" class="cls-2" d="M88.23,55q-1.2,4.05-1.9,6.89h-.08q-.21-1.09-1.71-6.85l-4.09-16H77.14L73,55.08c-.25.91-.52,2-.84,3.18s-.6,2.42-.92,3.66h0q-.81-3.06-1.9-6.89l-4.67-15.9H61.35l8.33,27.13H73l4.22-16.13c.79-3.1,1.3-5.28,1.51-6.53h.08c.24,1.36.74,3.53,1.51,6.53l4.18,16.13H87.9l8.32-27.13h-3.3Z"/><path id="Path_661" data-name="Path 661" class="cls-2" d="M113.44,49.28a7.81,7.81,0,0,0-2.88-2.07,9.66,9.66,0,0,0-3.83-.72,9.47,9.47,0,0,0-3.79.72,8.09,8.09,0,0,0-2.87,2.07,9.2,9.2,0,0,0-1.83,3.2,12.49,12.49,0,0,0-.65,4.16,12.69,12.69,0,0,0,.63,4.14,9.29,9.29,0,0,0,1.83,3.2A8.33,8.33,0,0,0,102.94,66a10.25,10.25,0,0,0,7.6,0A8.3,8.3,0,0,0,113.42,64a9.38,9.38,0,0,0,1.83-3.2,12.45,12.45,0,0,0,.65-4.14,13,13,0,0,0-.63-4.16A9.2,9.2,0,0,0,113.44,49.28Zm-1.28,10.51a7.07,7.07,0,0,1-1.22,2.34,5.06,5.06,0,0,1-1.83,1.45,5.77,5.77,0,0,1-4.7,0,5.06,5.06,0,0,1-1.83-1.45,6.66,6.66,0,0,1-1.23-2.34,11.6,11.6,0,0,1,0-6.33,6.94,6.94,0,0,1,1.2-2.34,5.12,5.12,0,0,1,1.83-1.47,5.93,5.93,0,0,1,4.71,0,5.22,5.22,0,0,1,1.83,1.47,7.17,7.17,0,0,1,1.22,2.34,11.09,11.09,0,0,1,.43,3.18A10.78,10.78,0,0,1,112.16,59.79Z"/><rect id="Rectangle_1051" data-name="Rectangle 1051" class="cls-2" x="121.05" y="36.89" width="3.14" height="29.36"/><path id="Path_662" data-name="Path 662" class="cls-2" d="M138.86,57.68Q137.67,61,137,63.06h-.08q-.73-2.2-1.88-5.38L131.18,47H128l7.28,19.23h3.26L145.9,47h-3.14Z"/><path id="Path_663" data-name="Path 663" class="cls-2" d="M162.76,48.71A6.17,6.17,0,0,0,160.31,47a8.39,8.39,0,0,0-3-.53,8.51,8.51,0,0,0-3.3.64,7.87,7.87,0,0,0-2.79,1.95,9.47,9.47,0,0,0-2,3.23,13,13,0,0,0-.72,4.58,12.34,12.34,0,0,0,.75,4.58,7.73,7.73,0,0,0,2.08,3.06,7.89,7.89,0,0,0,3.14,1.7,13.41,13.41,0,0,0,3.88.53,17,17,0,0,0,3.26-.29,9.59,9.59,0,0,0,2.55-.81V63.05a15.18,15.18,0,0,1-2.56.71,14.33,14.33,0,0,1-2.85.26,9.77,9.77,0,0,1-2.79-.37,5.86,5.86,0,0,1-2.26-1.16,5.33,5.33,0,0,1-1.51-2.06,8,8,0,0,1-.55-3.13H165V56.1a14.13,14.13,0,0,0-.6-4.38,8.26,8.26,0,0,0-1.6-3Zm-10.94,5.86a7,7,0,0,1,.54-2.1,5.72,5.72,0,0,1,1.13-1.71,5.19,5.19,0,0,1,1.63-1.15,4.67,4.67,0,0,1,2-.43,4.25,4.25,0,0,1,2,.41,4.17,4.17,0,0,1,1.42,1.15,5,5,0,0,1,.87,1.71,6.92,6.92,0,0,1,.3,2.12Z"/><path id="Path_664" data-name="Path 664" class="cls-2" d="M180.09,46.49a7.79,7.79,0,0,0-5.52,2.16,7.33,7.33,0,0,0-1.15,1.4h-.06l-.6-3.06h-2.45V66.22h3.14V52.83a5.46,5.46,0,0,1,1.27-1.44,7.27,7.27,0,0,1,1.71-1,8.43,8.43,0,0,1,2-.62,10.69,10.69,0,0,1,2.19-.2h.24v-3a2.29,2.29,0,0,0-.37,0Z"/><path id="Path_665" data-name="Path 665" class="cls-2" d="M198.13,47.82a5.33,5.33,0,0,0-2-1,8.08,8.08,0,0,0-2.19-.29,7.33,7.33,0,0,0-2,.24,8,8,0,0,0-1.7.65,7.13,7.13,0,0,0-1.44,1,10,10,0,0,0-1.18,1.25h0V36.89h-3.15V66.25h3.15V52.52A8.4,8.4,0,0,1,190.17,50a6.12,6.12,0,0,1,3.17-.92,3.4,3.4,0,0,1,2.88,1.24,5.92,5.92,0,0,1,.92,3.52V66.25h3.15V53.35a8.65,8.65,0,0,0-.6-3.44A5.35,5.35,0,0,0,198.13,47.82Z"/><path id="Path_666" data-name="Path 666" class="cls-2" d="M220,50.25a6.23,6.23,0,0,0-2.67-2.75,9.75,9.75,0,0,0-4.78-1,14.63,14.63,0,0,0-1.62.07,13.67,13.67,0,0,0-1.54.24,10.87,10.87,0,0,0-2.53.81v2.64a17.5,17.5,0,0,1,2.56-.76,12.7,12.7,0,0,1,2.75-.27,6.46,6.46,0,0,1,3.12.64A4.06,4.06,0,0,1,217,51.47a3.42,3.42,0,0,1,.35,1.08,8.06,8.06,0,0,1,.1,1.39v1.35h-.08a13.87,13.87,0,0,0-2.27-.62,17,17,0,0,0-2.75-.26,9.06,9.06,0,0,0-2.88.43,6.42,6.42,0,0,0-2.24,1.21A5.29,5.29,0,0,0,205.78,58a6,6,0,0,0-.52,2.57,6.93,6.93,0,0,0,.46,2.62,5.77,5.77,0,0,0,1.31,2,5.84,5.84,0,0,0,2,1.22,7.67,7.67,0,0,0,2.56.41,8.51,8.51,0,0,0,2-.22,9.3,9.3,0,0,0,1.62-.61,6.64,6.64,0,0,0,1.36-.86,5.57,5.57,0,0,0,1-.91h.08l.35,2.13h2.63V53.47a10.93,10.93,0,0,0-.12-1.71,6,6,0,0,0-.42-1.51Zm-2.58,11.4-.7.63a8.49,8.49,0,0,1-1.15.81,8,8,0,0,1-1.55.7,6,6,0,0,1-1.87.3,4.66,4.66,0,0,1-1.44-.22,3.26,3.26,0,0,1-1.17-.64,3,3,0,0,1-.77-1.11,4,4,0,0,1-.29-1.57,3.08,3.08,0,0,1,1.13-2.61,5.17,5.17,0,0,1,3.13-.85,14.54,14.54,0,0,1,2.63.24c.79.15,1.47.3,2.06.46Z"/><path id="Path_667" data-name="Path 667" class="cls-2" d="M252.81,47.82a5.64,5.64,0,0,0-2.1-1.06,9.83,9.83,0,0,0-2.16-.27,7.19,7.19,0,0,0-3.83,1,10.67,10.67,0,0,0-2.93,2.83h-.07a6.64,6.64,0,0,0-2.18-2.82,6,6,0,0,0-3.57-1,7.55,7.55,0,0,0-2,.24,7,7,0,0,0-1.66.67,7.69,7.69,0,0,0-1.38,1,9.74,9.74,0,0,0-1.15,1.25h-.06l-.6-2.68h-2.44V66.22h3.15V52.48A9,9,0,0,1,232.3,50a5.44,5.44,0,0,1,3.06-.91,4.68,4.68,0,0,1,1.61.26,3,3,0,0,1,1.23.84,3.66,3.66,0,0,1,.8,1.44,7.43,7.43,0,0,1,.28,2.15V66.26h3.13V52.52A8.87,8.87,0,0,1,244.89,50a5.48,5.48,0,0,1,3.08-.92,4.43,4.43,0,0,1,1.61.27,3,3,0,0,1,1.24.83,3.94,3.94,0,0,1,.79,1.45,7.31,7.31,0,0,1,.27,2.14V66.26H255V53.36a8,8,0,0,0-.63-3.45A5.6,5.6,0,0,0,252.81,47.82Z"/><path id="Path_668" data-name="Path 668" class="cls-2" d="M275.61,48.78A7.09,7.09,0,0,0,272.94,47a8.78,8.78,0,0,0-3.13-.54,6.5,6.5,0,0,0-2.14.32,7.54,7.54,0,0,0-1.69.76,7.4,7.4,0,0,0-1.11.82,4.24,4.24,0,0,0-.68.79h-.06L263.47,47h-2.39V75.68h3.09V64.47h.06a6.94,6.94,0,0,0,2.34,1.71,7.54,7.54,0,0,0,3.08.58,9.42,9.42,0,0,0,1.83-.21,8.07,8.07,0,0,0,3.71-2,7.28,7.28,0,0,0,1.53-1.93,11,11,0,0,0,1.06-2.75,14.24,14.24,0,0,0,.39-3.56,13.17,13.17,0,0,0-.7-4.58A8.8,8.8,0,0,0,275.61,48.78Zm-1.29,11.44a6.56,6.56,0,0,1-1.39,2.34,4.65,4.65,0,0,1-1.83,1.19,5.86,5.86,0,0,1-1.9.35,6.7,6.7,0,0,1-2.75-.59,8,8,0,0,1-2.27-1.6V51.83c.24-.29.49-.57.75-.83a6.18,6.18,0,0,1,1.13-.91,6,6,0,0,1,1.46-.67,6,6,0,0,1,1.78-.27,5.72,5.72,0,0,1,2.41.5,4.85,4.85,0,0,1,1.75,1.46,6.37,6.37,0,0,1,1.07,2.28,11.78,11.78,0,0,1,.36,3,11.13,11.13,0,0,1-.57,3.8Z"/><path id="Path_669" data-name="Path 669" class="cls-2" d="M284.09,61.4a6.43,6.43,0,0,0,.37,2.22,4.42,4.42,0,0,0,1.1,1.69,4.91,4.91,0,0,0,1.83,1.07,8.4,8.4,0,0,0,2.64.38,12.15,12.15,0,0,0,2-.17,5.26,5.26,0,0,0,1.23-.3V63.66a10.48,10.48,0,0,1-2.62.36,4.29,4.29,0,0,1-1.55-.23,2.69,2.69,0,0,1-1.07-.65,2.36,2.36,0,0,1-.61-1,3.64,3.64,0,0,1-.19-1.23V49.68H293V47h-5.77V41.72H284.1V47h-3.67v2.69h3.66Z"/><path id="Path_670" data-name="Path 670" class="cls-2" d="M314.06,60.78a12.37,12.37,0,0,0,.65-4.14,12.81,12.81,0,0,0-.63-4.16,9.38,9.38,0,0,0-1.83-3.2,7.9,7.9,0,0,0-2.88-2.06,9.67,9.67,0,0,0-3.83-.73,9.4,9.4,0,0,0-3.78.73,8,8,0,0,0-2.88,2.06,9.38,9.38,0,0,0-1.83,3.2,12.53,12.53,0,0,0-.65,4.16,12.92,12.92,0,0,0,.63,4.14,9.2,9.2,0,0,0,1.83,3.2A8.08,8.08,0,0,0,301.75,66a9.33,9.33,0,0,0,3.83.73,9,9,0,0,0,3.77-.73A8.3,8.3,0,0,0,312.23,64,9.2,9.2,0,0,0,314.06,60.78Zm-3.06-1a7.22,7.22,0,0,1-1.22,2.35A5.14,5.14,0,0,1,308,63.58a5.77,5.77,0,0,1-4.7,0,5.14,5.14,0,0,1-1.83-1.44,6.79,6.79,0,0,1-1.23-2.35,11.6,11.6,0,0,1,0-6.33,6.72,6.72,0,0,1,1.22-2.34,5,5,0,0,1,1.83-1.47,5.93,5.93,0,0,1,4.71,0,5.22,5.22,0,0,1,1.83,1.47A7.15,7.15,0,0,1,311,53.46a10.75,10.75,0,0,1,.43,3.18,10.46,10.46,0,0,1-.43,3.15Z"/><path id="Path_671" data-name="Path 671" class="cls-2" d="M333.65,48a5.24,5.24,0,0,0-2-1.18,8.24,8.24,0,0,0-2.47-.35,8.35,8.35,0,0,0-2.06.23,8.08,8.08,0,0,0-1.73.68,7.28,7.28,0,0,0-1.43,1,9.77,9.77,0,0,0-1.17,1.24h-.06L322.11,47h-2.43V66.22h3.14V52.48A8.47,8.47,0,0,1,325.43,50a6.07,6.07,0,0,1,3.15-.91,3.5,3.5,0,0,1,2.8,1.1,5.31,5.31,0,0,1,1,3.68V66.26h3.14V53.36a8.59,8.59,0,0,0-.5-3.22A5.55,5.55,0,0,0,333.65,48Z"/><path id="Path_672" data-name="Path 672" class="cls-4" d="M363.62,65.42V51.69H352.57v4.16h6.08v6.41a14,14,0,0,1-1.6.24c-.61,0-1.2.09-1.76.09-3.06,0-5.41-.8-7.08-2.41s-2.5-4-2.51-7.2a10.86,10.86,0,0,1,.81-4.36,9.05,9.05,0,0,1,2.22-3.18,9.38,9.38,0,0,1,3.33-1.94,12.64,12.64,0,0,1,4.14-.66,20.75,20.75,0,0,1,3.25.26,22.28,22.28,0,0,1,3.2.78V39.63a17.57,17.57,0,0,0-3-.72,25.39,25.39,0,0,0-3.89-.3,18,18,0,0,0-4.33.5,15.38,15.38,0,0,0-3.66,1.43,13.27,13.27,0,0,0-3,2.25,13.6,13.6,0,0,0-2.28,3,14.59,14.59,0,0,0-1.4,3.54,17.14,17.14,0,0,0-.47,4,15.7,15.7,0,0,0,.91,5.44A11.3,11.3,0,0,0,344.23,63a12.34,12.34,0,0,0,4.58,2.75,19.09,19.09,0,0,0,6.41,1,16.69,16.69,0,0,0,2.45-.12c.83-.12,1.63-.19,2.41-.32s1.47-.27,2.11-.43A12.64,12.64,0,0,0,363.62,65.42Z"/><rect id="Rectangle_1052" data-name="Rectangle 1052" class="cls-4" x="369.29" y="36.89" width="4.81" height="29.36"/><path id="Path_673" data-name="Path 673" class="cls-4" d="M395.55,60.43V53a6.64,6.64,0,0,0-.53-2.75,5.82,5.82,0,0,0-1.63-2.18,7.92,7.92,0,0,0-2.69-1.46,12.6,12.6,0,0,0-3.76-.52,17.1,17.1,0,0,0-3.49.37,15.69,15.69,0,0,0-3.14,1v3.81a21.8,21.8,0,0,1,3.16-1,13.68,13.68,0,0,1,2.92-.32,6.09,6.09,0,0,1,2,.29,3.62,3.62,0,0,1,1.35.79,3,3,0,0,1,.75,1.13,4.06,4.06,0,0,1,.23,1.34v.78a17.08,17.08,0,0,0-1.89-.38,16.64,16.64,0,0,0-2.34-.17,10.75,10.75,0,0,0-3.19.46,7.31,7.31,0,0,0-2.47,1.33,6,6,0,0,0-1.61,2.12,7.16,7.16,0,0,0-.08,5.45,5.67,5.67,0,0,0,3.45,3.24,7.51,7.51,0,0,0,2.62.44,7.32,7.32,0,0,0,3.54-.91,9.37,9.37,0,0,0,1.28-.88,8.53,8.53,0,0,0,1-.92h.07l.21,2.09h4.34c0-.73-.05-1.57-.08-2.5S395.55,61.71,395.55,60.43Zm-4.8.47a6.22,6.22,0,0,1-.75.7,4.43,4.43,0,0,1-1,.66,5.71,5.71,0,0,1-1.2.49,4.5,4.5,0,0,1-1.37.2,3.58,3.58,0,0,1-1.12-.17,2.84,2.84,0,0,1-.91-.48,2.41,2.41,0,0,1-.62-.83,2.57,2.57,0,0,1-.24-1.16,2.4,2.4,0,0,1,1-2.16,4.92,4.92,0,0,1,2.8-.7,12.51,12.51,0,0,1,1.83.13c.6.09,1.12.18,1.57.29Z"/><path id="Path_674" data-name="Path 674" class="cls-4" d="M405.85,66.76a14.35,14.35,0,0,0,3.46-.39A7.77,7.77,0,0,0,412,65.15a5.82,5.82,0,0,0,1.76-2.06,6.2,6.2,0,0,0,.63-2.9,5.26,5.26,0,0,0-.56-2.5,4.67,4.67,0,0,0-1.32-1.6,6.11,6.11,0,0,0-1.84-.92c-.67-.23-1.35-.43-2-.59l-1.34-.34a7.44,7.44,0,0,1-1.31-.43,2.46,2.46,0,0,1-1-.7,1.58,1.58,0,0,1-.36-1.09,1.89,1.89,0,0,1,.16-.74,1.62,1.62,0,0,1,.53-.63,2.72,2.72,0,0,1,.91-.43,5.42,5.42,0,0,1,1.45-.16,11.28,11.28,0,0,1,1.42.09c.5.06,1,.14,1.51.23s1,.21,1.49.34,1,.27,1.41.41v-4a18.14,18.14,0,0,0-6.24-1.05,10.18,10.18,0,0,0-2.8.39,6.56,6.56,0,0,0-2.33,1.17,5.65,5.65,0,0,0-1.6,2,6.34,6.34,0,0,0-.58,2.85,5,5,0,0,0,.44,2.26,4.19,4.19,0,0,0,1.17,1.54,6.44,6.44,0,0,0,1.71,1c.66.25,1.34.47,2,.66s1.08.26,1.59.4a7.46,7.46,0,0,1,1.35.47,3.1,3.1,0,0,1,.92.68,1.61,1.61,0,0,1,.35,1,1.78,1.78,0,0,1-.32,1.05,2.59,2.59,0,0,1-.92.72,4.19,4.19,0,0,1-1.33.41,9.3,9.3,0,0,1-1.66.14,17.45,17.45,0,0,1-2.5-.21,15.09,15.09,0,0,1-2.92-.81v3.88a11.16,11.16,0,0,0,2.47.74A17.45,17.45,0,0,0,405.85,66.76Z"/><path id="Path_675" data-name="Path 675" class="cls-4" d="M423.46,66.76a14.32,14.32,0,0,0,3.45-.39,7.86,7.86,0,0,0,2.7-1.22,5.79,5.79,0,0,0,1.75-2.06,6.2,6.2,0,0,0,.63-2.9,5.16,5.16,0,0,0-.52-2.5,4.48,4.48,0,0,0-1.33-1.6,5.94,5.94,0,0,0-1.83-.92c-.67-.23-1.35-.43-2-.59l-1.35-.34a7.44,7.44,0,0,1-1.31-.43,2.53,2.53,0,0,1-1-.7A1.66,1.66,0,0,1,422.3,52a1.7,1.7,0,0,1,.16-.74,1.63,1.63,0,0,1,.53-.63,2.5,2.5,0,0,1,.92-.43,5.36,5.36,0,0,1,1.44-.17,11.28,11.28,0,0,1,1.42.09c.5.06,1,.14,1.51.23s1,.21,1.5.34,1,.27,1.41.41V47.17a18.65,18.65,0,0,0-2.87-.76,18.15,18.15,0,0,0-3.38-.29,10.3,10.3,0,0,0-2.81.39,6.64,6.64,0,0,0-2.33,1.17,5.76,5.76,0,0,0-1.6,2,6.34,6.34,0,0,0-.58,2.85,5,5,0,0,0,.44,2.26,4.38,4.38,0,0,0,1.17,1.53,5.94,5.94,0,0,0,1.71,1,18.48,18.48,0,0,0,2,.66l1.6.4a7.92,7.92,0,0,1,1.34.48,2.91,2.91,0,0,1,.92.67,1.51,1.51,0,0,1,.35,1,1.63,1.63,0,0,1-.32,1,2.62,2.62,0,0,1-.92.73,4.77,4.77,0,0,1-1.33.41,10.36,10.36,0,0,1-1.67.14,15.87,15.87,0,0,1-2.48-.22,15.69,15.69,0,0,1-2.93-.8v3.87a10.65,10.65,0,0,0,2.47.74A18.24,18.24,0,0,0,423.46,66.76Z"/><path id="Path_676" data-name="Path 676" class="cls-4" d="M271.81,73.62a2,2,0,0,0-.68-.32,6.69,6.69,0,0,0-.8-.21l-.5-.12a1.94,1.94,0,0,1-.42-.17,1.2,1.2,0,0,1-.29-.26.8.8,0,0,1-.1-.43.72.72,0,0,1,.32-.64,1.65,1.65,0,0,1,.92-.22,4.12,4.12,0,0,1,.92.1,5,5,0,0,1,1,.29v-1a5.05,5.05,0,0,0-.92-.26,5.44,5.44,0,0,0-1.06-.1,2.88,2.88,0,0,0-.92.12,2,2,0,0,0-.73.38,1.53,1.53,0,0,0-.49.64,2,2,0,0,0-.19.92,1.67,1.67,0,0,0,.16.79,1.48,1.48,0,0,0,.42.51,2,2,0,0,0,.61.32,6.21,6.21,0,0,0,.74.2l.55.12a2.46,2.46,0,0,1,.48.16.9.9,0,0,1,.33.25.67.67,0,0,1,.13.41.9.9,0,0,1-.14.48.92.92,0,0,1-.35.3,1.41,1.41,0,0,1-.49.16,2.72,2.72,0,0,1-.57,0,4.78,4.78,0,0,1-.92-.09,4.88,4.88,0,0,1-.91-.31v1a3.25,3.25,0,0,0,.86.3,7.46,7.46,0,0,0,1.05.1,5.52,5.52,0,0,0,1.14-.12,2.79,2.79,0,0,0,.91-.38,1.63,1.63,0,0,0,.55-.64,1.92,1.92,0,0,0,.2-.91,2,2,0,0,0-.17-.86A1.42,1.42,0,0,0,271.81,73.62Z"/><path id="Path_677" data-name="Path 677" class="cls-4" d="M277.14,72.63a1.7,1.7,0,0,0-.66-.44,2.7,2.7,0,0,0-.85-.14,2.2,2.2,0,0,0-.83.17,2,2,0,0,0-.72.47,2.44,2.44,0,0,0-.5.81,3.35,3.35,0,0,0-.19,1.13,2.74,2.74,0,0,0,.21,1.13,1.83,1.83,0,0,0,.54.75,1.91,1.91,0,0,0,.78.42,3.52,3.52,0,0,0,1,.13,6.24,6.24,0,0,0,1-.08,5.13,5.13,0,0,0,.7-.19v-.92a5.88,5.88,0,0,1-.75.19,3.33,3.33,0,0,1-.7.07,1.88,1.88,0,0,1-.58-.07,1.17,1.17,0,0,1-.47-.21,1.26,1.26,0,0,1-.32-.37,1.59,1.59,0,0,1-.14-.57h3.12V74.5a3.66,3.66,0,0,0-.16-1.1A2,2,0,0,0,277.14,72.63ZM274.64,74a1.07,1.07,0,0,1,.1-.39.91.91,0,0,1,.49-.55,1,1,0,0,1,.78,0,.82.82,0,0,1,.27.22,1,1,0,0,1,.17.33,1.27,1.27,0,0,1,.06.39Z"/><path id="Path_678" data-name="Path 678" class="cls-4" d="M280.46,72.26a1.45,1.45,0,0,0-.57.58h0l-.11-.67h-1v4.74H280V73.75a1.31,1.31,0,0,1,.63-.49,2.45,2.45,0,0,1,.92-.16h.09v-1a1.5,1.5,0,0,0-.3,0A1.61,1.61,0,0,0,280.46,72.26Z"/><path id="Path_679" data-name="Path 679" class="cls-4" d="M284.68,74c-.2.57-.37,1.06-.51,1.51h0c-.17-.51-.33-1-.52-1.54L283,72.16h-1.23l1.83,4.77h1.18l1.83-4.77h-1.24Z"/><rect id="Rectangle_1053" data-name="Rectangle 1053" class="cls-4" x="287.3" y="72.17" width="1.16" height="4.76"/><rect id="Rectangle_1054" data-name="Rectangle 1054" class="cls-4" x="287.27" y="69.82" width="1.23" height="1.26"/><path id="Path_680" data-name="Path 680" class="cls-4" d="M294,73.1a1.69,1.69,0,0,0-.25-.48,1.19,1.19,0,0,0-.35-.32,1.25,1.25,0,0,0-.45-.18,2.15,2.15,0,0,0-.5-.07,2.25,2.25,0,0,0-.52.07,2,2,0,0,0-.8.43,1.5,1.5,0,0,0-.27.29h0l-.11-.67h-.91v4.74H291V73.66a1.51,1.51,0,0,1,1.2-.63.92.92,0,0,1,.44.1.59.59,0,0,1,.27.33.69.69,0,0,1,0,.24v3.21h1.18V73.43a1.92,1.92,0,0,0-.14-.33Z"/><path id="Path_681" data-name="Path 681" class="cls-4" d="M298.54,72.71h0a1.79,1.79,0,0,0-.55-.47,1.61,1.61,0,0,0-.78-.19,1.9,1.9,0,0,0-1.44.66,2.53,2.53,0,0,0-.47.81,3.28,3.28,0,0,0-.17,1.12,3.22,3.22,0,0,0,.17,1.11,2.23,2.23,0,0,0,.46.75,1.46,1.46,0,0,0,.64.42,2.11,2.11,0,0,0,.74.14h.41a2.29,2.29,0,0,0,.37-.12l.31-.16a2.2,2.2,0,0,0,.25-.17h0v.6a1.06,1.06,0,0,1-.43.92,2.14,2.14,0,0,1-1.21.3,4.74,4.74,0,0,1-.75-.06,2.69,2.69,0,0,1-.68-.16v.91a1.43,1.43,0,0,0,.27.09l.37.08h.89a4.33,4.33,0,0,0,.8-.07,2.78,2.78,0,0,0,.68-.2,2,2,0,0,0,.55-.34,1.46,1.46,0,0,0,.4-.46,1.56,1.56,0,0,0,.2-.53,3.54,3.54,0,0,0,.07-.73V72.11h-1Zm-.09,3a1.29,1.29,0,0,1-.17.16L298,76a1.62,1.62,0,0,1-.28.11,1.32,1.32,0,0,1-.34,0,.89.89,0,0,1-.48-.11,1,1,0,0,1-.34-.3,1.57,1.57,0,0,1-.2-.48,2.79,2.79,0,0,1-.07-.64,2.75,2.75,0,0,1,.05-.57,2,2,0,0,1,.13-.42,1,1,0,0,1,.2-.29.83.83,0,0,1,.23-.19,1.09,1.09,0,0,1,.25-.1h.23a1.33,1.33,0,0,1,.58.16,1.5,1.5,0,0,1,.46.37Z"/><path id="Path_682" data-name="Path 682" class="cls-4" d="M305.11,76.08a.66.66,0,0,1-.59-.22.84.84,0,0,1-.08-.41V73.13h1.38v-1h-1.37V70.84h-1.16v1.33h-.92v1h.92v2.48a1.66,1.66,0,0,0,.11.7,1,1,0,0,0,.54.56,2,2,0,0,0,1,.19h.5a1.86,1.86,0,0,0,.47-.09V76a2.45,2.45,0,0,1-.37.08,2.8,2.8,0,0,1-.41,0Z"/><path id="Path_683" data-name="Path 683" class="cls-4" d="M311,72.87a1.59,1.59,0,0,0-.27-.37,2.88,2.88,0,0,0-.35-.26,1.64,1.64,0,0,0-.43-.13,1.74,1.74,0,0,0-.45-.06,2.08,2.08,0,0,0-.5.07,1.76,1.76,0,0,0-.4.16,2,2,0,0,0-.33.24,2.27,2.27,0,0,0-.26.28h0v-3H306.8v7.1H308V73.67a1.87,1.87,0,0,1,.54-.47,1.47,1.47,0,0,1,.62-.17,1.34,1.34,0,0,1,.44.1.6.6,0,0,1,.29.3.5.5,0,0,1,.06.24,1.09,1.09,0,0,1,0,.36v2.89h1.17v-3a3.68,3.68,0,0,0,0-.58,1.42,1.42,0,0,0-.07-.42Z"/><path id="Path_684" data-name="Path 684" class="cls-4" d="M315.89,72.63a1.6,1.6,0,0,0-.65-.44,2.39,2.39,0,0,0-.84-.14,2.16,2.16,0,0,0-.83.17,2,2,0,0,0-.72.47,2.44,2.44,0,0,0-.5.81,3.35,3.35,0,0,0-.19,1.13,2.9,2.9,0,0,0,.2,1.13,2.09,2.09,0,0,0,.53.75,2.28,2.28,0,0,0,.8.42,3.52,3.52,0,0,0,1,.13,6.37,6.37,0,0,0,1-.08,4.6,4.6,0,0,0,.7-.2v-.91a6.87,6.87,0,0,1-.75.19,3.42,3.42,0,0,1-.71.07,2.3,2.3,0,0,1-.58-.07,1.08,1.08,0,0,1-.46-.21,1.1,1.1,0,0,1-.33-.38,1.54,1.54,0,0,1-.14-.56h3.12v-.42a3.44,3.44,0,0,0-.15-1.1A2.08,2.08,0,0,0,315.89,72.63ZM313.4,74a1.32,1.32,0,0,1,.1-.39.94.94,0,0,1,.2-.33.88.88,0,0,1,.7-.3.73.73,0,0,1,.38.08.85.85,0,0,1,.28.22,1,1,0,0,1,.16.33,1.32,1.32,0,0,1,.06.39Z"/><path id="Path_685" data-name="Path 685" class="cls-4" d="M323.73,73.51c-.21.6-.38,1.14-.53,1.66h0c-.18-.6-.35-1.16-.54-1.68l-1.14-3.13h-1.68v6.56h1.21V73.6a16.1,16.1,0,0,0-.06-1.7h0c.06.19.13.4.2.64s.16.45.24.68l1.33,3.69h.78l1.36-3.66.24-.69.19-.63h0c0,.64-.06,1.21-.06,1.7v3.29h1.2V70.36h-1.68Z"/><rect id="Rectangle_1055" data-name="Rectangle 1055" class="cls-4" x="327.99" y="69.82" width="1.23" height="1.26"/><rect id="Rectangle_1056" data-name="Rectangle 1056" class="cls-4" x="328.02" y="72.17" width="1.16" height="4.76"/><path id="Path_686" data-name="Path 686" class="cls-4" d="M334.76,75.52v-5.7h-1.18v2.66h0a1.25,1.25,0,0,0-.24-.16l-.29-.14-.32-.09a2.16,2.16,0,0,0-.36,0,2,2,0,0,0-.8.17,1.85,1.85,0,0,0-.68.5,2.45,2.45,0,0,0-.48.81,3.53,3.53,0,0,0-.16,1.12,3.45,3.45,0,0,0,.16,1.1,2.21,2.21,0,0,0,.45.75,1.83,1.83,0,0,0,.64.42,2.17,2.17,0,0,0,.75.14,3.38,3.38,0,0,0,.45,0,1.64,1.64,0,0,0,.39-.14,1.55,1.55,0,0,0,.32-.2,2,2,0,0,0,.25-.25h0l0,.52h1.05V75.52Zm-1.18.11a1.45,1.45,0,0,1-.17.18,1.07,1.07,0,0,1-.25.16,1.48,1.48,0,0,1-.29.12,1.88,1.88,0,0,1-.33,0,1,1,0,0,1-.82-.42,2,2,0,0,1-.27-1.11,2.44,2.44,0,0,1,.11-.81,1.47,1.47,0,0,1,.27-.49,1,1,0,0,1,.76-.32,1.27,1.27,0,0,1,.54.11,2.07,2.07,0,0,1,.45.27Z"/><rect id="Rectangle_1057" data-name="Rectangle 1057" class="cls-4" x="336.16" y="69.82" width="1.16" height="7.12"/><path id="Path_687" data-name="Path 687" class="cls-4" d="M342.53,75.52V73.69a1.51,1.51,0,0,0-.14-.66,1.27,1.27,0,0,0-.38-.53,2.12,2.12,0,0,0-.66-.36,2.88,2.88,0,0,0-.92-.12,4,4,0,0,0-.84.09,3.53,3.53,0,0,0-.76.24v.92a5.28,5.28,0,0,1,.77-.24,2.74,2.74,0,0,1,.7-.08,1.35,1.35,0,0,1,.49.07.92.92,0,0,1,.33.19.68.68,0,0,1,.18.28.86.86,0,0,1,.05.32V74a3.58,3.58,0,0,0-.45-.09,2.72,2.72,0,0,0-.57,0,2.25,2.25,0,0,0-.77.11,1.59,1.59,0,0,0-.6.32,1.43,1.43,0,0,0-.39.52,1.46,1.46,0,0,0-.14.68,1.77,1.77,0,0,0,.12.64,1.21,1.21,0,0,0,.34.47,1.24,1.24,0,0,0,.5.31,1.89,1.89,0,0,0,.63.1,1.75,1.75,0,0,0,.46,0,2,2,0,0,0,.4-.16l.32-.2.24-.22h0l.09.49h1.05v-.6C342.58,76.09,342.53,75.83,342.53,75.52Zm-1.17.11a.77.77,0,0,1-.18.18A1.88,1.88,0,0,1,341,76l-.3.12a1.75,1.75,0,0,1-.33,0,.86.86,0,0,1-.27,0,.57.57,0,0,1-.22-.11.53.53,0,0,1-.16-.2.69.69,0,0,1-.05-.28.6.6,0,0,1,.24-.53,1.24,1.24,0,0,1,.68-.16,3.23,3.23,0,0,1,.44,0l.38.07Z"/><path id="Path_688" data-name="Path 688" class="cls-4" d="M348.06,73.1a1.38,1.38,0,0,0-.25-.48,1.32,1.32,0,0,0-.35-.32,1.28,1.28,0,0,0-.44-.18,2.15,2.15,0,0,0-.5-.07,2.18,2.18,0,0,0-.52.07,1.57,1.57,0,0,0-.44.18,1.6,1.6,0,0,0-.37.25,1.45,1.45,0,0,0-.26.29h0l-.11-.67h-1v4.74H345V73.66a1.47,1.47,0,0,1,.55-.47,1.45,1.45,0,0,1,.65-.16,1,1,0,0,1,.44.1.57.57,0,0,1,.26.33,1.05,1.05,0,0,1,.06.24v3.21h1.16V73.43a1.23,1.23,0,0,0-.08-.33Z"/><path id="Path_689" data-name="Path 689" class="cls-4" d="M353.68,75.52v-5.7h-1.16v2.37a1.41,1.41,0,0,0,0,.29h0l-.25-.16-.28-.14-.33-.09a2.29,2.29,0,0,0-.37,0,1.94,1.94,0,0,0-1.47.67,2.31,2.31,0,0,0-.47.82,3.78,3.78,0,0,0,0,2.21,2.14,2.14,0,0,0,.46.75,1.7,1.7,0,0,0,.64.42,2.11,2.11,0,0,0,.74.14,3.53,3.53,0,0,0,.46,0A1.74,1.74,0,0,0,352,77a1.32,1.32,0,0,0,.32-.2,2.83,2.83,0,0,0,.25-.24h0V77h1v-.6C353.66,76.2,353.68,75.83,353.68,75.52Zm-1.16.11c-.06.07-.12.12-.18.18a1.32,1.32,0,0,1-.25.16,1.48,1.48,0,0,1-.29.12,1.92,1.92,0,0,1-.32,0,.93.93,0,0,1-.82-.42,2,2,0,0,1-.28-1.11,2.21,2.21,0,0,1,.12-.81,1.31,1.31,0,0,1,.27-.49.9.9,0,0,1,.36-.25,1,1,0,0,1,.38-.07,1.12,1.12,0,0,1,.54.11,2,2,0,0,1,.47.27Z"/><path id="Path_690" data-name="Path 690" class="cls-4" d="M357.85,74.47a1.54,1.54,0,0,0-.44-.23l-.5-.15-.32-.08a2,2,0,0,1-.32-.1.78.78,0,0,1-.24-.16.51.51,0,0,1-.09-.27.37.37,0,0,1,.05-.18.34.34,0,0,1,.13-.16.94.94,0,0,1,.23-.1,1,1,0,0,1,.34,0,2,2,0,0,1,.35,0l.37.06.35.08a2,2,0,0,1,.35.1v-.94a4.26,4.26,0,0,0-.7-.19,4.47,4.47,0,0,0-.82-.07,2.24,2.24,0,0,0-.68.1,1.52,1.52,0,0,0-.57.28A1.41,1.41,0,0,0,355,73a1.47,1.47,0,0,0-.14.69,1.26,1.26,0,0,0,.1.54,1.34,1.34,0,0,0,.28.38,1.64,1.64,0,0,0,.43.24l.48.15.39.1.33.11a.72.72,0,0,1,.22.17.41.41,0,0,1,0,.51.91.91,0,0,1-.21.18,1.59,1.59,0,0,1-.33.1h-.4l-.6-.06a3.29,3.29,0,0,1-.7-.19v.91a2.45,2.45,0,0,0,.6.18,3.7,3.7,0,0,0,.81.07,3.86,3.86,0,0,0,.84-.09,1.84,1.84,0,0,0,.65-.3,1.29,1.29,0,0,0,.43-.5,1.43,1.43,0,0,0,.15-.7,1.24,1.24,0,0,0-.12-.6,1.16,1.16,0,0,0-.33-.37Z"/><path id="Path_691" data-name="Path 691" class="cls-4" d="M363.51,69.7a2.33,2.33,0,0,0-.74.11,1.5,1.5,0,0,0-1,.91,2.59,2.59,0,0,0-.13.87v.56h-.89v1h.81v3.8h1.16V73.13h1.32v-1h-1.32v-.62a1.47,1.47,0,0,1,0-.42,1,1,0,0,1,.16-.28.53.53,0,0,1,.26-.15,1,1,0,0,1,.35,0h.39l.39.08v-.92l-.42-.1a2.57,2.57,0,0,0-.4-.06Z"/><path id="Path_692" data-name="Path 692" class="cls-4" d="M368.59,72.75a2.16,2.16,0,0,0-.75-.52,2.87,2.87,0,0,0-1-.18,2.8,2.8,0,0,0-1,.18,2.16,2.16,0,0,0-.75.52,2,2,0,0,0-.48.78,3.3,3.3,0,0,0,0,2.06,2.18,2.18,0,0,0,1.22,1.3,2.9,2.9,0,0,0,1,.17,2.58,2.58,0,0,0,1-.17,2.34,2.34,0,0,0,.76-.52,2.42,2.42,0,0,0,.48-.78,3.3,3.3,0,0,0,0-2.06,2.17,2.17,0,0,0-.48-.78Zm-.65,2.48a1.47,1.47,0,0,1-.25.48,1.07,1.07,0,0,1-.37.3,1.2,1.2,0,0,1-1,0,1.1,1.1,0,0,1-.38-.3,1.69,1.69,0,0,1-.25-.48,2.85,2.85,0,0,1,0-1.34,1.69,1.69,0,0,1,.25-.48,1.07,1.07,0,0,1,.37-.3,1.15,1.15,0,0,1,.48-.1,1.12,1.12,0,0,1,.48.1.93.93,0,0,1,.38.3,1.47,1.47,0,0,1,.25.48,2.54,2.54,0,0,1,0,1.34Z"/><path id="Path_693" data-name="Path 693" class="cls-4" d="M371.92,72.26a1.59,1.59,0,0,0-.57.58h0l-.11-.67h-1v4.74h1.17V73.75a1.23,1.23,0,0,1,.63-.49,2.36,2.36,0,0,1,.91-.16h.1v-1a1.5,1.5,0,0,0-.3,0,1.75,1.75,0,0,0-.87.18Z"/><path id="Path_694" data-name="Path 694" class="cls-4" d="M379.77,72.75a2.1,2.1,0,0,0-.76-.52,2.87,2.87,0,0,0-2,0,2.16,2.16,0,0,0-1.23,1.3,2.79,2.79,0,0,0-.17,1,3,3,0,0,0,.16,1,2.42,2.42,0,0,0,.48.78,2.1,2.1,0,0,0,.76.52,2.65,2.65,0,0,0,1,.17,2.77,2.77,0,0,0,1-.17,2.29,2.29,0,0,0,.76-.52,2.15,2.15,0,0,0,.47-.78,3.16,3.16,0,0,0,0-2.06A2.21,2.21,0,0,0,379.77,72.75Zm-.7,2.48a1.23,1.23,0,0,1-.25.48,1,1,0,0,1-.36.3,1.33,1.33,0,0,1-.48.1,1.38,1.38,0,0,1-.49-.1,1.07,1.07,0,0,1-.37-.3,1.23,1.23,0,0,1-.25-.48,2.54,2.54,0,0,1,0-1.34,1.44,1.44,0,0,1,.24-.48,1.14,1.14,0,0,1,.39-.3A1,1,0,0,1,378,73a1.19,1.19,0,0,1,.49.1.9.9,0,0,1,.37.3,1.23,1.23,0,0,1,.25.48,2.54,2.54,0,0,1,0,1.34Z"/><path id="Path_695" data-name="Path 695" class="cls-4" d="M383.8,74c-.21.57-.38,1.06-.52,1.51h0c-.16-.51-.33-1-.52-1.54l-.67-1.83h-1.22l1.87,4.75h1.15l1.83-4.77h-1.24Z"/><path id="Path_696" data-name="Path 696" class="cls-4" d="M389.88,72.63a1.63,1.63,0,0,0-.66-.44,2.39,2.39,0,0,0-.84-.14,2.2,2.2,0,0,0-.83.17,2,2,0,0,0-.72.47,2.44,2.44,0,0,0-.5.81,3.11,3.11,0,0,0-.18,1.13,2.58,2.58,0,0,0,.2,1.13,1.87,1.87,0,0,0,.53.75,2.12,2.12,0,0,0,.8.42,3.42,3.42,0,0,0,1,.13,6.35,6.35,0,0,0,1-.08,4.29,4.29,0,0,0,.7-.2v-.91a6.87,6.87,0,0,1-.75.19,3.35,3.35,0,0,1-.71.07,2.17,2.17,0,0,1-.57-.07,1.17,1.17,0,0,1-.47-.21,1,1,0,0,1-.32-.38,1.37,1.37,0,0,1-.15-.56h3.12v-.42a3.73,3.73,0,0,0-.14-1.1A2.08,2.08,0,0,0,389.88,72.63ZM387.39,74a1.07,1.07,0,0,1,.1-.39.84.84,0,0,1,.19-.33.89.89,0,0,1,.7-.3.73.73,0,0,1,.38.08.85.85,0,0,1,.28.22,1,1,0,0,1,.16.33,1.32,1.32,0,0,1,.06.39Z"/><path id="Path_697" data-name="Path 697" class="cls-4" d="M393.21,72.26a1.51,1.51,0,0,0-.57.58h0l-.11-.67h-1v4.74h1.16V73.75a1.27,1.27,0,0,1,.63-.49,2.36,2.36,0,0,1,.91-.16h.1v-1a1.5,1.5,0,0,0-.3,0A1.61,1.61,0,0,0,393.21,72.26Z"/><path id="Path_698" data-name="Path 698" class="cls-4" d="M400.7,74.73h-1.17V76H399a6.91,6.91,0,0,0-.91,0h0l1.74-3.81h-1.19l-1.83,3.94v.78h2.7v1.9h1.17v-1.9h.85V76h-.85Z"/><path id="Path_699" data-name="Path 699" class="cls-4" d="M405.7,75.3a2.19,2.19,0,0,0-.73-.41,3.48,3.48,0,0,0-1-.15h-.24l.21-1.52h2.35v-1H403l-.52,3.6c.2,0,.4-.06.57-.06h.49a3,3,0,0,1,.73.07,1.54,1.54,0,0,1,.49.22.9.9,0,0,1,.28.36,1.27,1.27,0,0,1,0,.94.7.7,0,0,1-.25.36,1.11,1.11,0,0,1-.45.25,2.17,2.17,0,0,1-.67.09,2.88,2.88,0,0,1-.65-.07,3.38,3.38,0,0,1-.7-.23v1a5,5,0,0,0,.66.2,4.11,4.11,0,0,0,.77.08,3.13,3.13,0,0,0,1.1-.17,2.55,2.55,0,0,0,.82-.46,2,2,0,0,0,.49-.7,2.14,2.14,0,0,0,.18-.86,2.4,2.4,0,0,0-.15-.84,1.74,1.74,0,0,0-.44-.67Z"/><path id="Path_700" data-name="Path 700" class="cls-4" d="M412,74c-.26.66-.44,1.12-.52,1.37h0c-.12-.32-.3-.81-.58-1.46l-.71-1.73H408.9l2,4.5-1.1,2.55h1.15L414,72.16H412.7Z"/><path id="Path_701" data-name="Path 701" class="cls-4" d="M418.13,72.63a1.6,1.6,0,0,0-.65-.44,2.64,2.64,0,0,0-.84-.14,2.21,2.21,0,0,0-.84.17,2.15,2.15,0,0,0-.71.47,2.44,2.44,0,0,0-.5.81,3.12,3.12,0,0,0-.19,1.13,3.09,3.09,0,0,0,.19,1.13,2,2,0,0,0,.54.75,2.28,2.28,0,0,0,.8.42,3.54,3.54,0,0,0,1,.13,6.35,6.35,0,0,0,1-.08,4,4,0,0,0,.68-.19v-.92a4.73,4.73,0,0,1-.74.19,3.35,3.35,0,0,1-.71.07,1.86,1.86,0,0,1-.57-.07,1.16,1.16,0,0,1-.79-.58,1.26,1.26,0,0,1-.14-.57h3.12V74.5a3.12,3.12,0,0,0-.16-1.1A1.89,1.89,0,0,0,418.13,72.63ZM415.64,74a1.32,1.32,0,0,1,.1-.39.94.94,0,0,1,.2-.33.89.89,0,0,1,.29-.22.76.76,0,0,1,.39-.08.8.8,0,0,1,.4.08.82.82,0,0,1,.27.22,1,1,0,0,1,.17.33,1.74,1.74,0,0,1,.05.39Z"/><path id="Path_702" data-name="Path 702" class="cls-4" d="M423.68,75.52V73.69a1.65,1.65,0,0,0-.13-.66,1.31,1.31,0,0,0-.4-.53,2,2,0,0,0-.65-.36,2.81,2.81,0,0,0-.91-.12,4,4,0,0,0-.85.09,3.53,3.53,0,0,0-.76.24v.92a5.28,5.28,0,0,1,.77-.24,2.42,2.42,0,0,1,.71-.08A1.39,1.39,0,0,1,422,73a.8.8,0,0,1,.32.19.75.75,0,0,1,.18.28.87.87,0,0,1,.06.32V74a3.4,3.4,0,0,0-.46-.09,2.72,2.72,0,0,0-.57,0,2.25,2.25,0,0,0-.77.11,1.59,1.59,0,0,0-.6.32,1.4,1.4,0,0,0-.38.52,1.62,1.62,0,0,0-.15.69,1.72,1.72,0,0,0,.12.63,1.32,1.32,0,0,0,.34.47,1.24,1.24,0,0,0,.5.31,1.7,1.7,0,0,0,.63.1,1.48,1.48,0,0,0,.47,0,1.88,1.88,0,0,0,.39-.16,2.14,2.14,0,0,0,.32-.2,1.2,1.2,0,0,0,.23-.22h0l.05.52h1.05V75.52Zm-1.17.11a1,1,0,0,1-.17.18,2.11,2.11,0,0,1-.23.19l-.3.12a1.15,1.15,0,0,1-.33,0,.84.84,0,0,1-.27,0A.57.57,0,0,1,421,76a.53.53,0,0,1-.16-.2.71.71,0,0,1-.05-.29A.6.6,0,0,1,421,75a1.13,1.13,0,0,1,.67-.16,3.08,3.08,0,0,1,.43,0,2.66,2.66,0,0,1,.39.07Z"/><path id="Path_703" data-name="Path 703" class="cls-4" d="M426.69,72.26a1.39,1.39,0,0,0-.57.58h0l-.11-.67h-1v4.74h1.16V73.75a1.23,1.23,0,0,1,.63-.49,2.58,2.58,0,0,1,.91-.17h.1v-1a1.5,1.5,0,0,0-.3,0A1.59,1.59,0,0,0,426.69,72.26Z"/><path id="Path_704" data-name="Path 704" class="cls-4" d="M431.32,74.47a1.54,1.54,0,0,0-.44-.23l-.49-.15-.32-.08a2.07,2.07,0,0,1-.33-.1.63.63,0,0,1-.23-.16.45.45,0,0,1-.1-.27.54.54,0,0,1,0-.18.42.42,0,0,1,.13-.16.94.94,0,0,1,.23-.1,1,1,0,0,1,.35,0,2,2,0,0,1,.35,0l.36.06.36.08.35.1v-.94a4.26,4.26,0,0,0-.7-.19,4.57,4.57,0,0,0-.83-.07,2.18,2.18,0,0,0-.67.1,1.52,1.52,0,0,0-.57.28,1.33,1.33,0,0,0-.39.49,1.47,1.47,0,0,0-.14.69,1.14,1.14,0,0,0,.11.54,1,1,0,0,0,.28.38,1.76,1.76,0,0,0,.42.24l.49.16.39.1a2.13,2.13,0,0,1,.33.11.87.87,0,0,1,.23.16.5.5,0,0,1,.08.26.48.48,0,0,1-.07.26l-.15.15a1.39,1.39,0,0,1-.33.1,2.67,2.67,0,0,1-.4,0,4,4,0,0,1-.6,0,3,3,0,0,1-.71-.2v.92a2.7,2.7,0,0,0,.6.17,3.8,3.8,0,0,0,.82.08,3.93,3.93,0,0,0,.84-.09,1.84,1.84,0,0,0,.65-.3,1.38,1.38,0,0,0,.43-.5,1.69,1.69,0,0,0,.15-.7,1.23,1.23,0,0,0-.13-.6A1.1,1.1,0,0,0,431.32,74.47Z"/></g></svg>